/* XPM */
static char *result[] = {
/* columns rows colors chars-per-pixel */
"64 64 117 2 ",
"   c #32324D",
".  c #37334D",
"X  c #35374E",
"o  c #3B344C",
"O  c #393C4F",
"+  c #393A57",
"@  c #3C3F5B",
"#  c #45374C",
"$  c #4A384C",
"%  c #583B4A",
"&  c #3F4551",
"*  c #434B53",
"=  c #4D5956",
"-  c #6A4048",
";  c #5A6B59",
":  c #424765",
">  c #434967",
",  c #434968",
"<  c #444A68",
"1  c #454A68",
"2  c #454B69",
"3  c #454B6A",
"4  c #464B6A",
"5  c #464C69",
"6  c #464C6A",
"7  c #464C6B",
"8  c #464D6B",
"9  c #474D6B",
"0  c #535E7E",
"q  c #884746",
"w  c #9A4C45",
"e  c #D35A40",
"r  c #D35B41",
"t  c #D45C42",
"y  c #D35C44",
"u  c #D3614A",
"i  c #D3654F",
"p  c #D46955",
"a  c #D46C59",
"s  c #D4705F",
"d  c #D57161",
"f  c #D57262",
"g  c #D57565",
"h  c #6E8A61",
"j  c #7C9D65",
"k  c #D58175",
"l  c #D5877D",
"z  c #A4D772",
"x  c #D2F155",
"c  c #D2F156",
"v  c #D3F157",
"b  c #D3F15B",
"n  c #D4F15F",
"m  c #D4F160",
"M  c #D4F163",
"N  c #D4F164",
"B  c #D4F165",
"V  c #D5F16A",
"C  c #D6F16E",
"Z  c #D6F170",
"A  c #D7F173",
"S  c #D8F17C",
"D  c #5F6A89",
"F  c #686D8B",
"G  c #66708E",
"H  c #727794",
"J  c #787E9A",
"K  c #77819C",
"L  c #8A8FAB",
"P  c #8992AB",
"I  c #D7918B",
"U  c #D79795",
"Y  c #D79A98",
"T  c #D7A2A4",
"R  c #D8ADB2",
"E  c #D8B5BE",
"W  c #DBF18D",
"Q  c #DCF196",
"!  c #DEF1A3",
"~  c #E0F1B0",
"^  c #E1F1B1",
"/  c #E0F1B2",
"(  c #E1F1B5",
")  c #A0A7C1",
"_  c #AEB6D1",
"`  c #D9BAC6",
"'  c #D9BCC8",
"]  c #D9C1CD",
"[  c #D9C3D2",
"{  c #D9C7D6",
"}  c #DACDDF",
"|  c #E3F1C3",
" . c #E3F1C7",
".. c #E4F1C9",
"X. c #E6F1D6",
"o. c #E6F1D8",
"O. c #CAD1EB",
"+. c #DAD2E5",
"@. c #DAD7ED",
"#. c #DBD8EE",
"$. c #DADBF1",
"%. c #DBDCF4",
"&. c #DADEF6",
"*. c #DBE0F9",
"=. c #DAE1FB",
"-. c #DBE2FC",
";. c #DBE3FD",
":. c #E8F1E3",
">. c #EAF1EF",
",. c #E9F1F0",
"<. c #EAF1F1",
"1. c #EAF1F3",
"2. c #EBF1F6",
"3. c #EBF1FB",
"4. c #ECF1F8",
"5. c #ECF1FD",
"6. c None",
/* pixels */
"6.6.6.6.6.6.6.6.6.6.6.6.6.6.6.6.6.6.6.6.6.6.6.6.6.6.6.6.6.6.6.6.6.6.6.6.6.6.6.6.6.6.6.6.6.6.6.6.6.6.6.6.6.6.6.6.6.6.6.6.6.6.6.6.",
"6.6.6.6.6.6.6.6.6.6.6.6.6.6.6.6.6.6.6.6.6.6.6.6.6.6.6.6.6.6.6.6.6.6.6.6.6.6.6.6.6.6.6.6.6.6.6.6.6.6.6.6.6.6.6.6.6.6.6.6.6.6.6.6.",
"0 0 0 0 0 0 0 0 0 0 0 0 0 0 0 0 0 0 0 0 0 0 0 0 0 0 0 0 > : : : : : : : : : : : : : : : : : : : : : : : : : : : 6.6.6.6.6.6.6.6.",
"0 0 0 0 0 0 0 0 0 0 0 0 0 0 0 0 0 0 0 0 0 0 0 0 0 0 0 0 , : : : : : : : : : : : : : : : : : : : : : : : : : : : 6.6.6.6.6.6.6.6.",
"0 0 0 0 0 0 0 0 0 0 0 0 0 0 0 0 0 0 0 0 0 0 0 0 0 0 0 0 < : : : : : : : : : : : : : : : : : : : : : : : : : : : 6.6.6.6.6.6.6.6.",
"0 0 0 D P P P P P P P P P P P P P P P P P P P P P P G 0 1 : H J J J J J J J J J J J J J J J J J J J J J F : : : 6.6.6.6.6.6.6.6.",
"0 0 0 K 5.5.5.5.5.5.5.5.5.5.5.5.5.5.5.5.5.5.5.5.5.5.P 0 1 : O.;.;.;.;.;.;.;.;.;.;.;.;.;.;.;.;.;.;.;.;.;._ : : : 6.6.6.6.6.6.6.6.",
"0 0 0 K 5.5.5.5.5.5.5.5.5.5.5.5.5.5.5.5.5.5.5.5.5.5.P 0 2 : O.;.;.;.;.;.;.;.;.;.;.;.;.;.;.;.;.;.;.;.;.;._ : : : 6.6.6.6.6.6.6.6.",
"0 0 0 K 5.5.5.5.5.5.5.5.5.5.5.5.5.5.5.5.5.5.5.5.5.5.P 0 3 : O.;.;.;.;.;.;.;.;.;.;.;.;.;.;.;.;.;.;.;.;.;._ : : : 6.6.6.6.6.6.6.6.",
"0 0 0 K 5.5.5.5.5.5.5.5.5.5.5.5.5.5.5.5.5.5.5.5.5.5.P 0 4 : O.;.;.;.;.;.;.;.;.;.;.;.;.;.;.;.;.;.;.;.;.;._ : : : 6.6.6.6.6.6.6.6.",
"0 0 0 K 5.5.5.5.5.5.5.5.5.5.5.5.5.5.5.5.5.5.5.5.5.5.P 0 5 : O.;.;.;.;.;.;.;.;.;.;.;.;.;.;.;.;.;.;.;.;.;._ : : : 6.6.6.6.6.6.6.6.",
"0 0 0 K 5.5.5.5.5.5.5.5.5.5.5.5.5.5.5.5.5.5.5.5.5.5.P 0 6 : O.;.;.;.;.;.;.;.;.;.;.;.;.;.;.;.;.;.;.;.;.;._ : : : 6.6.6.6.6.6.6.6.",
"0 0 0 K 5.5.5.5.5.5.5.5.5.5.5.5.5.5.5.5.5.5.5.5.5.5.P 0 7 : O.;.;.;.;.;.;.;.;.;.;.;.;.;.;.;.;.;.;.;.;.;._ : : : 6.6.6.6.6.6.6.6.",
"0 0 0 K 5.5.5.5.5.5.5.5.5.5.5.5.5.5.5.5.5.5.5.5.5.5.P 0 9 : O.;.;.;.;.;.;.;.;.;.;.;.;.;.;.;.;.;.;.;.;.;._ : : : 6.6.6.6.6.6.6.6.",
"0 0 0 K 5.5.5.5.5.5.5.5.5.5.5.5.5.5.5.5.5.5.5.5.5.5.P 0 8 : O.;.;.;.;.;.;.;.;.;.;.;.;.;.;.;.;.;.;.;.;.;._ : : : 6.6.6.6.6.6.6.6.",
"0 0 0 K 5.5.5.5.5.5.5.5.5.5.5.5.5.5.5.5.5.5.5.5.5.5.P 0 8 : O.;.;.;.;.;.;.;.;.;.;.;.;.;.;.;.;.;.;.;.;.;._ : : : 6.6.6.6.6.6.6.6.",
"0 0 0 K 5.5.5.5.5.5.5.5.5.5.5.5.5.5.5.5.5.5.5.5.5.5.P 0 8 : O.;.;.;.;.;.;.;.;.;.;.;.;.;.;.;.;.;.;.;.;.;._ : : : 6.6.6.6.6.6.6.6.",
"0 0 0 K 5.5.5.5.5.5.5.5.5.5.5.5.5.5.5.5.5.5.5.5.5.5.P 0 8 : O.;.;.;.;.;.;.;.;.;.;.;.;.;.;.;.;.;.;.;.;.;._ : : : 6.6.6.6.6.6.6.6.",
"0 0 0 K 5.5.5.5.5.5.5.5.5.5.5.5.5.5.5.5.5.5.5.5.5.5.P 0 8 : O.;.;.;.;.;.;.;.;.;.;.;.;.;.;.;.;.;.;.;.;.;._ : : : 6.6.6.6.6.6.6.6.",
"0 0 0 K 5.5.5.5.5.5.5.5.5.5.5.5.5.5.5.5.5.5.5.5.5.5.P 0 8 : O.;.;.;.;.;.;.;.;.;.;.;.;.;.;.;.;.;.;.;.;.;._ : : : 6.6.6.6.6.6.6.6.",
"0 0 0 K 5.5.5.5.5.5.5.5.5.5.5.5.5.5.5.5.5.5.5.5.5.5.P 0 8 : O.;.;.;.;.;.;.;.;.;.;.;.;.;.;.;.;.;.;.;.;.;._ : : : 6.6.6.6.6.6.6.6.",
"0 0 0 K 5.5.5.5.5.5.5.5.5.5.5.5.5.5.5.5.5.5.5.5.5.5.P 0 8 : O.;.;.;.;.;.;.;.;.;.;.;.;.;.;.;.;.;.;.;.;.;._ : : : 6.6.6.6.6.6.6.6.",
"0 0 0 K 5.5.5.5.5.5.5.5.5.5.5.5.5.5.5.5.5.5.5.5.5.5.P 0 8 : O.;.;.;.;.;.;.;.;.;.;.;.;.;.;.;.;.;.;.;.;.;.) @ @ @ + 6.6.6.6.6.6.6.",
"0 0 0 K 5.5.5.5.5.5.5.5.5.5.5.5.5.5.5.5.5.5.5.5.5.5.P 0 8 : O.;.;.;.;.;.;.;.;.;.;.;.;.;.;.;.;.;.;.;.;.;.L                       ",
"0 0 0 K 5.5.5.5.5.5.5.5.5.4.! Q 1.5.5.5.5.5.5.5.5.5.P 0 8 : O.;.;.;.;.;.;.;.;.] Y Y Y } ;.;.;.;.;.;.;.;.L                       ",
"0 0 0 K 5.5.5.5.5.5.5.5.o.Z x x B ..5.5.5.5.5.5.5.5.P 0 8 : O.;.;.;.;.;.;.;.;.T e e e ` ;.;.;.;.;.;.;.;.L                       ",
"0 0 0 K 5.5.5.5.5.5.4.! v x x x x x W <.5.5.5.5.5.5.P 0 8 : O.;.;.;.;.;.;.;.;.T e e e ` ;.;.;.;.;.;.;.;.L       - w w w $       ",
"0 0 0 K 5.5.5.5.5.o.Z x x x x x x x x B ..5.5.5.5.5.P 0 8 : O.;.;.;.;.;.;.;.;.T e e e ` ;.;.;.;.;.;.;.;.L       q e e e %       ",
"0 0 0 K 5.5.5.5.| v x x x x x x x x x x x ~ 5.5.5.5.P 0 8 : O.;.;.;.;.;.;.;.;.T e e e ` ;.;.;.;.;.;.;.;.L       q e e e %       ",
"0 0 0 K 5.5.5.5.>.M x x x v x x c c x x b :.5.5.5.5.P 0 8 : O.;.;.;.;.;.;.;.;.T e e e ` ;.;.;.;.;.;.;.;.L       q e e e %       ",
"0 0 0 K 5.5.5.5.5...x N  .A x x n X.C x / 5.5.5.5.5.P 0 8 : O.;.;.;.;.;.;.;.;.T e e e ` ;.;.;.;.;.;.;.;.L       o # # # .       ",
"0 0 0 K 5.5.5.5.5.5.( ,.5.A x x n 5.2.^ 3.5.5.5.5.5.P 0 8 : O.;.;.;.;.;.;.;.;.T e e e ` ;.;.;.;.;.;.;.;.L                       ",
"0 0 0 K 5.5.5.5.5.5.5.5.5.A x x n 5.5.5.5.5.5.5.5.5.P 0 8 : O.;.;.;.;.;.;.;.;.T e e e ` ;.;.;.;.;.;.;.;.L                       ",
"0 0 0 K 5.5.5.5.5.5.5.5.5.A x x n 5.5.5.5.5.5.5.5.5.P 0 8 : O.;.;.;.;.;.#.*.;.T e e e ` ;.$.&.;.;.;.;.;.L       O & & & X       ",
"0 0 0 K 5.5.5.5.5.5.5.5.5.A x x n 5.5.5.5.5.5.5.5.5.P 0 8 : O.;.;.;.;.-.k d { T e e e ` ' p U ;.;.;.;.;.L       h z z z =       ",
"0 0 0 K 5.5.5.5.5.5.5.5.5.A x x n 5.5.5.5.5.5.5.5.5.P 0 8 : O.;.;.;.;.R e e y f e e e g e e t [ ;.;.;.;.L       h z z z =       ",
"0 0 0 K 5.5.5.5.5.5.5.5.5.A x x n 5.5.5.5.5.5.5.5.5.P 0 8 : O.;.;.;.@.u e e e e e e e e e e e s =.;.;.;.L       h z z z =       ",
"0 0 0 K 5.5.5.5.5.5.5.5.5.A x x n 5.5.5.5.5.5.5.5.5.P 0 8 : O.;.;.;.;.E i e e e e e e e e e a ] ;.;.;.;.L       ; j j j *       ",
"0 0 0 K 5.5.5.5.5.5.5.5.5.A x x n 5.5.5.5.5.5.5.5.5.P 0 8 : O.;.;.;.;.;.@.l e e e e e e r I %.;.;.;.;.;.L                       ",
"0 0 0 K 5.5.5.5.5.5.5.5.5.A x x n 5.5.5.5.5.5.5.5.5.P 0 8 : O.;.;.;.;.;.;.;.E i e e e a ] ;.;.;.;.;.;.;.L                       ",
"0 0 0 K 5.5.5.5.5.5.5.5.5.S m m V 5.5.5.5.5.5.5.5.5.P 0 8 : O.;.;.;.;.;.;.;.;.@.l r I %.;.;.;.;.;.;.;.;.L                       ",
"0 0 0 K 5.5.5.5.5.5.5.5.5.5.5.5.5.5.5.5.5.5.5.5.5.5.P 0 8 : O.;.;.;.;.;.;.;.;.;.;.+.;.;.;.;.;.;.;.;.;.;.) @ @ @ + 6.6.6.6.6.6.6.",
"0 0 0 K 5.5.5.5.5.5.5.5.5.5.5.5.5.5.5.5.5.5.5.5.5.5.P 0 8 : O.;.;.;.;.;.;.;.;.;.;.;.;.;.;.;.;.;.;.;.;.;._ : : : 6.6.6.6.6.6.6.6.",
"0 0 0 K 5.5.5.5.5.5.5.5.5.5.5.5.5.5.5.5.5.5.5.5.5.5.P 0 8 : O.;.;.;.;.;.;.;.;.;.;.;.;.;.;.;.;.;.;.;.;.;._ : : : 6.6.6.6.6.6.6.6.",
"0 0 0 K 5.5.5.5.5.5.5.5.5.5.5.5.5.5.5.5.5.5.5.5.5.5.P 0 8 : O.;.;.;.;.;.;.;.;.;.;.;.;.;.;.;.;.;.;.;.;.;._ : : : 6.6.6.6.6.6.6.6.",
"0 0 0 K 5.5.5.5.5.5.5.5.5.5.5.5.5.5.5.5.5.5.5.5.5.5.P 0 8 : O.;.;.;.;.;.;.;.;.;.;.;.;.;.;.;.;.;.;.;.;.;._ : : : 6.6.6.6.6.6.6.6.",
"0 0 0 K 5.5.5.5.5.5.5.5.5.5.5.5.5.5.5.5.5.5.5.5.5.5.P 0 8 : O.;.;.;.;.;.;.;.;.;.;.;.;.;.;.;.;.;.;.;.;.;._ : : : 6.6.6.6.6.6.6.6.",
"0 0 0 K 5.5.5.5.5.5.5.5.5.5.5.5.5.5.5.5.5.5.5.5.5.5.P 0 8 : O.;.;.;.;.;.;.;.;.;.;.;.;.;.;.;.;.;.;.;.;.;._ : : : 6.6.6.6.6.6.6.6.",
"0 0 0 K 5.5.5.5.5.5.5.5.5.5.5.5.5.5.5.5.5.5.5.5.5.5.P 0 8 : O.;.;.;.;.;.;.;.;.;.;.;.;.;.;.;.;.;.;.;.;.;._ : : : 6.6.6.6.6.6.6.6.",
"0 0 0 K 5.5.5.5.5.5.5.5.5.5.5.5.5.5.5.5.5.5.5.5.5.5.P 0 8 : O.;.;.;.;.;.;.;.;.;.;.;.;.;.;.;.;.;.;.;.;.;._ : : : 6.6.6.6.6.6.6.6.",
"0 0 0 K 5.5.5.5.5.5.5.5.5.5.5.5.5.5.5.5.5.5.5.5.5.5.P 0 8 : O.;.;.;.;.;.;.;.;.;.;.;.;.;.;.;.;.;.;.;.;.;._ : : : 6.6.6.6.6.6.6.6.",
"0 0 0 K 5.5.5.5.5.5.5.5.5.5.5.5.5.5.5.5.5.5.5.5.5.5.P 0 7 : O.;.;.;.;.;.;.;.;.;.;.;.;.;.;.;.;.;.;.;.;.;._ : : : 6.6.6.6.6.6.6.6.",
"0 0 0 K 5.5.5.5.5.5.5.5.5.5.5.5.5.5.5.5.5.5.5.5.5.5.P 0 6 : O.;.;.;.;.;.;.;.;.;.;.;.;.;.;.;.;.;.;.;.;.;._ : : : 6.6.6.6.6.6.6.6.",
"0 0 0 K 5.5.5.5.5.5.5.5.5.5.5.5.5.5.5.5.5.5.5.5.5.5.P 0 6 : O.;.;.;.;.;.;.;.;.;.;.;.;.;.;.;.;.;.;.;.;.;._ : : : 6.6.6.6.6.6.6.6.",
"0 0 0 K 5.5.5.5.5.5.5.5.5.5.5.5.5.5.5.5.5.5.5.5.5.5.P 0 4 : O.;.;.;.;.;.;.;.;.;.;.;.;.;.;.;.;.;.;.;.;.;._ : : : 6.6.6.6.6.6.6.6.",
"0 0 0 K 5.5.5.5.5.5.5.5.5.5.5.5.5.5.5.5.5.5.5.5.5.5.P 0 3 : O.;.;.;.;.;.;.;.;.;.;.;.;.;.;.;.;.;.;.;.;.;._ : : : 6.6.6.6.6.6.6.6.",
"0 0 0 K 5.5.5.5.5.5.5.5.5.5.5.5.5.5.5.5.5.5.5.5.5.5.P 0 2 : O.;.;.;.;.;.;.;.;.;.;.;.;.;.;.;.;.;.;.;.;.;._ : : : 6.6.6.6.6.6.6.6.",
"0 0 0 K 5.5.5.5.5.5.5.5.5.5.5.5.5.5.5.5.5.5.5.5.5.5.P 0 1 : O.;.;.;.;.;.;.;.;.;.;.;.;.;.;.;.;.;.;.;.;.;._ : : : 6.6.6.6.6.6.6.6.",
"0 0 0 D P P P P P P P P P P P P P P P P P P P P P P G 0 1 : H J J J J J J J J J J J J J J J J J J J J J F : : : 6.6.6.6.6.6.6.6.",
"0 0 0 0 0 0 0 0 0 0 0 0 0 0 0 0 0 0 0 0 0 0 0 0 0 0 0 0 2 : : : : : : : : : : : : : : : : : : : : : : : : : : : 6.6.6.6.6.6.6.6.",
"0 0 0 0 0 0 0 0 0 0 0 0 0 0 0 0 0 0 0 0 0 0 0 0 0 0 0 0 , : : : : : : : : : : : : : : : : : : : : : : : : : : : 6.6.6.6.6.6.6.6.",
"0 0 0 0 0 0 0 0 0 0 0 0 0 0 0 0 0 0 0 0 0 0 0 0 0 0 0 0 > : : : : : : : : : : : : : : : : : : : : : : : : : : : 6.6.6.6.6.6.6.6.",
"6.6.6.6.6.6.6.6.6.6.6.6.6.6.6.6.6.6.6.6.6.6.6.6.6.6.6.6.6.6.6.6.6.6.6.6.6.6.6.6.6.6.6.6.6.6.6.6.6.6.6.6.6.6.6.6.6.6.6.6.6.6.6.6.",
"6.6.6.6.6.6.6.6.6.6.6.6.6.6.6.6.6.6.6.6.6.6.6.6.6.6.6.6.6.6.6.6.6.6.6.6.6.6.6.6.6.6.6.6.6.6.6.6.6.6.6.6.6.6.6.6.6.6.6.6.6.6.6.6."
};
