/* XPM */
static char *result[] = {
/* columns rows colors chars-per-pixel */
"64 64 54 1 ",
"  c #3E3377",
". c #EC6C78",
"X c #453883",
"o c #463A83",
"O c #6E6D9C",
"+ c #6F6F9D",
"@ c #584AA4",
"# c #5A4CA5",
"$ c #6C68A0",
"% c #7F81A8",
"& c #8A84BD",
"* c #8A86BE",
"= c #979FBB",
"- c #D599A5",
"; c #D49BA7",
": c #C9B2BE",
"> c #C8B3BE",
", c #8882D7",
"< c #9796D7",
"1 c #A9B5C8",
"2 c #AEB8CB",
"3 c #A2A6D7",
"4 c #A9B1D7",
"5 c #AFB9D6",
"6 c #B3BDD6",
"7 c #C7B6C1",
"8 c #C3BFCA",
"9 c #B3C1CF",
"0 c #BFC6D1",
"q c #BBC9D6",
"w c #BCCBD6",
"e c #BDCCD6",
"r c #BFCCD7",
"t c #BFCDD7",
"y c #BECDD8",
"u c #C1C1CB",
"i c #C4CADB",
"p c #C1CED8",
"a c #C2CFD9",
"s c #C4C9DC",
"d c #C3D0DA",
"f c #C5D1DB",
"g c #D1DBE2",
"h c #D1DBE3",
"j c #D4DCE4",
"k c #D6DDE6",
"l c #E1E8EC",
"z c #E3EAEE",
"x c #E5EBEF",
"c c #E6ECF0",
"v c #E7EEF1",
"b c #E8EEF1",
"n c #E9EEF1",
"m c #F4F7F8",
/* pixels */
"jjjjjjjjjjjjjjjjjjjjjjjjjjjjrwwwwwwwwwwwwwwwwwwwwwwwwwwwwwwwwwww",
"jjjjjjjjjjjjjjjjjjjjjjjjjjjjtwwwwwwwwwwwwwwwwwwwwwwwwwwwwwwwwwww",
"jjjjjjjjjjjjjjjjjjjjjjjjjjjjpwwwwwwwwwwwwwwwwwwwwwwwwwwwwwwwwwww",
"jjjjjjjjjjjjjjjjjjjjjjjjjjjjawwwwwwwwwwwwwwwwwwwwwwwwwwwwwwwwwww",
"jjjjjjjjjjjjjjjjjjjjjjjjjjjjdwwwwwwwwwwwwwwwwwwwwwwwwwwwwwwwwwww",
"jjjjjjjjjjjjjjjjjjjjjjjjjjjjawwwwwwwwwwwwwwwwwwwwwwwwwwwwwwwwwww",
"jjjjjjjjjjjjjjjjjjjjjjjjjjjjawwwwwwwwwwwwwwwwwwwwwwwwwwwwwwwwwww",
"jjjjjjjjjjjjjjjjjjjjjjjjjjjjawwwwwwwwwwwwwwwwwwwwwwwwwwwwwwwwwww",
"jjjjjjjjjjjjjjjjjjjjjj*&&&&&$O++++=wwwwwwwwwwwwwwwwwwwwwwwwwwwww",
"jjjjjjjjjjjjjjjjjjjjjj#@@@@@X     %wwwwwwwwwwwwwwwwwwwwwwwwwwwww",
"jjjjjjjjjjjjjjjjjjjjjj#@@@@@X     %wwwwwwwwwwwwwwwwwwwwwwwwwwwww",
"jjjjjjjjjjjjjjjjjjjjjj#@@@@@o     %wwwwwwwwwwwwwwwwwwwwwwwwwwwww",
"jjjjjjjjjjjjjjjjjjjjjjisssss2111119wwwwwwwwwwwwwwwwwwwwwwwwwwwww",
"jjjjjjjjjjjjjjjjjjjjjjjjjjjjawwwwwwwwwwwwwwwwwwwwwwwwwwwwwwwwwww",
"jjjjjjjjjjjjjjjjjjjjjjjjjjjjawwwwwwwwwwwwwwwwwwwwwwwwwwwwwwwwwww",
"jjjjjjjjjjjjjjjjjjjjjjjjjjjjawwwwwwwwwwwwwwwwwwwwwwwwwwwwwwwwwww",
"jjjjjjjjjjjjjjjjjjjjjjjjjjjjawwwwwwwwwwwwwwwwwwwwwwwwwwwwwwwwwww",
"jjjjjjjjjjjjjjjjjjjjjjjjjjjjawwwwwwwwwwwwwwwwwwwwwwwwwwwwwwwwwww",
"jjjjjjjjjjjjjjjjjjjjjjjjjjjjawwwwwwwwwwwwwwwwwwwwwwwwwwwwwwwwwww",
"jjjjjjjjjjkkkkkkkkkkkkkkkkkkfyyyyyyyyyyyyyyyyyewwwwwwwwwwwwwwwww",
"jjjjjjjjjjmmmmmmmmmmmmmmmmmmlxxxxxxxxxxxxxxxxxhwwwwwwwwwwwwwwwww",
"jjjjjjjjjjmmmmmmmmmmmmmmmmmmzxxxxxxxxxxxxxxxxxhwwwwwwwwwwwwwwwww",
"jjjjjjjjjjmmmmmmmmmmmmmmmmmmcxxxxxxxxxxxxxxxxxhwwwwwwwwwwwwwwwww",
"jjjjjjjjjjmmmmmmmmmmmmmmmmmmbxxxxxxxxxxxxxxxxxhwwwwwwwwwwwwwwwww",
"jjjjjjjjjjmmmmmmmmmmmmmmmmmmbxxxxxxxxxxxxxxxxxhwwwwwwwwwwwwwwwww",
"jjjjjjjjjjmmmmmmmmmmmmmmmmmmbxxxxxxxxxxxxxxxxxhwwwwwwwwwwwwwwwww",
"jjjjjjjjjjmmmmmmmmmmmmmmmmmmbxxxxxxxxxxxxxxxxxhwwwwwwu7770wwwwww",
"jjjjjjjjjjmmmmmmmmmmmmmmmmmmbxxxxxxxxxxxxxxxxxhwwwwww;...>wwwwww",
"jjjjjjjjjjmmmmmmmmmmmmmmmmmmbxxxxxxxxxxxxxxxxxhwwwwww;...>wwwwww",
"jjjjjjjjjjmmmmmmmmmmmmmmmmmmbxxxxxxxxxxxxxxxxxhwwwwww;...>wwwwww",
"jjjjjjjjjjmmmmmmmmmmmmmmmmmmbxxxxxxxxxxxxxxxxxhwwwwww:---8wwwwww",
"jjjjjjjjjjmmmmmmmmmmmmmmmmmmbxxxxxxxxxxxxxxxxxhwwwwwwwwwwwwwwwww",
"jjjjjjjjjjmmmmmmmmmmmmmmmmmmbxxxxxxxxxxxxxxxxxhwwwwwwwwwwwwwwwww",
"jjjjjjjjjjmmmmmmmmmmmmmmmmmmbxxxxxxxxxxxxxxxxxhwwwwwwwwwwwwwwwww",
"jjjjjjjjjjmmmmmmmmmmmmmmmmmmbxxxxxxxxxxxxxxxxxhwwwwww4<<<6wwwwww",
"jjjjjjjjjjmmmmmmmmmmmmmmmmmmbxxxxxxxxxxxxxxxxxhwwwwww3,,,5wwwwww",
"jjjjjjjjjjmmmmmmmmmmmmmmmmmmbxxxxxxxxxxxxxxxxxhwwwwww3,,,5wwwwww",
"jjjjjjjjjjmmmmmmmmmmmmmmmmmmbxxxxxxxxxxxxxxxxxhwwwwww3,,,5wwwwww",
"jjjjjjjjjjmmmmmmmmmmmmmmmmmmbxxxxxxxxxxxxxxxxxhwwwwwwwqqqwwwwwww",
"jjjjjjjjjjmmmmmmmmmmmmmmmmmmbxxxxxxxxxxxxxxxxxhwwwwwwwwwwwwwwwww",
"jjjjjjjjjjmmmmmmmmmmmmmmmmmmbxxxxxxxxxxxxxxxxxhwwwwwwwwwwwwwwwww",
"jjjjjjjjjjmmmmmmmmmmmmmmmmmmbxxxxxxxxxxxxxxxxxhwwwwwwwwwwwwwwwww",
"jjjjjjjjjjmmmmmmmmmmmmmmmmmmbxxxxxxxxxxxxxxxxxhwwwwwwwwwwwwwwwww",
"jjjjjjjjjjmmmmmmmmmmmmmmmmmmbxxxxxxxxxxxxxxxxxhwwwwwwwwwwwwwwwww",
"jjjjjjjjjjmmmmmmmmmmmmmmmmmmbxxxxxxxxxxxxxxxxxhwwwwwwwwwwwwwwwww",
"jjjjjjjjjjmmmmmmmmmmmmmmmmmmbxxxxxxxxxxxxxxxxxhwwwwwwwwwwwwwwwww",
"jjjjjjjjjjmmmmmmmmmmmmmmmmmmbxxxxxxxxxxxxxxxxxhwwwwwwwwwwwwwwwww",
"jjjjjjjjjjmmmmmmmmmmmmmmmmmmbxxxxxxxxxxxxxxxxxhwwwwwwwwwwwwwwwww",
"jjjjjjjjjjmmmmmmmmmmmmmmmmmmbxxxxxxxxxxxxxxxxxhwwwwwwwwwwwwwwwww",
"jjjjjjjjjjmmmmmmmmmmmmmmmmmmbxxxxxxxxxxxxxxxxxhwwwwwwwwwwwwwwwww",
"jjjjjjjjjjmmmmmmmmmmmmmmmmmmbxxxxxxxxxxxxxxxxxhwwwwwwwwwwwwwwwww",
"jjjjjjjjjjmmmmmmmmmmmmmmmmmmbxxxxxxxxxxxxxxxxxhwwwwwwwwwwwwwwwww",
"jjjjjjjjjjmmmmmmmmmmmmmmmmmmbxxxxxxxxxxxxxxxxxhwwwwwwwwwwwwwwwww",
"jjjjjjjjjjmmmmmmmmmmmmmmmmmmbxxxxxxxxxxxxxxxxxhwwwwwwwwwwwwwwwww",
"jjjjjjjjjjmmmmmmmmmmmmmmmmmmbxxxxxxxxxxxxxxxxxhwwwwwwwwwwwwwwwww",
"jjjjjjjjjjmmmmmmmmmmmmmmmmmmbxxxxxxxxxxxxxxxxxhwwwwwwwwwwwwwwwww",
"jjjjjjjjjjmmmmmmmmmmmmmmmmmmbxxxxxxxxxxxxxxxxxhwwwwwwwwwwwwwwwww",
"jjjjjjjjjjmmmmmmmmmmmmmmmmmmbxxxxxxxxxxxxxxxxxhwwwwwwwwwwwwwwwww",
"jjjjjjjjjjmmmmmmmmmmmmmmmmmmbxxxxxxxxxxxxxxxxxhwwwwwwwwwwwwwwwww",
"jjjjjjjjjjmmmmmmmmmmmmmmmmmmbxxxxxxxxxxxxxxxxxhwwwwwwwwwwwwwwwww",
"jjjjjjjjjjmmmmmmmmmmmmmmmmmmbxxxxxxxxxxxxxxxxxhwwwwwwwwwwwwwwwww",
"jjjjjjjjjjmmmmmmmmmmmmmmmmmmnxxxxxxxxxxxxxxxxxhwwwwwwwwwwwwwwwww",
"jjjjjjjjjjmmmmmmmmmmmmmmmmmmvxxxxxxxxxxxxxxxxxhwwwwwwwwwwwwwwwww",
"jjjjjjjjjjmmmmmmmmmmmmmmmmmmcxxxxxxxxxxxxxxxxxgwwwwwwwwwwwwwwwww"
};
