/* XPM */
static char *result[] = {
/* columns rows colors chars-per-pixel */
"64 64 194 2 ",
"   c #547580",
".  c #557580",
"X  c #8D9C9F",
"o  c #9FAEB0",
"O  c #A5A5A4",
"+  c #A6A6A5",
"@  c gray65",
"#  c #A6A7A6",
"$  c #A7A7A6",
"%  c #A7A8A7",
"&  c #A8A8A7",
"*  c #A3A9A9",
"=  c #A3AAAA",
"-  c #A4ABAA",
";  c #A4ABAB",
":  c #A0ACAE",
">  c #A6ACAD",
",  c #A8A9A8",
"<  c #A9A9A8",
"1  c #A9AAA9",
"2  c #AAABA9",
"3  c #ABABAA",
"4  c #ACACAB",
"5  c #ACACAC",
"6  c #ACADAC",
"7  c #ADADAC",
"8  c #ACAEAD",
"9  c #AEAEAD",
"0  c #AEAFAD",
"q  c #ADAEAE",
"w  c #AEAFAF",
"e  c #AFB0AE",
"r  c #AFB0AF",
"t  c #A4B3B7",
"y  c #ADBABB",
"u  c #B1B2B0",
"i  c #B0B2B1",
"p  c #B2B2B1",
"a  c #B1B2B2",
"s  c #B1B3B2",
"d  c #B2B3B2",
"f  c gray70",
"g  c #B3B4B3",
"h  c #B4B5B3",
"j  c #B2B4B4",
"k  c #B8BAB7",
"l  c #B2B9BA",
"z  c #B1BABA",
"x  c #B5B8B8",
"c  c #B6B9B9",
"v  c #B7BABB",
"b  c #B3BBBC",
"n  c #B9B9B8",
"m  c #BABBB9",
"M  c #BABCBB",
"N  c #BBBCBB",
"B  c #BBBDBB",
"V  c #B9BCBD",
"C  c #BABDBE",
"Z  c #BBBEBF",
"A  c #BCBDBC",
"S  c #BEBFBD",
"D  c #BFC0BF",
"F  c #BFC1BF",
"G  c #BDC1C2",
"H  c #BDC2C3",
"J  c #BEC2C2",
"K  c #BEC3C4",
"L  c #BFC3C5",
"P  c #BDC3C7",
"I  c #BDC5C4",
"U  c #BFC4C5",
"Y  c #BFC4C6",
"T  c #BEC4C7",
"R  c #BFC4C7",
"E  c #BFC5C7",
"W  c #BEC4C8",
"Q  c #BFC4C8",
"!  c #BFC5C8",
"~  c #C0C1C0",
"^  c #C0C2C0",
"/  c #C1C3C1",
"(  c #C3C4C3",
")  c #C3C5C4",
"_  c #C5C6C5",
"`  c #C4C7C7",
"'  c #C6C8C5",
"]  c #C8CAC7",
"[  c #C0C5C8",
"{  c #C0C6C9",
"}  c #C1C6C9",
"|  c #C1C7C9",
" . c #C1C7CA",
".. c #C2C7CA",
"X. c #C1C9CB",
"o. c #C2C8CA",
"O. c #C3C8CA",
"+. c #C3C8CB",
"@. c #C3CACB",
"#. c #C7C9C8",
"$. c #C4C9CB",
"%. c #C5CACB",
"&. c #C5CACC",
"*. c #C7CBCC",
"=. c #C6CBCD",
"-. c #C7CBCD",
";. c #C7CCCC",
":. c #C5CDCE",
">. c #C7CECF",
",. c #C9CAC9",
"<. c #C9CBC9",
"1. c #C9CACA",
"2. c #CACCCA",
"3. c #CACDCA",
"4. c #CBCDCB",
"5. c #CBCECB",
"6. c #C9CDCD",
"7. c #CACDCC",
"8. c #CACECD",
"9. c #C8CCCE",
"0. c #C9CDCF",
"q. c #CACECE",
"w. c #CCCDCC",
"e. c #CCCDCD",
"r. c #CCCFCC",
"t. c #CDCECD",
"y. c #CCCFCE",
"u. c #CCD0CE",
"i. c #CCD0CF",
"p. c #CED0CE",
"a. c #CED1CF",
"s. c #CFD1CF",
"d. c #CACFD0",
"f. c #C9D0D1",
"g. c #CED2D0",
"h. c #CFD2D0",
"j. c #CFD3D0",
"k. c #CDD1D2",
"l. c #CFD2D2",
"z. c #CED2D4",
"x. c #CFD3D4",
"c. c #D0D1D1",
"v. c #D0D3D0",
"b. c #D0D3D1",
"n. c #D2D3D2",
"m. c #D0D4D1",
"M. c #D1D4D1",
"N. c #D1D4D2",
"B. c #D2D5D2",
"V. c #D3D5D3",
"C. c #D3D6D4",
"Z. c #D2D6D6",
"A. c #D3D6D7",
"S. c #D4D5D5",
"D. c #D4D7D4",
"F. c #D5D6D6",
"G. c #D6D8D6",
"H. c #D7D9D7",
"J. c #D5D8D9",
"K. c #D6D8D9",
"L. c #D9DBD9",
"P. c #D9DADA",
"I. c #D8DADB",
"U. c #D9DCDB",
"Y. c #DADBDC",
"T. c #D9DCDD",
"R. c #DBDCDC",
"E. c #DBDDDD",
"W. c #DCDDDD",
"Q. c #DCDEDD",
"!. c #DDDFDE",
"~. c #DEDEDF",
"^. c #DDDFE0",
"/. c #DDDFE1",
"(. c #DEE0E0",
"). c #DFE0E0",
"_. c #DEE1E1",
"`. c #DFE1E1",
"'. c #E0E1E1",
"]. c #E0E2E2",
"[. c #E1E2E2",
"{. c #E0E2E3",
"}. c #E1E3E4",
"|. c #E2E3E4",
" X c #E2E4E4",
".X c #E3E4E4",
"XX c #E2E4E5",
"oX c #E3E4E5",
"OX c #E4E5E6",
"+X c #E4E6E6",
"@X c #E5E6E7",
"#X c #E5E7E7",
"$X c #E6E7E8",
"%X c None",
/* pixels */
"%X.                                                                                                                         . %X",
".                                                                                                                             . ",
"                                                                                                                                ",
"                                                                                                                                ",
"        t f.f.f.f.>.I I I I I I I I I I I I I I I I I z * * * * * * * * z I I I I I I I I I I I I I I I I I - * * * * X         ",
"        f.$X$X$X$XOXM.M.M.M.M.M.M.M.M.M.M.M.M.M.M.M.M.2.O O O O O O O O 2.M.M.M.M.M.M.M.M.M.M.M.M.M.M.M.M.M.3 O O O O *         ",
"        f.$X$X$X$XOXM.M.M.M.M.M.M.M.M.M.M.M.M.M.M.M.M.2.O O O O O O O O 2.M.M.M.M.M.M.M.M.M.M.M.M.M.M.M.M.M.3 O O O O *         ",
"        f.$X$X$X$XOXM.M.M.M.M.M.M.M.M.M.M.M.M.M.M.M.M.2.O O O O O O O O 2.M.M.M.M.M.M.M.M.M.M.M.M.M.M.M.M.M.3 O O O O *         ",
"        f.$X$X$X$XOXM.M.M.M.M.M.M.M.b.M.M.M.M.M.M.M.M.<.O O O O O O O O <.M.M.M.M.M.M.M.M.b.M.M.M.M.M.M.M.M.< O O O O *         ",
"        f.$X$X$X$X$X!.M.M.M.M.M.M.u.! $.b.M.M.M.M.M.5.< O O O O O O O O < 5.M.M.M.M.M.b.$.! u.M.M.M.M.M.M.k O O O O O *         ",
"        f.$X$X$X$X$X$X XV.M.M.M.;.P P P { a.M.M.M.^ O O O O O O O O O O O O ^ M.M.M.a.{ P P P ;.M.M.M.p.6 O O O O O O *         ",
"        f.$X$X$X$X$X$X$X$XH.h...P P P P P T 6.v.g O O O O O O O O O O O O O O g v.6.T P P P P P ..h.' O O O O O O O O *         ",
"        f.$X$X$X$X$X$X$X$X$X-.P P P P P P P P s O O O O O O O O O O O O O O O O s P P P P P P P P L O O O O O O O O O *         ",
"        f.$X$X$X$X$X$X$X$X$X=.P P P P P P P P i O O O O O O O O O O O O O O O O i P P P P P P P P L O O O O O O O O O *         ",
"        f.$X$X$X$X$X$X$X$X$X=.P P P P P P P P i O O O O O O O O O O O O O O O O i P P P P P P P P L O O O O O O O O O *         ",
"        f.$X$X$X$X$X$X$X$X$X=.P P P P P P P P i O O O O O O O O O O O O O O O O i P P P P P P P P L O O O O O O O O O *         ",
"        f.n.$X$X$X$X$X$X$X@X+.P P P P P P P P c O O O O O O O d d O O O O O O O c P P P P P P P P R # O O O O O O O S *         ",
"        > O h '.$X$X$X$X_.o.P P P P P P P P P P Z O O O O O ( +X+X( O O O O O Z P P P P P P P P P P E 8 O O O O 5 W.$X@.        ",
"        * O O 2 S.$X$XJ.W P P P P P P P P P P P P Y 1 O $ S.$X$X$X$XS.$ O 1 Y P P P P P P P P P P P P T x O O N oX$X$Xf.        ",
"        * O O O + ) d.P P P P P P P P P P P P P P P Q M '.$X$X$X$X$X$X'.M Q P P P P P P P P P P P P P P P G t.$X$X$X$Xf.        ",
"        * O O O O 1 P P P P P P P P P P P P P P P P P 0.$X$X$X$X$X$X$X$X0.P P P P P P P P P P P P P P P P P XX$X$X$X$Xf.        ",
"        * O O O O 1 P P P P P P P P P P P P P P P P P 0.$X$X$X$X$X$X$X$X0.P P P P P P P P P P P P P P P P P XX$X$X$X$Xf.        ",
"        * O O O O 1 P P P P P P P P P P P P P P P P P 0.$X$X$X$X$X$X$X$X0.P P P P P P P P P P P P P P P P P XX$X$X$X$Xf.        ",
"        * O O O O 1 P P P P P P P P P P P P P P P P P 0.$X$X$X$X$X$X$X$X0.P P P P P P P P P P P P P P P P P XX$X$X$X$Xf.        ",
"        * O O O O @ Y P P P P P P P y.$.P P P P P P W K.$X$X$X$X$X$X$X$XK.W P P P P P P $.y.P P P P P P P &.@X$X$X$X$Xf.        ",
"        * O O O O O O Z P P P P | b.M.M.8.P P P P  .^.$X$X$X$X$X$X$X$X$X$X^. .P P P P 8.M.M.b.| P P P P z.$X$X$X$X$X$Xf.        ",
"        * O O O O O O O j Q P *.M.M.M.M.M.h.! P 9.OX$X$X$X$X$X$X$X$X$X$X$X$XOX9.P ! h.M.M.M.M.M.*.P [ T.$X$X$X$X$X$X$Xf.        ",
"        * O O O O O O O O 2 7.M.M.M.M.M.M.M.M.Z.$X$X$X$X$X$X$X$X$X$X$X$X$X$X$X$XZ.M.M.M.M.M.M.M.M.g.}.$X$X$X$X$X$X$X$Xf.        ",
"        * O O O O O O O O O r.M.M.M.M.M.M.M.M.).$X$X$X$X$X$X$X$X$X$X$X$X$X$X$X$X).M.M.M.M.M.M.M.M.C.$X$X$X$X$X$X$X$X$Xf.        ",
"        * O O O O O O O O O r.M.M.M.M.M.M.M.M.).$X$X$X$X$X$X$X$X$X$X$X$X$X$X$X$X).M.M.M.M.M.M.M.M.C.$X$X$X$X$X$X$X$X$Xf.        ",
"        * O O O O O O O O O r.M.M.M.M.M.M.M.M.).$X$X$X$X$X$X$X$X$X$X$X$X$X$X$X$X).M.M.M.M.M.M.M.M.C.$X$X$X$X$X$X$X$X$Xf.        ",
"        * O O O O O O O O O r.M.M.M.M.M.M.M.M.).$X$X$X$X$X$X$X$X$X$X$X$X$X$X$X$X).M.M.M.M.M.M.M.M.C.$X$X$X$X$X$X$X$X$Xf.        ",
"        l [.~ O O O O O O F M.M.M.M.M.M.M.M.M.B.|.$X$X$X$X$X|.n n |.$X$X$X$X$X|.B.M.M.M.M.M.M.M.M.M.U.$X$X$X$X$X$Xc.9 b         ",
"        f.$X$Xn.$ O O , 3.M.M.M.M.M.M.M.M.M.M.M.M.Q.$X$X$XP.7 O O 7 P.$X$X$XQ.M.M.M.M.M.M.M.M.M.M.M.M.D.OX$X$X@XD O O *         ",
"        f.$X$X$X(.r p v.M.M.M.M.M.M.M.M.M.M.M.M.M.M.G.$X1.$ O O O O $ 1.$XG.M.M.M.M.M.M.M.M.M.M.M.M.M.M.B.'.~.u O O O *         ",
"        f.$X$X$X$X|.M.M.M.M.M.M.M.M.M.M.M.M.M.M.M.M.M.4.O O O O O O O O 4.M.M.M.M.M.M.M.M.M.M.M.M.M.M.M.M.M.7 O O O O *         ",
"        f.$X$X$X$XOXM.M.M.M.M.M.M.M.M.M.M.M.M.M.M.M.M.2.O O O O O O O O 2.M.M.M.M.M.M.M.M.M.M.M.M.M.M.M.M.M.3 O O O O *         ",
"        f.$X$X$X$XOXM.M.M.M.M.M.M.M.M.M.M.M.M.M.M.M.M.2.O O O O O O O O 2.M.M.M.M.M.M.M.M.M.M.M.M.M.M.M.M.M.3 O O O O *         ",
"        f.$X$X$X$XOXM.M.M.M.M.M.M.M.M.M.M.M.M.M.M.M.M.2.O O O O O O O O 2.M.M.M.M.M.M.M.M.M.M.M.M.M.M.M.M.M.3 O O O O *         ",
"        f.$X$X$X$XOXM.M.M.M.M.M.M.M.h.M.M.M.M.M.M.M.M.] O O O O O O O O ] M.M.M.M.M.M.M.M.h.M.M.M.M.M.M.M.M.< O O O O *         ",
"        f.$X$X$X$X$X`.N.M.M.M.M.M.q.W O.j.M.M.M.M.M.] $ O O O O O O O O $ ] M.M.M.M.M.j.O.W q.M.M.M.M.M.v.g O O O O O *         ",
"        f.$X$X$X$X$X$XOXC.M.M.m.%.P P P ! i.M.M.M.B O O O O O O O O O O O O B M.M.M.i.! P P P %.m.M.M.5.< O O O O O O *         ",
"        f.$X$X$X$X$X$X$X$XL.g.} P P P P P P ;.s.e O O O O O O O O O O O O O O e s.;.P P P P P P } g./ O O O O O O O O *         ",
"        f.$X$X$X$X$X$X$X$X$X=.P P P P P P P P i O O O O O O O O O O O O O O O O i P P P P P P P P L O O O O O O O O O *         ",
"        f.$X$X$X$X$X$X$X$X$X=.P P P P P P P P i O O O O O O O O O O O O O O O O i P P P P P P P P L O O O O O O O O O *         ",
"        f.$X$X$X$X$X$X$X$X$X=.P P P P P P P P i O O O O O O O O O O O O O O O O i P P P P P P P P L O O O O O O O O O *         ",
"        f.$X$X$X$X$X$X$X$X$X=.P P P P P P P P i O O O O O O O O O O O O O O O O i P P P P P P P P L O O O O O O O O O *         ",
"        >.,.oX$X$X$X$X$X$XoX..P P P P P P P P V O O O O O O O m m O O O O O O O V P P P P P P P P E 1 O O O O O O & #.=         ",
"        ; O 0 Y.$X$X$X$XE.{ P P P P P P P P P P H $ O O O O e.#X#Xe.O O O O $ H P P P P P P P P P P Q a O O O O f ].$X:.        ",
"        * O O % w.$X$Xx.P P P P P P P P P P P P P E q O 4 R.$X$X$X$XR.4 O q E P P P P P P P P P P P P P C O O _ @X$X$Xf.        ",
"        * O O O O A =.P P P P P P P P P P P P P P P T J .X$X$X$X$X$X$X.XJ T P P P P P P P P P P P P P P P U F.$X$X$X$Xf.        ",
"        * O O O O 1 P P P P P P P P P P P P P P P P P 0.$X$X$X$X$X$X$X$X0.P P P P P P P P P P P P P P P P P XX$X$X$X$Xf.        ",
"        * O O O O 1 P P P P P P P P P P P P P P P P P 0.$X$X$X$X$X$X$X$X0.P P P P P P P P P P P P P P P P P XX$X$X$X$Xf.        ",
"        * O O O O 1 P P P P P P P P P P P P P P P P P 0.$X$X$X$X$X$X$X$X0.P P P P P P P P P P P P P P P P P XX$X$X$X$Xf.        ",
"        * O O O O 1 P P P P P P P P P P P P P P P P P 0.$X$X$X$X$X$X$X$X0.P P P P P P P P P P P P P P P P P XX$X$X$X$Xf.        ",
"        * O O O O + K P P P P P P T 6.o.P P P P P P ! I.$X$X$X$X$X$X$X$XI.! P P P P P P o.6.T P P P P P P 9.$X$X$X$X$Xf.        ",
"        * O O O O O O v T P P P { a.M.M.;.P P P P $.{.$X$X$X$X$X$X$X$X$X$X{.$.P P P P ;.M.M.a.{ P P P W A.$X$X$X$X$X$Xf.        ",
"        * O O O O O O O w E P %.b.M.M.M.M.i.! P k.$X$X$X$X$X$X$X$X$X$X$X$X$X$Xk.P ! i.M.M.M.M.b.%.P ../.$X$X$X$X$X$X$Xf.        ",
"        * O O O O O O O O $ ` M.M.M.M.M.M.M.v.I.$X$X$X$X$X$X$X$X$X$X$X$X$X$X$X$XI.v.M.M.M.M.M.M.M.l.OX$X$X$X$X$X$X$X$Xf.        ",
"        X * * * * * * * * * : o o o o o o o o X.f.f.f.f.f.f.f.f.f.f.f.f.f.f.f.f.X.o o o o o o o o y f.f.f.f.f.f.f.f.f.t         ",
"                                                                                                                                ",
"                                                                                                                                ",
".                                                                                                                             . ",
"%X.                                                                                                                         . %X"
};
