/* XPM */
static char *result[] = {
/* columns rows colors chars-per-pixel */
"64 64 49 1 ",
"  c #547580",
". c #71868D",
"X c #799199",
"o c #849295",
"O c #82969C",
"+ c #969E9F",
"@ c #8D9FA5",
"# c #969EA1",
"$ c #9A9FA0",
"% c #8EA1A6",
"& c #92A3A7",
"* c #9BA2A3",
"= c #93A3AA",
"- c #9CA6AA",
"; c #9CA9AD",
": c #9FAEB0",
"> c #A5A5A4",
", c #A0A7A8",
"< c #A2AAAC",
"1 c #A3ADB1",
"2 c #A6B2B6",
"3 c #ABB3B5",
"4 c #A7B3B8",
"5 c #ABB6BA",
"6 c #ACB9BD",
"7 c #B2BBBD",
"8 c #B5BDC2",
"9 c #B8BFC4",
"0 c #B7C1C3",
"q c #BDC3C7",
"w c #BDC6C9",
"e c #C0C7C7",
"r c #C1C8C7",
"t c #C1C7C9",
"y c #C4CACA",
"u c #CACECC",
"i c #CDD1CE",
"p c #C7CED1",
"a c #C9CFD2",
"s c #CDD3D4",
"d c #D1D4D1",
"f c #D2D7D9",
"g c #D7DBDD",
"h c #DADDDF",
"j c #DCDFE0",
"k c #DFE2E3",
"l c #E3E4E6",
"z c #E6E7E8",
"x c None",
/* pixels */
"x                                                              x",
"                                                                ",
"                                                                ",
"                                                                ",
"    .ooooooooooooooooo;;:::::::::::;:::%=====@:1:::::::::::O    ",
"    o>>>>>>>>>>>>>>>>>iddddddddddddddd7wqqqqqq8dddddddddddd:    ",
"    o>>>>>>>>>>>>>>>>>udddddddddddddd7qwqqqqqq8eddddddddddd:    ",
"    o>>>>>>>>>>>>>>>>>uddddddddddddd7qqqqqqqqqq7udddddddddd:    ",
"    o>>>>>>>>>>>>>>>>>iddsdidsdsddd7qqqqqqqqqqqq5dddddddddd:    ",
"    o>>>>>>>>>>>>>>>>>uiiuiiiiiyid7qqqqqqqqqqqqqq2ddddddddd:    ",
"    o>>>>>>>>>>>>>>>>5zzzzzzlzzzzs6qqqqqwqqqqqqqqq7dddddddd:    ",
"    o>>>>>>>>>>>>>>><zzzzzzzzzzzzzl5wqqqqqqqqqqqqq8yddddddd:    ",
"    o>>>>>>>>>>>>>>,zzzzzzzzzzzzzzzqqqqqqqqqqqqqqqq4ddddddd:    ",
"    o>>>>>>>>>>>>>,zzzzzzzzzzzzzzzzgqqqqqqqqqqqqqqqqrdddddd:    ",
"    o>>>>>>>>>>>>-zzzzzzzzzzzzzzzzziqqqqqqqqqqqqqqqq4sddddd:    ",
"    o>>>>>>>>>>>$lzzzzzzzzzzzzzzzzz6qqqqqqqqqqqqqqqq9iddddd:    ",
"    o>>>>>>>>>>>$zzzzzzzzzzzzzzzzzl8qqqqqqqqqqqqqqqqq7ddddd:    ",
"    o>>>>>>>>>>>,zzzzzzzzzzzzzzzzz9tqqqqqqeqqqqqqqqqq2ddddd:    ",
"    =1>>>>>>>>>,4zzzzzzzzzzzzzzzzf89qqqqqqqqqqqqqqqqq50q0q0;    ",
"    =qq<>>>>>>>>jzzzzzzzzzzzzzzj89qqqqqqqqqqqqqqqqqqw6zzzzz6    ",
"    =qqq8#,>>>,5jzzzzzzzzzzzzsqd879qqqqqqqqqqqqqqqqqqazzzzz6    ",
"    =qqqt99t9t9q8kzzzzzzzzlytddddu4qqqqqqqqqqqqqqqqq5zzzzzz6    ",
"    =qqq9tqqqqqq94jzzzzjyqidddddddd97qqqqqqqqqqqqqqqpzzzzzz6    ",
"    =qqqtqqqqqqq998qp9tsddddddddddddu7qqqqqqqqwqqqq5zzzzzzz6    ",
"    =qqqqqqqqqqqt98sddddddddddddddddde##$*-<260qw05lzzzzzzz6    ",
"    =qqqqqqqqqqq9t5sdddddddddddddddddd>>>>>>>>>>$$;zzzzzzzz6    ",
"    =qqqqqqqqqt99t5ddddddddddddddddddd$>>>>>>>>>>>*zzzzzzzz6    ",
"    =qqqqqqqqt9tt93ddddddddddddddddddu>>>>>>>>>>>>-hzzzzzzz6    ",
"    =qqqwqqqqqt9qq5dddddddddddddddddd7>>>>>>>>>>>>>yzzzzzzz6    ",
"    =qqqqqqqqq9t94ddddddddddddddddddd*>>>>>>>>>>>>>7zzzzzzz6    ",
"    =qqqqqqtqqq9<>9dddddddddddddddddu$>>>>>>>>>>>>><zzzzzzz6    ",
"    =qqqqqqqqq9->>>pdddddddddddddddd$>>>>>>>>>>>>>>*zzzzzzz6    ",
"    =9qqqqqq8:>>>>><ddddddddddddddd3>>>>>>>>>>>>>>>>zzzzzzz8    ",
"    o->>>,*>>>>>>>>>6dddddddddddddy*>>>>>>>>>>>>>>>>tzzzzzl6    ",
"    o>>>>>>>>>>>>>>>,ddddddddddddd*>>>>>>>>>>>>>>>>>$lzzzzz8    ",
"    o>>>>>>>>>>>>>>>>ddddddddddid*>>>>>>>>>>>>>>>>>>>,zzzzz5    ",
"    o>>>>>>>>>>>>>>>>ddddddittwq7+>>>>>>>>>>>>>>>>>>>>9pkzz6    ",
"    o>>>>>>>>>>>>>>>>etpsglzzzzzzh*>>>>>>>>>>>>>>>>>>$ddsyq;    ",
"    o>>>>>>>>>>>>>>><zzzzzzzzzzzzzh*>>>>>>>>>>>>>>>>>yddids;    ",
"    o>>>>>>>>>>>>>>>6zzzzzzzzzzzzzzd>>>>>>>>>>>>>>>>-sdddds:    ",
"    o>>>>>>>>>>>>>>3zzzzzzzzzzzzzzzz$>>>>>>>>>>>>>>>ydddddd:    ",
"    o>>>>>>>>>>>>>7zzzzzzzzzzzzzzzzz*>>>>>>>>>>>>>>*ddddddd:    ",
"    o>>>>>>>>>>><dzzzzzzzzzzzzzzzzzz8-+>>>>>>>>>>>>rddddddd:    ",
"    o>>>>>>>>>>2lzzzzzzzzzzzzzzzzzzz99e1#>>>>>>>>><dddddddd:    ",
"    o>>>>>>>>$18kzzzzzzzzzzzzzzzzzzz9qqqq5#$>>>>>*ddddddddd:    ",
"    o>>>>>>>+8qq8kzzzzzzzzzzzzzzzzzaqqqq9tqq931134udddddddd:    ",
"    o>>>>>>-qqqqw8zzzzzzzzzzzzzzzzz8qqqqt9tq9t9tqq6yidddddd:    ",
"    O-*-*1qqqqqqqwyzzzzzzzzzzzzzzzsqqqqq9t9tt9t9qqq6udddddd:    ",
"    =t99t99tqqqqqq4fzzzzzzzzzzzzzz9qqqt9qqqtqqqqwqqq5yddddd:    ",
"    =9tt9tt9qqqqqq$><qlzzzzzzzzzzq9qqt9tqqqqqqqqqqqqq7ydddd;    ",
"    =wqqtt9tqqqqq1>>>>>2qpappapq59qqqqt9qqqqqqqqqqqqqq81790*    ",
"    #qqq9tt9qqqq9$>>>>>>>>>>>>>>>;qqqq9tqqqqqqqqqqqqqw2>>>>o    ",
"    @tqqqqqqqqqq:>>>>>>>>>>>>>>>>,99qqqqqqqqqqqqqqqqq9>>>>>o    ",
"    =9qqqqqqqqqq*>>>>>>>>>>>>>>>>>;tqqqqqqqqqqqqqqqqq->>>>>o    ",
"    =9tqqqqqqtqq*>>>>>>>>>>>>>>>>>,9qqqqqqqqqqqqqqqq5>>>>>>o    ",
"    =t9tqqqqq9tq,>>>>>>>>>>>>>>>>>>39qqqqqqqqqwqqqwq->>>>>>o    ",
"    =qqqqqqqqqqq8*>>>>>>>>>>>>>>>>7dq8qqqqqqqqqqqqw<>>>>>>>o    ",
"    =qqqqqqqqqqqq1>>>>>>>>>>>>>>>1dddy4qqqqqqqqqqq8>>>>>>>>o    ",
"    =qqqqqqqqqqqqq1>>>>>>>>>>>>>,sddddd4qqqqqqqqqq,>>>>>>>>o    ",
"    X==============Ooooooooooooo#:::::;1@========@ooooooooo.    ",
"                                                                ",
"                                                                ",
"                                                                ",
"x                                                              x"
};
