/* XPM */
static char *result[] = {
/* columns rows colors chars-per-pixel */
"64 64 51 1 ",
"  c #547580",
". c #7A8B90",
"X c #8C9696",
"o c #83969C",
"O c #8F9799",
"+ c #8E999A",
"@ c #929C9D",
"# c #8A9CA0",
"$ c #929EA1",
"% c #95A1A4",
"& c #9EA2A2",
"* c #9BA7A9",
"= c #9DA9AE",
"- c #A5A5A4",
"; c #A6A8A7",
": c #A3A7A8",
"> c #A5AAAB",
", c #A9ACAC",
"< c #ACB0AF",
"1 c #A6AEB1",
"2 c #A8AFB2",
"3 c #A6B1B2",
"4 c #AAB3B4",
"5 c #AEB6B9",
"6 c #B1B5B4",
"7 c #B3B8B6",
"8 c #B1B7B9",
"9 c #B4BABC",
"0 c #B9BDBC",
"q c #BCC0BE",
"w c #B6BEC1",
"e c #B8BFC2",
"r c #BDC3C7",
"t c #BEC4C8",
"y c #C1C6C4",
"u c #C4C9C6",
"i c #C2C7C9",
"p c #C5CACA",
"a c #C9CDCB",
"s c #CED1CE",
"d c #CBCFD0",
"f c #CDD1D2",
"g c #D1D4D1",
"h c #D4D7D8",
"j c #D5D8D9",
"k c #D9DCDD",
"l c #DDDFE0",
"z c #DEE0E1",
"x c #E3E4E5",
"c c #E6E7E8",
"v c None",
/* pixels */
"v                                                              v",
"                                                                ",
"                                                                ",
"                                                                ",
"    o========*43444442eewwwr9rrqr===*====@OOOOOOOOOOO$=====o    ",
"    =rrrrrrrtegggggggaccccccczcczhrrrrrrr-------------ttrtt=    ",
"    =rrtrrrrrrrggggggzccccccccccccrrrrrre-------------eetet=    ",
"    =trrrrrrrrrggggggxccccccccccccrrrrrr8-------------ttttt=    ",
"    =rrrrrrrrrrggggggxccccccccccccrttrrr9-------------rrttt=    ",
"    =rrrrrrrtragggggghccccccccccczrtrrrtr&------------rrtet=    ",
"    =trrrrrrr8gggggggpccccccccccctrrrrrtr&-----;-----:rrtte=    ",
"    %>-;;:5rrygggggggsjch8;;-6sczrrrtrrrrr&--:4w4-&-&rrrttt=    ",
"    O------:%ugggggggd:8-------6=rrrrrttrw+*rrrrrrr&@rrrrrr=    ",
"    O-------&rqsgggsre>---------5zrrrrttrz9trrrtrrrryu8rrrr=    ",
"    O---;---rrrreeerrrt--------,xccxfpfzxcc9rtrrrrregggarqr3    ",
"    O------>rrrrrirrrrt8-------ucccccccccccirrrrrrrpggggggf4    ",
"    +;-----5etrrrttrrrre-------jcccccccccccltettrrrgggggggg4    ",
"    +;-----wrtrrrrttrrtt&------cccccccccccccetterregggggggs4    ",
"    O------wrttrrrrtrrtt-------lccccccccccclttttrrrgggggggg4    ",
"    O------2tettrrtertew-------acccccccccccdetttrrrsggggggg4    ",
"    O------:ttttrrrrrer>-------7cccccccccccwttterrrrsggggsg4    ",
"    O-------1ew>---:wew---------pch6,-,6hxpetertrrrragr0rrr*    ",
"    O-------O:-------:X&--------O6-------8$wttttrrr9$9rrrrr=    ",
"    $-----:ew---------2f0-----6s8---------ecpertrrpcqrrrrrr=    ",
"    =tw8weitt2-------,sgggsyagggg6-------6cccckgzccczrrtrrr=    ",
"    =teteeiete-------7gggggsgggggq------;acccccccccccprrrrr=    ",
"    =ttiettett>------ygggggggggggs------;xccccccccccchrrrtr=    ",
"    =teeittttt>------sgggggggggggg;-----;ccccccccccccxrrrrr=    ",
"    =reiettett>------igggggggggggg-------xccccccccccckrrrrt=    ",
"    =rttttttet-------egggggggggggu------;fcccccccccccprrrrr=    ",
"    =teeeettt5-------,gggggsggggg6-------0cccccxcccccrrrrrr=    ",
"    $>;->>2ee,--------8gy,---;qgq---------acs<;;;4fcirtrrtr=    ",
"    O-------O,-------:O,-------,O---------O5-------6@qttttt1    ",
"    O-------9cd,---;rcp--------;,y2:----2t>---------ys0erte:    ",
"    O------,xcccxjzcccc,-------:tttiewetrrr&-------8ggggppa<    ",
"    O-----;qcccccccccccg-------5ettettetrrr2-------pggggggg<    ",
"    O------fcccccccccccc-------9tteiteierrte------,gggggggf4    ",
"    O------zcccccccccccc-------retteeieirrrr&-----;gggggggg4    ",
"    O------fcccccccccccc&------9iettttierrre------,gggggggh4    ",
"    O------rcccccccccccg-------5ttttetttrtr2-------aggggggf2    ",
"    O------,ccxccgzcccc,-------;teeet8ttttt&-------8ghgfpya2    ",
"    O-------wct-----6xa---------we2=---&;t>---------ua;----O    ",
"    O-----:1O:-------&O,-------<O&-------$X&-------:O&-----O    ",
"    $;----2ee---------ycf<::-,pcd---------5t5----;8t,------O    ",
"    >eieeitti2-------6ccccczccccce-------,ttttrerrrti:-----O    ",
"    >eieeiteei;------ycccccccccccf-------8etetrtrrrre2-----O    ",
"    1eteieteie;------hcccccccccccc-------ettttettrrtiw-----O    ",
"    =ieiettiei;------xcccccccccccc,------tttttttrrrrei-----O    ",
"    =eetttrrrt>------gcccccccccccx-------rrrrrrrrettt9-----O    ",
"    1ettterrre-------ucccccccccccg-------8rrrrrrrtttr4-----O    ",
"    =ewweettr5-------<ccccxhzcccc7-------:rrrrq8etetr------O    ",
"    $---::1ee---------7cstrrttpxu--------;2r4;----5t>------O    ",
"    #:------O--------&orrrrrrrrr@-;------&O--------;@-;----O    ",
"    O-------ege&&-&&<garrrrrtrrrug6---&&6gq---------aa,----O    ",
"    O------,ggsggsgggggqrrrrrrtqgggggsggggf:-------9ggggfgg4    ",
"    O------0gggggggggggsrrrrrrrugggggggggggy-------dggggggg4    ",
"    O------asggggggggggg9rrrrrrggggggggggggg------;gggggggg4    ",
"    O------dgggggggggggg9rrrrrrggggggggggggg&-----,gggggggg4    ",
"    O-;----pgggggggfggggqrrrrrrsgggsgfgggggs------>fgggggfg4    ",
"    .OOOOOO-252244433443=======344444444444>+++++++34444444+    ",
"                                                                ",
"                                                                ",
"                                                                ",
"v                                                              v"
};
