/* XPM */
static char *result[] = {
/* columns rows colors chars-per-pixel */
"64 64 207 2 ",
"   c #1F3399",
".  c #203499",
"X  c #21359A",
"o  c #20359D",
"O  c #2036A2",
"+  c #2136A2",
"@  c #2137A3",
"#  c #2137A6",
"$  c #2237A6",
"%  c #243CB4",
"&  c #243CB5",
"*  c #243DB5",
"=  c #253DB5",
"-  c #243CB6",
";  c #253DB6",
":  c #263FBD",
">  c #3547A3",
",  c #3548A4",
"<  c #2640BF",
"1  c #2740BF",
"2  c #495AAB",
"3  c #4A5CAC",
"4  c #5162B0",
"5  c #5465B1",
"6  c #2943CB",
"7  c #2944CC",
"8  c #2A45CC",
"9  c #2B45CC",
"0  c #2A44CD",
"q  c #2947CD",
"w  c #2C46CD",
"e  c #314BCD",
"r  c #324CCD",
"t  c #334DCE",
"y  c #344DCE",
"u  c #354ECE",
"i  c #354FCE",
"p  c #3650CF",
"a  c #2A4BD0",
"s  c #2A4AD1",
"d  c #2A4BD1",
"f  c #2B4ED3",
"g  c #2B59DA",
"h  c #2C59DA",
"j  c #2C5ADA",
"k  c #2C5FDE",
"l  c #3C55D0",
"z  c #3D56D0",
"x  c #3D57D1",
"c  c #3F58D0",
"v  c #2C60DE",
"b  c #2D60DF",
"n  c #2C61DF",
"m  c #2E6BE6",
"M  c #306CE6",
"N  c #306DE6",
"B  c #3671E7",
"V  c #3771E7",
"C  c #3972E6",
"Z  c #3872E7",
"A  c #3A73E6",
"S  c #3C74E7",
"D  c #3D74E7",
"F  c #3E75E7",
"G  c #4159D0",
"H  c #4158D1",
"J  c #4259D1",
"K  c #435BD1",
"L  c #5569CA",
"P  c #556ACB",
"I  c #566AD5",
"U  c #556CD5",
"Y  c #586BD5",
"T  c #5A6DD6",
"R  c #596FD6",
"E  c #5B72D7",
"W  c #5F70D6",
"Q  c #6273D7",
"!  c #4279E7",
"~  c #4379E8",
"^  c #447AE8",
"/  c #457AE8",
"(  c #467BE8",
")  c #477BE8",
"_  c #487DE8",
"`  c #4A7EE8",
"'  c #7C8CC3",
"]  c #7E8EC4",
"[  c #7F8EC4",
"{  c #6C82D9",
"}  c #6E83DA",
"|  c #7287DB",
" . c #7387DB",
".. c #7488DB",
"X. c #7B8EDC",
"o. c #7E91DD",
"O. c #7F91DD",
"+. c #5E84E4",
"@. c #5F85E4",
"#. c #5F8CEA",
"$. c #628DE9",
"%. c #668FEA",
"&. c #7A9DEB",
"*. c #7C9EEB",
"=. c #8D9CCA",
"-. c #8E9DCB",
";. c #8F9DCB",
":. c #8F9ECC",
">. c #8194DE",
",. c #879ADF",
"<. c #889ADF",
"1. c #899BDF",
"2. c #8F98DF",
"3. c #96A4CE",
"4. c #9BA9D1",
"5. c #A2B0D4",
"6. c #A3B1D4",
"7. c #A4B2D4",
"8. c #A5B3D5",
"9. c #AAB7D7",
"0. c #B0BCDA",
"q. c #9099E0",
"w. c #929BE0",
"e. c #8EA0E0",
"r. c #80A1EC",
"t. c #81A2EC",
"y. c #82A2EC",
"u. c #89A7ED",
"i. c #8AA8ED",
"p. c #8BA9ED",
"a. c #8CA9EC",
"s. c #95A5E2",
"d. c #94A6E2",
"f. c #96A6E2",
"g. c #9FAFE4",
"h. c #90ABED",
"j. c #94AFED",
"k. c #9FB0E4",
"l. c #96B0ED",
"z. c #97B0EE",
"x. c #9DB5EE",
"c. c #A1A7E3",
"v. c #A3A8E3",
"b. c #A9AEE5",
"n. c #A0B1E4",
"m. c #AEB3E6",
"M. c #ABBAE6",
"N. c #ACBBE6",
"B. c #ADBCE6",
"V. c #ADBDE7",
"C. c #AEBDE7",
"Z. c #A6BAEE",
"A. c #A8BBEE",
"S. c #A9BCEE",
"D. c #B0BEE7",
"F. c #B9BAE7",
"G. c #B9BBE7",
"H. c #B1BFE8",
"J. c #BBBDE8",
"K. c #B7C4DD",
"L. c #B8C4DD",
"P. c #AEC0EF",
"I. c #AFC0EF",
"U. c #AFC1EF",
"Y. c #BEC0E9",
"T. c #B0C1F0",
"R. c #C4C5EA",
"E. c #CDCCEB",
"W. c #CECCEB",
"Q. c #CFCDEC",
"!. c #C3D0EA",
"~. c #C4D1EB",
"^. c #D3DEE9",
"/. c #D4DFEA",
"(. c #D4DFEE",
"). c #C2CCF1",
"_. c #C2CDF1",
"`. c #C3CEF1",
"'. c #C4CEF1",
"]. c #D8DBF2",
"[. c #D6E0EB",
"{. c #D6E1EF",
"}. c #DFEAEE",
"|. c #DAE5F0",
" X c #DBE5F0",
".X c #DAE6F0",
"XX c #DFEAF0",
"oX c #DFEAF1",
"OX c #ECE5F1",
"+X c #EDE6F2",
"@X c #EDE7F2",
"#X c #EBE7F4",
"$X c #E0EAF0",
"%X c #E3EEF1",
"&X c #E4EEF1",
"*X c #E4EFF2",
"=X c #EBE8F4",
"-X c #EDE9F4",
";X c #F7EEF3",
":X c #F2EDF4",
">X c #F3EDF5",
",X c #F8EFF3",
"<X c #E6F0F2",
"1X c #F8F0F4",
"2X c #FDF3F5",
"3X c #FEF4F5",
"4X c #FFF5F5",
/* pixels */
"7 7 7 7 7 7 7 7 7 7 7 7 7 7 7 7 7 7 7 7 7 7 7 7 7 7 7 7 7 7 7 7                                                                 ",
"7 7 7 7 7 7 7 7 7 7 7 7 7 7 7 7 7 7 7 7 7 7 7 7 7 7 7 7 7 7 7 7                                                                 ",
"7 7 7 7 7 7 7 7 7 7 7 7 7 7 7 7 7 7 7 7 7 7 7 7 7 7 7 7 7 7 7 7                                                                 ",
"7 7 7 q f f f f f f f f f f f f f f f f f f f f f f f f f f f f $ $ $ $ $ $ $ $ $ $ $ $ $ $ $ $ $ $ $ $ $ $ $ $ $ $ $ $ o       ",
"7 7 7 f m m m m m m m m m m m m m m m m m m m m m m m m m m m m 7 7 7 7 7 7 7 7 7 7 7 7 7 7 7 7 7 7 7 7 7 7 7 7 7 7 7 7 #       ",
"7 7 7 f m m m m m m m m m m m m m m m m m m m m m m m m m m m m 7 7 7 7 7 7 7 7 7 7 7 7 7 7 7 7 7 7 7 7 7 7 7 7 7 7 7 7 #       ",
"7 7 7 f m m m m m m m m m m m m m m m m m m m m m m m m m m m m 7 7 7 7 7 7 7 7 7 7 7 7 7 7 7 7 7 7 7 7 7 7 7 7 7 7 7 7 #       ",
"7 7 7 f m m m #.h.h.h.h.h.h.h.h.h.h.h.h.h.h.h.h.h.h.h.h.h.h.A m 7 u >.>.>.>.>.>.>.>.>.>.>.>.>.>.>.>.>.>.>.>.>.>.U 7 7 7 #       ",
"7 7 7 f m m m z.4X4X4X4X4X4X4X4X4X4X4X4X4X4X4X4X4X4X4X4X4X4X_ m 7 G <X<X<X<X<X<X<X<X<X<X<X<X<X<X<X<X<X<X<X<X<X<X,.7 7 7 #       ",
"7 7 7 f m m m z.4X4X4X4X4X4X4X4X4X4X4X4X4X4X4X4X4X4X4X4X4X4X_ m 7 G <X<X<X<X<X<X<X<X<X<X<X<X<X<X<X<X<X<X<X<X<X<X,.7 7 7 #       ",
"7 7 7 f m m m z.4X4X4X4X4X4X4X4X4X4X4X4X4X4X4X4X4X4X4X4X4X4X_ m 7 G <X<X<X<X<X<X<X<X<X<X<X<X<X<X<X<X<X<X<X<X<X<X,.7 7 7 #       ",
"7 7 7 f m m m z.4X4X4Xa.%.%.%.%.%.%.%.%.@.Q Q Q Q Q R.4X4X4X_ m 7 G <X<X<X0.5 5 5 5 5 P E E E E E E E E O.<X<X<X,.7 7 7 #       ",
"7 7 7 f m m m z.4X4X4X$.m m m m m m m m n 7 7 7 7 7 m.4X4X4X_ m 7 G <X<X<X4.          1 7 7 7 7 7 7 7 7 R <X<X<X,.7 7 7 #       ",
"7 7 7 f m m m z.4X4X4X$.m m m m m m m m n 7 7 7 7 7 m.4X4X4X_ m 7 G <X<X<X4.          1 7 7 7 7 7 7 7 7 R <X<X<X,.7 7 7 #       ",
"7 7 7 f m m m z.4X4X4X$.m m m m m m m m n 7 7 7 7 7 m.4X4X4X_ m 7 G <X<X<X4.          1 7 7 7 7 7 7 7 7 R <X<X<X,.7 7 7 #       ",
"7 7 7 f m m m z.4X4X4X$.m m m m m m m m k 7 7 7 7 7 F.4X4X4X~ m 7 l <X<X<X7.          : 7 7 7 7 7 7 7 7 R <X<X<X,.7 7 7 #       ",
"7 7 7 f m m m z.4X4X4X$.m m m m m m m m h 7 7 7 7 7 Q.4X4X4XB m 7 r <X<X<XL.          % 7 7 7 7 7 7 7 7 R <X<X<X,.7 7 7 #       ",
"7 7 7 f m m m z.4X4X4X$.m m m m m m m m s 7 7 7 7 9 +X4X4X#Xm m 7 7 {.<X<X/..         O 6 7 7 7 7 7 7 7 R <X<X<X,.7 7 7 #       ",
"7 7 7 f m m m z.4X4X4X$.m m m m m m m h 7 7 7 7 7 T 4X4X4X).m m 7 7 D.<X<X<X3           ; 7 7 7 7 7 7 7 R <X<X<X,.7 7 7 #       ",
"7 7 7 f m m m z.4X4X4X$.m m m m m m h 0 7 7 7 7 7 v.4X4X4Xu.m m 7 7 o.<X<X<X;.            = 6 7 7 7 7 7 R <X<X<X,.7 7 7 #       ",
"7 7 7 f m m m z.4X4X4X+.b b b k h s 7 7 7 7 7 7 J ,X4X4X2X! m m 7 7 z %X<X<X}.,             + * : < < < L <X<X<X,.7 7 7 #       ",
"7 7 7 f m m m z.4X4X4XW 7 7 7 7 7 7 7 7 7 7 7 8 J.4X4X4XP.m m m 7 7 7 k.<X<X<X7..                       4 <X<X<X,.7 7 7 #       ",
"7 7 7 f m m m z.4X4X4XW 7 7 7 7 7 7 7 7 7 7 7 w.4X4X4X1X( m m m 7 7 7 z oX<X<X<X]                       4 <X<X<X,.7 7 7 #       ",
"7 7 7 f m m m z.4X4X4XW 7 7 7 7 7 7 7 7 7 8 w.3X4X4X4Xj.m m m m 7 7 7 7 ,.<X<X<X&X[ .                   4 <X<X<X,.7 7 7 #       ",
"7 7 7 f m m m z.4X4X4XW 7 7 7 7 7 7 7 7 J J.4X4X4X4X`.N m m m m 7 7 7 7 9 B.<X<X<X<X8.,                 4 <X<X<X,.7 7 7 #       ",
"7 7 7 f m m m z.4X4X4XW 7 7 7 7 7 9 Y v.,X4X4X4X4X].C m m m m m 7 7 7 7 7 t !.<X<X<X<X}.:.3 X           4 <X<X<X,.7 7 7 #       ",
"7 7 7 f m m m z.4X4X4XY.b.b.b.F.W.@X4X4X4X4X4X4X_.A m m m F y.S.f...p 7 7 7 r M.<X<X<X<X<X<X[.L.7.3.3.3.9.<X<X<X,.7 7 7 #       ",
"7 7 7 f m m m z.4X4X4X4X4X4X4X4X4X4X4X4X4X4X1Xj.M m m m *.>X4X4X<X<X.X} 7 7 7 9 <.XX<X<X<X<X<X<X<X<X<X<X<X<X<X<X,.7 7 7 #       ",
"7 7 7 f m m m z.4X4X4X4X4X4X4X4X4X4X4X4X2XI./ m m m m *.4X4X4X4X<X<X<X<X} 7 7 7 7 x g.%X<X<X<X<X<X<X<X<X<X<X<X<X,.7 7 7 #       ",
"7 7 7 f m m m z.4X4X4X4X4X4X4X4X4X=X).u.! m m m m m F >X4X4X4X4X<X<X<X<X Xp 7 7 7 7 7 l X.C.(.<X<X<X<X<X<X<X<X<X,.7 7 7 #       ",
"7 7 7 f m m m S ` ` ` ` ` ` ` ~ V m m m m m m m m m y.4X4X4X4X4X<X<X<X<X<X .7 7 7 7 7 7 7 7 7 e l K K K K K K K i 7 7 7 #       ",
"7 7 7 f m m m m m m m m m m m m m m m m m m m m m m Z.4X4X4X4X4X<X<X<X<X<Xf.7 7 7 7 7 7 7 7 7 7 7 7 7 7 7 7 7 7 7 7 7 7 #       ",
"7 7 7 f m m m m m m m m m m m m m m m m m m m m m m Z.4X4X4X4X4X<X<X<X<X<Xd.7 7 7 7 7 7 7 7 7 7 7 7 7 7 7 7 7 7 7 7 7 7 #       ",
"7 7 7 f m m m S ` ` ` ` ` ` ` ^ Z m m m m m m m m m t.4X4X4X4X4X<X<X<X<X<X| 7 7 7 7 7 7 7 7 7 r z K K K K K K K i 7 7 7 #       ",
"7 7 7 f m m m z.4X4X4X4X4X4X4X4X4X-X`.p.^ m m m m m D >X4X4X4X4X<X<X<X<X|.i 7 7 7 7 7 x O.D.{.<X<X<X<X<X<X<X<X<X,.7 7 7 #       ",
"7 7 7 f m m m z.4X4X4X4X4X4X4X4X4X4X4X4X2XT.( m m m m &.4X4X4X4X<X<X<X<X{ 7 7 7 7 c k.*X<X<X<X<X<X<X<X<X<X<X<X<X,.7 7 7 #       ",
"7 7 7 f m m m z.4X4X4X4X4X4X4X4X4X4X4X4X4X4X1Xz.M m m m &.:X4X4X<X<X|.{ 7 7 7 w 1.$X<X<X<X<X<X<X<X<X<X<X<X<X<X<X,.7 7 7 #       ",
"7 7 7 f m m m z.4X4X4XY.b.b.b.F.E.OX4X4X4X4X4X4X`.A m m m S r.A.s. .i 7 7 7 r N.<X<X<X<X<X<X^.L.7.3.3.3.9.<X<X<X,.7 7 7 #       ",
"7 7 7 f m m m z.4X4X4XW 7 7 7 7 7 8 I c.;X4X4X4X4X].C m m m m m 7 7 7 7 7 y ~.<X<X<X<X}.-.2 .           4 <X<X<X,.7 7 7 #       ",
"7 7 7 f m m m z.4X4X4XW 7 7 7 7 7 7 7 7 H F.4X4X4X4X'.N m m m m 7 7 7 7 9 V.<X<X<X<X5.>                 4 <X<X<X,.7 7 7 #       ",
"7 7 7 f m m m z.4X4X4XW 7 7 7 7 7 7 7 7 7 8 2.3X4X4X4Xl.m m m m 7 7 7 7 1.<X<X<X&X' .                   4 <X<X<X,.7 7 7 #       ",
"7 7 7 f m m m z.4X4X4XW 7 7 7 7 7 7 7 7 7 7 7 q.4X4X4X1X) m m m 7 7 7 x XX<X<X<X'                       4 <X<X<X,.7 7 7 #       ",
"7 7 7 f m m m z.4X4X4XW 7 7 7 7 7 7 7 7 7 7 7 8 G.4X4X4XU.m m m 7 7 7 n.<X<X<X6..                       4 <X<X<X,.7 7 7 #       ",
"7 7 7 f m m m z.4X4X4X+.b b b v h a 7 7 7 7 7 7 H ;X4X4X2X~ m m 7 7 z %X<X<X}.>             @ & : < < < L <X<X<X,.7 7 7 #       ",
"7 7 7 f m m m z.4X4X4X$.m m m m m m j 0 7 7 7 7 7 c.4X4X4Xi.m m 7 7 O.<X<X<X=.            - 6 7 7 7 7 7 R <X<X<X,.7 7 7 #       ",
"7 7 7 f m m m z.4X4X4X$.m m m m m m m g 7 7 7 7 7 Y 4X4X4X).m m 7 7 H.<X<X<X2           - 7 7 7 7 7 7 7 R <X<X<X,.7 7 7 #       ",
"7 7 7 f m m m z.4X4X4X$.m m m m m m m m d 7 7 7 7 9 +X4X4X#Xm m 7 7 {.<X<X^..         @ 6 7 7 7 7 7 7 7 R <X<X<X,.7 7 7 #       ",
"7 7 7 f m m m z.4X4X4X$.m m m m m m m m h 7 7 7 7 7 W.4X4X4XV m 7 r <X<X<XK.          % 7 7 7 7 7 7 7 7 R <X<X<X,.7 7 7 #       ",
"7 7 7 f m m m z.4X4X4X$.m m m m m m m m k 7 7 7 7 7 F.4X4X4X~ m 7 z <X<X<X6.          : 7 7 7 7 7 7 7 7 R <X<X<X,.7 7 7 #       ",
"7 7 7 f m m m z.4X4X4X$.m m m m m m m m n 7 7 7 7 7 m.4X4X4X_ m 7 G <X<X<X4.          1 7 7 7 7 7 7 7 7 R <X<X<X,.7 7 7 #       ",
"7 7 7 f m m m z.4X4X4X$.m m m m m m m m n 7 7 7 7 7 m.4X4X4X_ m 7 G <X<X<X4.          1 7 7 7 7 7 7 7 7 R <X<X<X,.7 7 7 #       ",
"7 7 7 f m m m z.4X4X4X$.m m m m m m m m n 7 7 7 7 7 m.4X4X4X_ m 7 G <X<X<X4.          1 7 7 7 7 7 7 7 7 R <X<X<X,.7 7 7 #       ",
"7 7 7 f m m m z.4X4X4Xa.%.%.%.%.%.%.%.%.@.Q Q Q Q Q R.4X4X4X_ m 7 G <X<X<X0.5 5 5 5 5 P E E E E E E E E O.<X<X<X,.7 7 7 #       ",
"7 7 7 f m m m z.4X4X4X4X4X4X4X4X4X4X4X4X4X4X4X4X4X4X4X4X4X4X_ m 7 G <X<X<X<X<X<X<X<X<X<X<X<X<X<X<X<X<X<X<X<X<X<X,.7 7 7 #       ",
"7 7 7 f m m m z.4X4X4X4X4X4X4X4X4X4X4X4X4X4X4X4X4X4X4X4X4X4X_ m 7 G <X<X<X<X<X<X<X<X<X<X<X<X<X<X<X<X<X<X<X<X<X<X,.7 7 7 #       ",
"7 7 7 f m m m z.4X4X4X4X4X4X4X4X4X4X4X4X4X4X4X4X4X4X4X4X4X4X_ m 7 G <X<X<X<X<X<X<X<X<X<X<X<X<X<X<X<X<X<X<X<X<X<X,.7 7 7 #       ",
"7 7 7 f m m m %.x.x.x.x.x.x.x.x.x.x.x.x.x.x.x.x.x.x.x.x.x.x.S m 7 i e.e.e.e.e.e.e.e.e.e.e.e.e.e.e.e.e.e.e.e.e.e.E 7 7 7 #       ",
"7 7 7 f m m m m m m m m m m m m m m m m m m m m m m m m m m m m 7 7 7 7 7 7 7 7 7 7 7 7 7 7 7 7 7 7 7 7 7 7 7 7 7 7 7 7 #       ",
"7 7 7 f m m m m m m m m m m m m m m m m m m m m m m m m m m m m 7 7 7 7 7 7 7 7 7 7 7 7 7 7 7 7 7 7 7 7 7 7 7 7 7 7 7 7 #       ",
"7 7 7 f m m m m m m m m m m m m m m m m m m m m m m m m m m m m 7 7 7 7 7 7 7 7 7 7 7 7 7 7 7 7 7 7 7 7 7 7 7 7 7 7 7 7 #       ",
"7 7 7 q f f f f f f f f f f f f f f f f f f f f f f f f f f f f $ $ $ $ $ $ $ $ $ $ $ $ $ $ $ $ $ $ $ $ $ $ $ $ $ $ $ $ o       ",
"7 7 7 7 7 7 7 7 7 7 7 7 7 7 7 7 7 7 7 7 7 7 7 7 7 7 7 7 7 7 7 7                                                                 ",
"7 7 7 7 7 7 7 7 7 7 7 7 7 7 7 7 7 7 7 7 7 7 7 7 7 7 7 7 7 7 7 7                                                                 ",
"7 7 7 7 7 7 7 7 7 7 7 7 7 7 7 7 7 7 7 7 7 7 7 7 7 7 7 7 7 7 7 7                                                                 "
};
