/* XPM */
static char *result[] = {
/* columns rows colors chars-per-pixel */
"32 32 80 1 ",
"  c black",
". c #040102",
"X c #050102",
"o c #020305",
"O c #050607",
"+ c #060606",
"@ c #060607",
"# c #060708",
"$ c #070708",
"% c #070809",
"& c #140709",
"* c #150809",
"= c #080E15",
"- c #131518",
"; c #16191B",
": c #17191C",
"> c #1A1C1E",
", c #1A1C1F",
"< c #2D1013",
"1 c #3F171B",
"2 c #1B1D20",
"3 c #121D2C",
"4 c #162437",
"5 c #25292D",
"6 c #25292E",
"7 c #26292E",
"8 c #262A2F",
"9 c #272B30",
"0 c #2A2E33",
"q c #2D3136",
"w c #2F3338",
"e c #32363C",
"r c #4C1B21",
"t c #521D23",
"y c #521E23",
"u c #531E23",
"i c #581F25",
"p c #5A2026",
"a c #6F282F",
"s c #762A32",
"d c #7E2D36",
"f c #1C2F47",
"g c #1E324C",
"h c #363A40",
"j c #383C42",
"k c #393E44",
"l c #223A57",
"z c #233B5A",
"x c #253E5F",
"c c #3B4046",
"v c #2B496E",
"b c #2E4E76",
"n c #32537E",
"m c #444950",
"M c #525A64",
"N c #5A616A",
"B c #5A616B",
"V c #656D78",
"C c #822E37",
"Z c #832F38",
"A c #873039",
"S c #8A323B",
"D c #B03F4B",
"F c #B13F4B",
"G c #B2404C",
"H c #B5414D",
"J c #BB4350",
"K c #C34653",
"L c #ED5565",
"P c #335682",
"I c #345682",
"U c #355885",
"Y c #355986",
"T c #365B8A",
"R c #4574AF",
"E c #4574B0",
"W c #4675B2",
"Q c #4777B4",
"! c #5D9CEC",
"~ c None",
/* pixels */
"~~~~~~~~~~~~~~~~~~~~~~~~~~~~~~~~",
" :wwwwwwwwwwwwwwwwwwwwwwwwwwww: ",
" e+        kVVVVVVVVk        +e ",
" e CyddSLLseVVVVVVVVesLLSddtZ e ",
" e r.uaZLLseVVVVVVVVesLLZauXr e ",
" e sp*DLLLseVVVVVVVVesLLLH*is e ",
" e ssH*DLLseVVVVVVVVesLLH*Fss e ",
" e AALH*DLseVVVVVVVVesLH*FLAA e ",
" e LLLLG&JseVVVVVVVVesH*FLLLL e ",
" e LLLLLJKseVVVVVVVVes<GLLLLL e ",
" e ddddddd1eVVVVVVVVe1ddddddd e ",
" ejwwwwwwwwmhhhhhhhhmwwwwwwwwje ",
" eVVVVVVVVVe-999999-eVVVVVVVVVe ",
" eVVVVVVVVVe0M5#$7M0eVVVVVVVVVe ",
" eVVVVVVVVVe06,BB,70eVVVVVVVVVe ",
" eVVVVVVVVVe0$BVVN$0eVVVVVVVVVe ",
" eVVVVVVVVVe0$BVVN%0eVVVVVVVVVe ",
" eVVVVVVVVVe07,NN>80eVVVVVVVVVe ",
" eVVVVVVVVVe0M7$%8M0eVVVVVVVVVe ",
" eVVVVVVVVVe;qqqqqq;eVVVVVVVVVe ",
" echhhhhhhhmwwwwwwwwmhhhhhhhhce ",
" e vvvvvvv4eVVVVVVVVe4vvvvvvv e ",
" e !!!!!W3beVVVVVVVVeb3W!!!!! e ",
" e !!!!Q=EbeVVVVVVVVebQ=R!!!! e ",
" e UY!Q=E!beVVVVVVVVeb!Q=R!UY e ",
" e bbQ=E!!beVVVVVVVVeb!!Q=Rbb e ",
" e bz=E!!!beVVVVVVVVeb!!!Q=lb e ",
" e goxnT!!beVVVVVVVVeb!!Tnxog e ",
" e IfvvP!!beVVVVVVVVeb!!PvvfI e ",
" eO        kVVVVVVVVk        @e ",
" 2hhhhhhhhhhhhhhhhhhhhhhhhhhhh2 ",
"~                              ~"
};
