/* XPM */
static char *result[] = {
/* columns rows colors chars-per-pixel */
"32 32 162 2 ",
"   c #547580",
".  c #547680",
"X  c #869296",
"o  c #8C979B",
"O  c #909A9D",
"+  c #929A9C",
"@  c #949B9C",
"#  c #8D9BA0",
"$  c #959EA0",
"%  c #959EA1",
"&  c #969EA0",
"*  c #979EA0",
"=  c #969FA1",
"-  c #969FA2",
";  c #989EA0",
":  c #999FA0",
">  c #96A0A3",
",  c #92A0A6",
"<  c #94A1A5",
"1  c #97A1A5",
"2  c #98A0A1",
"3  c #9AA0A1",
"4  c #9CA0A1",
"5  c #9DA0A1",
"6  c #9EA1A1",
"7  c #9FA2A2",
"8  c #9AA2A4",
"9  c #9BA3A5",
"0  c #98A3A7",
"q  c #9FA3A4",
"w  c #9BA4A6",
"e  c #9CA4A6",
"r  c #94A5AB",
"t  c #9BA5A9",
"y  c #99A5AB",
"u  c #9BA6AA",
"i  c #9EA8AC",
"p  c #9EAAAE",
"a  c #9EAAAF",
"s  c #9FAAAF",
"d  c #9DADB1",
"f  c #A1A3A2",
"g  c #A2A3A3",
"h  c #A3A4A4",
"j  c #A3A5A5",
"k  c #A2A6A5",
"l  c #A4A5A4",
"z  c #A5A5A4",
"x  c #A4A4A5",
"c  c #A5A6A5",
"v  c #A4A6A7",
"b  c #A4A7A7",
"n  c #A1A9AC",
"m  c #A1AAAD",
"M  c #A2AAAC",
"N  c #A2ABAD",
"B  c #A3ACAF",
"V  c #A4ADAE",
"C  c #A2ACB0",
"Z  c #A1AEB0",
"A  c #A1ACB2",
"S  c #A0AFB2",
"D  c #A0AEB3",
"F  c #A4AEB0",
"G  c #A7AFB2",
"H  c #A1AEB4",
"J  c #A2AFB4",
"K  c #A6B1B3",
"L  c #A4B0B6",
"P  c #A7B3B7",
"I  c #A8B1B2",
"U  c #A9B1B3",
"Y  c #ABB3B5",
"T  c #A8B5B7",
"R  c #ACB6B6",
"E  c #A6B2B8",
"W  c #A8B4B9",
"Q  c #A9B5B9",
"!  c #AAB5B9",
"~  c #AAB5BA",
"^  c #AAB6BB",
"/  c #ABB7BB",
"(  c #ACB5BA",
")  c #ACB6BB",
"_  c #ACB7BB",
"`  c #AEBABB",
"'  c #AFBABB",
"]  c #ACB8BC",
"[  c #AEB9BC",
"{  c #AFB8BD",
"}  c #AFBABC",
"|  c #AFBABF",
" . c #B5BCBB",
".. c #B1B9BC",
"X. c #B0B9BD",
"o. c #B0BABC",
"O. c #B3BBBD",
"+. c #B0B9BE",
"@. c #B2BBBF",
"#. c #B3BCBE",
"$. c #B3BDBE",
"%. c #B3BCBF",
"&. c #B5BDBE",
"*. c #B0BBC0",
"=. c #B3BBC0",
"-. c #B0BCC1",
";. c #B3BCC0",
":. c #B5BDC0",
">. c #B6BFC0",
",. c #B6BEC2",
"<. c #B7BFC4",
"1. c #B8BFC1",
"2. c #B6C0C0",
"3. c #B7C1C6",
"4. c #BDC4C3",
"5. c #B9C0C4",
"6. c #BAC1C5",
"7. c #BBC1C5",
"8. c #BCC2C6",
"9. c #BDC3C7",
"0. c #BBC5C7",
"q. c #BCC5C6",
"w. c #BEC5C6",
"e. c #BCC6C7",
"r. c #BBC4C8",
"t. c #BCC6C8",
"y. c #BDC6C9",
"u. c #BDC7C9",
"i. c #BFC8C8",
"p. c #C7CCCA",
"a. c #C0C9CC",
"s. c #C2CACD",
"d. c #C3CBCE",
"f. c #C4CCCF",
"g. c #C7CCCF",
"h. c #C8CDCB",
"j. c #C8CECC",
"k. c #C9CECD",
"l. c #CCD0CE",
"z. c #CCD1CE",
"x. c #CED1CE",
"c. c #CED1CF",
"v. c #CED2CF",
"b. c #C5CDD0",
"n. c #C7CED1",
"m. c #C7CED2",
"M. c #CFD3D0",
"N. c #CAD1D4",
"B. c #CBD1D4",
"V. c #CBD2D4",
"C. c #CBD2D5",
"Z. c #D0D3D0",
"A. c #D1D4D1",
"S. c #DADEDF",
"D. c #DCDEE0",
"F. c #DCDFE0",
"G. c #DCDFE1",
"H. c #DDE1E2",
"J. c #DFE1E3",
"K. c #E3E5E6",
"L. c #E4E6E7",
"P. c #E6E7E8",
/* pixels */
".                                                             . ",
"                                                                ",
"    X @ @ @ @ @ @ @ @ $.2.2.2.2.2.2.2.d E E H o.2.2.2.2.2.S     ",
"    @ z z z z z z z z c.A.A.A.A.A.A.' 9.9.9.9.Q M.A.A.A.A.2.    ",
"    @ z z z z z z z 7 l.v.v.v.v.Z.` 9.9.9.9.9.9.P A.A.A.A.2.    ",
"    @ z z z z z z z B P.P.P.P.P.J.^ 9.9.9.9.9.9.9.>.A.A.A.2.    ",
"    @ z z z z z z n P.P.P.P.P.P.P.f.9.9.9.9.9.9.9.) A.A.A.2.    ",
"    @ z z z z z 8 P.P.P.P.P.P.P.P.n.9.9.9.9.9.9.9.9.[ A.A.2.    ",
"    + z z z z z O.P.P.P.P.P.P.P.P./ 9.9.9.9.9.9.9.9.~ A.A.2.    ",
"    D u z z z f F.P.P.P.P.P.P.K.*.9.9.9.9.9.9.9.9.9.+.e.e.]     ",
"    E 9.) a s { d.P.P.P.P.S.t.j.#.=.9.9.9.9.9.9.9.9.| P.P.m.    ",
"    E 9.9.9.9.9.,.r.V.u.i.M.A.A.A.k.W 9.9.9.9.9.9.@.H.P.P.m.    ",
"    E 9.9.9.9.9.9._ A.A.A.A.A.A.A.A.z.: ; & = 1 0 g.P.P.P.m.    ",
"    E 9.9.9.9.9.9.} A.A.A.A.A.A.A.A.Z.g z z z z z m P.P.P.m.    ",
"    E 9.9.9.9.9.;.z.A.A.A.A.A.A.A.A. .z z z z z z 9 P.P.P.m.    ",
"    E 9.9.9.9.( q &.A.A.A.A.A.A.A.A.2 z z z z z z 3 P.P.P.m.    ",
"    , s s s t h z j p.A.A.A.A.A.A.I z z z z z z z g D.P.P.m.    ",
"    @ z z z z z z z R A.A.A.A.A.4.6 z z z z z z z z e P.P.m.    ",
"    @ z z z z z z z K q.0.y.a.b.:.f z z z z z z z z 5 w.t.-.    ",
"    @ z z z z z z z B.P.P.P.P.P.P.1.z z z z z z z z N A.A.2.    ",
"    @ z z z z z c ..P.P.P.P.P.P.P.P.4 z z z z z z 5 x.A.A.2.    ",
"    @ z z z z v n.P.P.P.P.P.P.P.P.P.! > 7 z z z l V A.A.A.2.    ",
"    @ z z z $ %.C.P.P.P.P.P.P.P.P.G.7.9.5.i - % p M.A.A.A.2.    ",
"    o * & i 9.9.<.K.P.P.P.P.P.P.P.3.9.9.9.9.9.9.9.W M.A.A.2.    ",
"    E 9.9.9.9.9.9.F s.L.P.P.P.P.N.6.9.9.9.9.9.9.9.9.W v.A.2.    ",
"    E 9.9.9.9.9.C z z b U Y Y G p 9.9.9.9.9.9.9.9.9.9.y M <     ",
"    E 9.9.9.9.9.$ z z z z z z z x +.9.9.9.9.9.9.9.9.X.h z @     ",
"    E 9.9.9.9.9.$ z z z z z z z z u 8.9.9.9.9.9.9.9.w z z @     ",
"    E 9.9.9.9.9.C l z z z z z z k h.#.,.9.9.9.9.9.A z z z @     ",
"    r E E E E E E # @ @ @ @ @ @ Z 2.2.T J E E E L O @ @ @ X     ",
"                                                                ",
".                                                             . "
};
