/* XPM */
static char *result[] = {
/* columns rows colors chars-per-pixel */
"32 32 115 2 ",
"   c #547580",
".  c #547680",
"X  c #A5A5A4",
"o  c #A6A6A5",
"O  c gray65",
"+  c #A7A7A6",
"@  c #A3A9A9",
"#  c #AAAAA9",
"$  c #A9ABAA",
"%  c gray67",
"&  c #AAADAC",
"*  c #ABADAC",
"=  c #ACADAC",
"-  c #ADADAC",
";  c #ADAEAD",
":  c #ADB0B0",
">  c #B0B2B0",
",  c #B0B4B3",
"<  c #B3B4B2",
"1  c #B2B4B4",
"2  c #B5B6B5",
"3  c #B4B7B6",
"4  c #B8B9B7",
"5  c #B7BAB9",
"6  c #B5BDBE",
"7  c #B8B9B8",
"8  c #BABBBA",
"9  c #B8BCBC",
"0  c #BBBFBF",
"q  c #B6C0C0",
"w  c #BDC1C1",
"e  c #BEC2C4",
"r  c #BEC3C5",
"t  c #BDC3C7",
"y  c #BBC4C4",
"u  c #BFC4C6",
"i  c #BEC4C7",
"p  c #BFC4C7",
"a  c #BFC5C7",
"s  c #BEC4C8",
"d  c #BFC4C8",
"f  c #BFC5C8",
"g  c #C0C2C0",
"h  c #C4C6C5",
"j  c #C5C6C6",
"k  c #C6C7C7",
"l  c #C5C8C5",
"z  c #C0C5C8",
"x  c #C0C6C9",
"c  c #C1C7C9",
"v  c #C2C7C9",
"b  c #C1C7CA",
"n  c #C2C7CA",
"m  c #C2C8CA",
"M  c #C3C8CA",
"N  c #C3C8CB",
"B  c #C3CACB",
"V  c #C5C8C9",
"C  c #C5CAC8",
"Z  c #C4C9CB",
"A  c #C5CACB",
"S  c #C6CACD",
"D  c #C7CCCC",
"F  c #C8CBC8",
"G  c #CACBCB",
"H  c #C8CCCC",
"J  c #C8CDCD",
"K  c #C9CDCD",
"L  c #CBCECE",
"P  c #CBCFCE",
"I  c #CCCECD",
"U  c #CCCFCE",
"Y  c #CBD0CD",
"T  c #CDD1CF",
"R  c #CED1CE",
"E  c #CFD1CF",
"W  c #CFD2CF",
"Q  c #CACED0",
"!  c #CBCFD1",
"~  c #CBD1D3",
"^  c #CFD2D0",
"/  c #CED2D3",
"(  c #D0D2D0",
")  c #D0D3D0",
"_  c #D1D4D1",
"`  c #D2D5D2",
"'  c #D3D5D3",
"]  c #D3D6D3",
"[  c #D2D6D6",
"{  c #D5D7D5",
"}  c #D5D8D6",
"|  c #D7D9D7",
" . c #D4D7D8",
".. c #D7D7D8",
"X. c #D5D8D9",
"o. c #D6D8D8",
"O. c #D6D9DB",
"+. c #D9DCDD",
"@. c #DBDCDC",
"#. c #DBDDDC",
"$. c #DADEDE",
"%. c #DBDEDF",
"&. c #DCDEDD",
"*. c #DDDEDE",
"=. c #DCDFDF",
"-. c #DDDFE1",
";. c #DFE1E1",
":. c #E0E2E3",
">. c #E1E2E3",
",. c #E2E3E3",
"<. c #E2E3E4",
"1. c #E4E5E6",
"2. c #E4E6E6",
"3. c #E5E6E7",
"4. c #E6E7E8",
/* pixels */
".                                                             . ",
"                                                                ",
"    ~ =.$.Y Y Y Y Y Y Y Y C $ $ $ $ C Y Y Y Y Y Y Y Y & $ @     ",
"    =.4.1._ _ _ _ _ _ _ _ W X X X X W _ _ _ _ _ _ _ _ + X $     ",
"    =.4.4.` _ _ ) K _ _ _ F X X X X F _ _ _ K ) _ _ W + X $     ",
"    =.4.4.4.} T z t n ^ g X X X X X X g ^ n t z T F + X X $     ",
"    =.4.4.4.4.n t t t e X X X X X X X X e t t t a X X X X $     ",
"    =.4.4.4.4.b t t t e X X X X X X X X e t t t p X X X X $     ",
"    9 ..4.4.+.s t t t a = X X j j X X = a t t t i 1 X X 4 D     ",
"    $ o k / t t t t t t i 5 o.4.4.o.5 i t t t t t t 0 G 3.=.    ",
"    $ X + t t t t t t t t m 4.4.4.4.m t t t t t t t t 1.4.=.    ",
"    $ X + t t t t t t t t m 4.4.4.4.m t t t t t t t t 1.4.=.    ",
"    $ X X w t t A ^ c t s  .4.4.4.4. .s t c ^ A t t ! 4.4.=.    ",
"    $ X X X 3 L _ _ _ K -.4.4.4.4.4.4.-.K _ _ _ P O.4.4.4.=.    ",
"    $ X X X X ( _ _ _ { 4.4.4.4.4.4.4.4.{ _ _ _ ` 4.4.4.4.=.    ",
"    $ X X X X ( _ _ _ { 4.4.4.4.4.4.4.4.{ _ _ _ ` 4.4.4.4.=.    ",
"    X.I X X l _ _ _ _ _ #.4.<.7 7 <.4.#._ _ _ _ _ | 4.4.h :     ",
"    =.4.@.R _ _ _ _ _ _ _ ] - X X - ] _ _ _ _ _ _ _ ' 2 X $     ",
"    =.4.1._ _ _ _ _ _ _ _ W X X X X W _ _ _ _ _ _ _ _ + X $     ",
"    =.4.2._ _ _ _ _ _ _ _ E X X X X E _ _ _ _ _ _ _ _ + X $     ",
"    =.4.4.&._ _ H f P _ W > X X X X > W _ P f H _ _ 8 X X $     ",
"    =.4.4.4.<.A t t t V + X X X X X X + V t t t M ; X X X $     ",
"    =.4.4.4.4.b t t t e X X X X X X X X e t t t p X X X X $     ",
"    [ 4.4.4.4.x t t t r X X X # # X X X r t t t p o X X X ,     ",
"    $ < ;.:.N t t t t t e + 7 <.<.7 + e t t t t t p * ; *.%.    ",
"    $ X % f t t t t t t t v 3.4.4.3.v t t t t t t t i ,.4.=.    ",
"    $ X + t t t t t t t t m 4.4.4.4.m t t t t t t t t 1.4.=.    ",
"    $ X O d t t t c t t t S 4.4.4.4.S t t t c t t t f 3.4.=.    ",
"    $ X X % u d U _ J t Q 3.4.4.4.4.3.Q t J _ U d Z >.4.4.=.    ",
"    @ $ $ $ $ 6 q q q B =.=.=.=.=.=.=.=.B q q q y %.=.=.=.~     ",
"                                                                ",
".                                                             . "
};
