/* XPM */
static char *result[] = {
/* columns rows colors chars-per-pixel */
"32 32 254 2 ",
"   c #547580",
".  c #547680",
"X  c #909899",
"o  c #989D9E",
"O  c #9A9E9E",
"+  c #9B9F9E",
"@  c #9A9FA1",
"#  c #9AA0A1",
"$  c #9FA2A1",
"%  c #9CA2A2",
"&  c #9EA2A2",
"*  c #9EA4A4",
"=  c #9FA4A4",
"-  c #9EA5A5",
";  c #9FA6A7",
":  c #9EA7A9",
">  c #9EAAAF",
",  c #A0A3A2",
"<  c #A1A3A2",
"1  c #A2A3A2",
"2  c #A2A3A3",
"3  c #A3A4A3",
"4  c #A4A4A3",
"5  c #A0A5A5",
"6  c #A0A5A6",
"7  c #A3A5A6",
"8  c #A1A7A6",
"9  c #A2A6A6",
"0  c #A2A6A7",
"q  c #A3A7A7",
"w  c #A4A4A4",
"e  c #A4A5A4",
"r  c #A5A5A4",
"t  c #A5A5A5",
"y  c #A4A6A5",
"u  c #A6A6A5",
"i  c #A5A6A6",
"p  c #A5A7A6",
"a  c #A5A7A7",
"s  c gray65",
"d  c #A6A7A6",
"f  c #A7A7A6",
"g  c #A7A7A7",
"h  c #A1A8A7",
"j  c #A5A8A7",
"k  c #A6A8A7",
"l  c #A7A8A7",
"z  c #A8A8A7",
"x  c #A1A9A8",
"c  c #A1A8A9",
"v  c #A3A8A9",
"b  c #A3A9A9",
"n  c #A5A9A8",
"m  c #A6A8A8",
"M  c #A6AAA9",
"N  c #A5A9AA",
"B  c #A5A9AB",
"V  c #A5AAAA",
"C  c #A7AAAA",
"Z  c #A7AAAB",
"A  c #A0A9AC",
"S  c #A2AAAC",
"D  c #A3ABAD",
"F  c #A4AAAC",
"G  c #A5ABAC",
"H  c #A4ABAD",
"J  c #A5ABAD",
"K  c #A2ACAF",
"L  c #A5ACAD",
"P  c #A6AEAD",
"I  c #A6ACAE",
"U  c #A7ADAF",
"Y  c gray66",
"T  c #A9A9A8",
"R  c #AAABA9",
"E  c #A8A9AA",
"W  c #A9AAAA",
"Q  c #A8ABAB",
"!  c #ABABAA",
"~  c #AAABAB",
"^  c #A9ACAB",
"/  c #ABACAB",
"(  c #A8ACAE",
")  c #A8ADAE",
"_  c #A9ADAE",
"`  c #A9ADAF",
"'  c #A8AFAE",
"]  c #AEAFAE",
"[  c #A5AEB1",
"{  c #A8AEB0",
"}  c #A8AFB0",
"|  c #A8AFB1",
" . c #A9AFB1",
".. c #AAAFB1",
"X. c #A9B0B2",
"o. c #AAB0B2",
"O. c #ADB1B0",
"+. c #AEB1B1",
"@. c #ACB2B1",
"#. c #AFB3B1",
"$. c #ACB1B3",
"%. c #ACB3B2",
"&. c #AFB3B2",
"*. c #ABB1B4",
"=. c #ABB2B4",
"-. c #AAB3B4",
";. c #AAB3B7",
":. c #ACB3B4",
">. c #ADB3B6",
",. c #ABB5B5",
"<. c #ACB5B5",
"1. c #AEB5B4",
"2. c #ADB5B6",
"3. c #ADB5B7",
"4. c #ABB4B8",
"5. c #ADB5B9",
"6. c #AFB5B8",
"7. c #AFB6B9",
"8. c #ADB6BA",
"9. c #AEB6BA",
"0. c #B0B1B0",
"q. c #B0B1B1",
"w. c #B0B2B1",
"e. c #B1B2B1",
"r. c #B1B3B2",
"t. c #B2B3B3",
"y. c #B0B4B3",
"u. c #B0B5B3",
"i. c #B1B5B4",
"p. c #B4B8B6",
"a. c #B2B7B8",
"s. c #B2B7B9",
"d. c #B0B7BA",
"f. c #B1B8B8",
"g. c #B2B8BA",
"h. c #B3B9BA",
"j. c #B2B8BB",
"k. c #B6B8B9",
"l. c #B6B9B9",
"z. c #B5BAB8",
"x. c #B6BAB8",
"c. c #B6BAB9",
"v. c #B7BBB9",
"b. c #B5B9BA",
"n. c #B2B9BC",
"m. c #B3B9BC",
"M. c #B3BABD",
"N. c #B6BCBC",
"B. c #B7BEBD",
"V. c #B5BCBF",
"C. c #B6BCBE",
"Z. c #B7BDBE",
"A. c #B7BEBE",
"S. c #B9BBBB",
"D. c #BABCBC",
"F. c #BABDBC",
"G. c #BABDBD",
"H. c #B8BEBE",
"J. c #BABEBE",
"K. c #BBC1BF",
"L. c #BEC2BF",
"P. c #B6BCC0",
"I. c #B6BDC0",
"U. c #B7BDC1",
"Y. c #B7BEC1",
"T. c #B7BEC2",
"R. c #B8BDC1",
"E. c #B8BEC2",
"W. c #B8BFC2",
"Q. c #B9BFC2",
"!. c #B8BFC3",
"~. c #B9BFC3",
"^. c #BABFC3",
"/. c #BCBFC0",
"(. c #BBC2C0",
"). c #BAC0C3",
"_. c #BDC1C1",
"`. c #BCC2C1",
"'. c #BDC3C1",
"]. c #BEC2C0",
"[. c #BEC1C2",
"{. c #BDC3C2",
"}. c #BDC3C3",
"|. c #BFC3C3",
" X c #BFC4C3",
".X c #BAC0C4",
"XX c #BBC0C4",
"oX c #BBC1C5",
"OX c #BCC2C5",
"+X c #BCC2C6",
"@X c #BDC3C7",
"#X c #BFC4C5",
"$X c #BEC4C7",
"%X c #BFC4C7",
"&X c #BEC4C8",
"*X c #C0C3C4",
"=X c #C0C4C4",
"-X c #C1C6C4",
";X c #C2C6C4",
":X c #C0C6C7",
">X c #C3C6C6",
",X c #C3C6C7",
"<X c #C4C9C7",
"1X c #C3C7C8",
"2X c #C1C7CA",
"3X c #C2C9CA",
"4X c #C5CAC8",
"5X c #C6CBC9",
"6X c #C4C9CB",
"7X c #C6CBCA",
"8X c #C6CBCB",
"9X c #C4C9CC",
"0X c #C5CACC",
"qX c #C9CDCA",
"wX c #C9CDCB",
"eX c #CBCECC",
"rX c #CBCFCD",
"tX c #C9CDCF",
"yX c #CDCFCD",
"uX c #CCD0CD",
"iX c #CDD0CD",
"pX c #CED1CE",
"aX c #CFD2CF",
"sX c #CFD1D1",
"dX c #CDD1D2",
"fX c #CED1D3",
"gX c #CFD2D3",
"hX c #CED2D4",
"jX c #D0D3D0",
"kX c #D1D4D1",
"lX c #D1D3D4",
"zX c #D3D6D7",
"xX c #D4D7D7",
"cX c #D9DADA",
"vX c #D8DADB",
"bX c #D8DADC",
"nX c #D9DCDD",
"mX c #DBDDDE",
"MX c #DBDDDF",
"NX c #DCDEDF",
"BX c #DDDEDF",
"VX c #DEE0E1",
"CX c #DFE0E1",
"ZX c #DFE1E2",
"AX c #E0E1E2",
"SX c #E0E2E4",
"DX c #E1E3E4",
"FX c #E2E3E4",
"GX c #E2E4E5",
"HX c #E3E5E6",
"JX c #E4E5E6",
"KX c #E4E6E7",
"LX c #E5E6E7",
"PX c #E6E7E8",
/* pixels */
".                                                             . ",
"                                                                ",
"    > 9.9.9.;.'.{.{.B.hXhXhXhXhX3X9.9.9.: + + + + + o 9.9.>     ",
"    9.@X@X@X@X4XkXkX8XPXPXPXPXPXPX+X@X@X6 r r r r r r @X@X9.    ",
"    9.@X@X@X@XwXkXkX7XPXPXPXPXPXKX+X@X@X0 r r r r r 3 @X@X9.    ",
"    [ X.*.W.n.kXkXkXrXDXzX|.1XZXtX@X@X@Xg.4 $ = & 3 5 @X@X9.    ",
"    + r r t } wXkXkX-Xh r r r k h..X@X@XQ.D @X@X@Xj.:.!.@X8.    ",
"    + r r 7 +X@XOX$X@X$.r r r q.PXPXnXFXPX9X@X@X@X#XkXjX<XA.    ",
"    + r r F @X@X@X@X@XOX4 r r /.PXPXPXPXPXSX@X@X@X`.kXkXkX{.    ",
"    + r r v @X@X@X@X@XR.r r r S.PXPXPXPXPXbX@X@X@X}.kXkXkX{.    ",
"    + r r e I..X=.d.@XN r r r ! VXZX,XlXPX).@X@X@X%XaX XH.<.    ",
"    @ r r B ; u r r a ' w.f ! p.V f r r / Z.6X&X2X0X3.@X@X8.    ",
"    8.T.~.@XU.r r r / kXkXpXkXkX;Xr r r t.PXPXGXPXPXdX@X@X9.    ",
"    9.@X@X@X@Xm r r i.kXkXkXkXkXjXu r r [.PXPXPXPXPXFX@X@X9.    ",
"    9.@X@X@X@Xg r r #.kXkXkXkXkXiXr r r G.PXPXPXPXPXmX@X@X9.    ",
"    K U | P.6.r r r z qXeXz.].jXz.r r r ~ CXNX=XgXPX:X@X@X9.    ",
"    + r r r a.D.T ] *X8 u r r l S _ s E o.6 u r r W f.W.@X5.    ",
"    + r r ^ LXPXJXPXPX>Xr r r Z @X@X+X@X@X..r r r r.kXkXuX(.    ",
"    + r r b.PXPXPXPXPXJX4 r r { @X@X@X@X@XXXr r r v.kXkXkX{.    ",
"    + r r y.PXPXPXPXPXcXr r r ) @X@X@X@X@Xm.r r r x.kXkXkX{.    ",
"    + r r d vXsX+.l.BX+.r r r g T.s.q ( ^.9 r r r R yX&.j -     ",
"    # r r G c r r r 3 N.F.Y 0.,Xb r r r 2 H ` p C *.% r r +     ",
"    9.+X@X@XE.r r r e.PXPXLXPXPXxXr r r Q @X@X@X@X@X7.r r +     ",
"    9.@X@X@X@Xm r r J.PXPXPXPXPXPXf r r  .@X@X@X@X@XoXr r +     ",
"    9.@X@X@X@Xf r r k.PXPXPXPXPXAXr r r _ @X@X@X@X@XP.r r +     ",
"    A J I M.>.r r r z nXMX0XfXHX_.r r r g E.V. .6.+XL r r +     ",
"    + r r y %., 3 1 n 2.@X@X@X$X1., 4 < M * r r r i @.< r O     ",
"    + r r ^ kXkXkXkXkX5X@X@X@XC.kXkXkXkXkXL.r r r O.kXkXkX{.    ",
"    + r r u.kXkXkXkXkXkXY.@X@XH.kXkXkXkXkXkXw r r c.kXkXkX{.    ",
"    X + + x {.{.{.{.{.'.4.9.9.-.{.{.{.{.{.K.O + + P {.{.{.,.    ",
"                                                                ",
".                                                             . "
};
