/* XPM */
static char *result[] = {
/* columns rows colors chars-per-pixel */
"64 64 246 2 ",
"   c #354A67",
".  c #364A67",
"X  c #354A68",
"o  c #364A68",
"O  c #364B68",
"+  c #374D6B",
"@  c #354F6F",
"#  c #394D6B",
"$  c #394F6C",
"%  c #394E6D",
"&  c #394F6D",
"*  c #3B516F",
"=  c #3C5170",
"-  c #3E5371",
";  c #3F5473",
":  c #3E5678",
">  c #3E5B7F",
",  c #425776",
"<  c #475D7F",
"1  c #495C7B",
"2  c #485D7D",
"3  c #4E607E",
"4  c #F47920",
"5  c #F57920",
"6  c #F47A21",
"7  c #F57A21",
"8  c #F67D22",
"9  c #F67F22",
"0  c #D72E43",
"q  c #D72E44",
"w  c #D72E45",
"e  c #D82D44",
"r  c #D82E44",
"t  c #D92E44",
"y  c #D82F44",
"u  c #D92F44",
"i  c #D43249",
"p  c #D9394E",
"a  c #D93D54",
"s  c #B35770",
"d  c #C5485F",
"f  c #D94158",
"g  c #DB586E",
"h  c #E35A6D",
"j  c #E35A6E",
"k  c #E55A6D",
"l  c #E4596E",
"z  c #E45A6E",
"x  c #E55A6E",
"c  c #E55B6E",
"v  c #E45A6F",
"b  c #E35B70",
"n  c #E35D72",
"m  c #DB657A",
"M  c #DC677D",
"N  c #E56073",
"B  c #E46175",
"V  c #E56478",
"C  c #F68224",
"Z  c #F88F29",
"A  c #F9972E",
"S  c #F9982D",
"D  c #FDB33A",
"F  c #FDB33B",
"G  c #FDB539",
"H  c #FDB43A",
"J  c #FDB53A",
"K  c #FEB43A",
"L  c #325D87",
"P  c #2F699A",
"I  c #316290",
"U  c #2D70A7",
"Y  c #2C75AD",
"T  c #2B7BB9",
"R  c #4D6384",
"E  c #466288",
"W  c #476388",
"Q  c #476389",
"!  c #46658C",
"~  c #486489",
"^  c #4A668B",
"/  c #536687",
"(  c #56698A",
")  c #466D96",
"_  c #536C90",
"`  c #477099",
"'  c #47749F",
"]  c #587194",
"[  c #587195",
"{  c #5A7396",
"}  c #5C7294",
"|  c #5F779A",
" . c #7C6E8C",
".. c #607290",
"X. c #617293",
"o. c #627394",
"O. c #607799",
"+. c #61789A",
"@. c #677D9E",
"#. c #69789A",
"$. c #6B7B9D",
"%. c #6D7D9F",
"&. c #6F7E9F",
"*. c #717B99",
"=. c #797F9E",
"-. c #4779A5",
";. c #477CA9",
":. c #6E7EA0",
">. c #6F7EA0",
",. c #6F7FA1",
"<. c #886D89",
"1. c #AB7F98",
"2. c #B47D94",
"3. c #CE6D81",
"4. c #E66F81",
"5. c #E77587",
"6. c #7F829F",
"7. c #4781AF",
"8. c #4887B7",
"9. c #4887B8",
"0. c #498ABB",
"q. c #6B81A1",
"w. c #6D83A2",
"e. c #7382A4",
"r. c #7D8AAC",
"t. c #7B8FAC",
"y. c #2781C4",
"u. c #2781C5",
"i. c #2584CB",
"p. c #228AD6",
"a. c #1E8FE3",
"s. c #1B92E9",
"d. c #1893EF",
"f. c #0590FB",
"g. c #0791FB",
"h. c #0C94F9",
"j. c #1495F3",
"k. c #1694F2",
"l. c #2AA5F7",
"z. c #28A7FC",
"x. c #4991C5",
"c. c #4999CE",
"v. c #499ED4",
"b. c #49A4DD",
"n. c #4AA7DF",
"m. c #4AA9E1",
"M. c #4BB5F1",
"N. c #4BBCFA",
"B. c #4BBDFD",
"V. c #4BBEFD",
"C. c #9592AD",
"Z. c #8092B0",
"A. c #889AB5",
"S. c #8A98B6",
"D. c #8B9CB7",
"F. c #8F9BB9",
"G. c #8D98BB",
"H. c #8F9FB9",
"J. c #B794AE",
"K. c #D696A8",
"L. c #DD90AA",
"P. c #DE9EB6",
"I. c #E98FA0",
"U. c #E997A7",
"Y. c #EAA0B0",
"T. c #959FC2",
"R. c #9AA8C0",
"E. c #9BA9C1",
"W. c #9FADC4",
"Q. c #A0A9CC",
"!. c #A6B2C9",
"~. c #A7B3CA",
"^. c #A8B4CA",
"/. c #A9B5CB",
"(. c #ACB7CC",
"). c #A5ACD0",
"_. c #ACB3D6",
"`. c #B2BCD0",
"'. c #B0B6DB",
"]. c #B8BCE0",
"[. c #BABEE2",
"{. c #DEAAC3",
"}. c #BFC3E7",
"|. c #C2CADB",
" X c #C6CDDF",
".X c #EDC2CF",
"XX c #EEC8D5",
"oX c #C8CAEE",
"OX c #DDCAE6",
"+X c #DDCDEB",
"@X c #CED3E3",
"#X c #D2D7E7",
"$X c #D7DBEA",
"%X c #DCDFEC",
"&X c #CCCDF0",
"*X c #D0D0F4",
"=X c #D1D1F6",
"-X c #D4D4F9",
";X c #D5D4FA",
":X c #D7D6FB",
">X c #DAD6F8",
",X c #D8D7FA",
"<X c #D9D7FA",
"1X c #D8D7FB",
"2X c #D9D8FA",
"3X c #D9D8FB",
"4X c #DBDAFB",
"5X c #DCDBFB",
"6X c #DFDFF9",
"7X c #DDDCFB",
"8X c #DFDDFA",
"9X c #DEDCFB",
"0X c #DFDEFB",
"qX c #DFDFFB",
"wX c #DADAFC",
"eX c #DCDBFC",
"rX c #DDDCFC",
"tX c #E0CDE7",
"yX c #EFDCE8",
"uX c #E0DEFB",
"iX c #E0DFFC",
"pX c #DDE1ED",
"aX c #F0E0EB",
"sX c #E1E4F0",
"dX c #EAEBF6",
"fX c #EAEBF7",
"gX c #E0E0FB",
"hX c #E1E1FB",
"jX c #E4E3FB",
"kX c #E0E0FC",
"lX c #E0E0FD",
"zX c #E2E0FD",
"xX c #E5E4FC",
"cX c #EDEDF8",
"vX c #EDEEF9",
"bX c #F0E6F1",
"nX c #F1EBF5",
"mX c #F0F0FA",
"MX c #F1F1FA",
"NX c #F0F0FB",
"BX c #F1F0FB",
"VX c #F1F1FB",
"CX c #F2F2FB",
"ZX c #F1F1FC",
"AX c #F2F2FC",
"SX c None",
/* pixels */
"SXSXSXSXSXSXSXSXSXSXSXSXSXSXSXSXSXSXSXSXSXSXSXSXSXSXSXSXSXSXSXSXSXSXSXSXSXSXSXSXSXSXSXSXSXSXSXSXSXSXSXAXVXCXZXVXVXVXVXVXVXVXSXSX",
"SXSXSXSXSXSXSXSXSXSXSXSXSXSXSXSXSXSXSXSXSXSXSXSXSXSXSXSXSXSXSXSXSXSXSXSXSXSXSXSXSXSXSXSXSXVXVXVXVXVXVXVXVXVXVXVXVXVXVXVXVXVXxXhX",
"SXSXSXSXSXSXSXSXSXSXSXSXSXSXSXSXSXSXSXSXSXSXSXSXSXSXSXSXSXSXSXSXSXSXSXSXSXSXSXSXSXSXVXVXVXVXVXVXVXVXVXVXVXVXVXVXVXVXVXVXVXjX:X5X",
"SXSXSXSXSXSXSXSXSXSXSXSXSXSXSXSXSXSXSXSXSXSXSXSXSXSXSXSXSXSXSXSXSXSXSXSXSXSXSXMXVXVXVXVXVXVXVXVXVXVXVXVXVXVXVXVXVXVXVXVXjX:X:X2X",
"SXSXSXSXSXSXSXSXSXSXSXSXSXSXSXSXSXSXSXSXSXSXSXSXSXSXSXSXSXSXSXSXSXSXSXSXSXVXVXVXVXVXVXVXVXVXVXVXVXVXVXVXVXVXVXVXVXVXVXjX:X:X:X3X",
"SXSXSXSXSXSXSXSXSXSXSXSXSXSXSXSXSXSXSXSXSXSXSXSXSXSXSXSXSXSXSXSXSXSXSXVXVXVXVXVXVXVXVXVXVXVXVXVXVXVXVXVXVXVXVXVXVXVXjX:X:X:X:X3X",
"SXSXSXSXSXSXSXSXSXSXSXSXSXSXSXSXSXSXSXSXSXSXSXSXSXSXSXSXSXSXSXSXSXMXVXVXVXVXVXVXVXVXVXVXVXVXVXVXVXVXVXVXVXVXVXVXVXjX:X:X:X:X:X3X",
"SXSXSXSXSXSXSXSXSXSXSXSXSXSXSXSXSXSXSXSXSXSXSXSXSXSXSXSXSXSXSXSXVXVXVXVXVXVXVXVXVXVXVXVXVXVXVXVXVXVXVXVXVXVXVXVXjX:X:X:X:X:X:X,X",
"SXSXSXSXSXSXSXSXSXSXSXSXSXSXSXSXSXSXSXSXSXSXSXSXSXSXSXSXSXSXVXVXVXVXVXVXVXVXVXVXVXVXVXVXVXVXVXVXVXVXVXVXVXVXVXjX:X:X:X:X:X:X:X3X",
"SXSXSXSXSXSXSXSXSXSXSXSXSXSXSXSXSXSXSXSXSXSXSXSXSXSXSXSXSXVXVXVXVXVXVXVXVXVXVXVXVXVXVXVXVXVXVXVXVXVXVXVXVXVXjX:X:X:X:X:X:X:X:XwX",
"SXSXSXSXSXSXSXSXSXSXSXSXSXSXSXSXSXSXSXSXSXSXSXSXSXSXSXSXVXVXVXVXVXVXVXVXVXVXVXVXVXVXsX#X$XdXVXVXVXVXVXVXVXjX:X:X:X:X:X:X:X:X:XeX",
"SXSXSXSXSXSXSXSXSXSXSXSXSXSXSXSXSXSXSXSXSXSXSXSXSXSXSXVXVXVXVXVXVXVXVXVXVXVXVX%XH.{ E E E Q q.!.fXVXVXVXjX:X:X:X:X:X:X:X:X:X:X7X",
"SXSXSXSXSXSXSXSXSXSXSXSXSXSXSXSXSXSXSXSXSXSXSXSXSXSXVXVXVXVXVXVXVXVXVXVXVXmXR.^ E E E E E E E E ] |.VXjX:X:X:X:X:X:X:X:X:X:X:XuX",
"SXSXSXSXSXSXSXSXSXSXSXSXSXSXSXSXSXSXSXSXSXSXSXSXVXVXVXVXVXVXVXVXVXVXVXVXvXt.E E E E E E E E E E E ~ F.:X:X:X:X:X:X:X:X:X:X:X:X6X",
"SXSXSXSXSXSXSXSXSXSXSXSXSXSXSXSXSXSXSXSXSXSXSXSXVXVXVXVXVXVXVXVXVXVXVXVXD.E E E E ! ;.0.9.' E E E : X G.:X:X:X:X:X:X:X:X:X:X:XhX",
"SXSXSXSXSXSXSXSXSXSXSXSXSXSXSXSXSXSXSXSXSXSXSXVXVXVXVXVXVXVXVXVXVXVXVX XE E E E 7.M.V.V.V.V.m.` :     # &X:X:X:X:X:X:X:X:X:X:XSX",
"SXSXSXSXSXSXSXSXSXSXSXSXSXSXSXSXSXSXSXSXSXSXBXVXVXVXVXVXVXVXVXVXVXVXVXw.E E E 8.B.V.V.V.V.V.V.l.I       $.:X:X:X:X:X:X:X:X:X3XSX",
"SXSXSXSXSXSXSXSXSXSXSXSXSXj h z z l z z 5.nXVXVXVXVXVXVXVXVXVXVXVXVXpXW E E ) N.V.V.V.V.V.V.z.f.j.      ; :X:X:X:X:X:X:X:X:XrXSX",
"SXSXSXSXSXSXSXSXc z z z z z z z z z z V yXVXVXVXVXVXVXVXVXVXVXVXVXVX`.E E E x.V.V.V.V.V.V.z.f.f.f.P     . oX:X:X:X:X:X:X:X:X0XSX",
"SXSXSXSXSXSXSXz z z z z z z z z z z z .XVXVXVXVXVXVXVXVXVXVXVXVXVXVXW.E E E b.V.V.V.V.V.z.f.f.f.f.u.      _.:X:X:X:X:X:X:X:XSXSX",
"SXSXSXSXSXSXSXz z z z z z z z z z z U.VXVXVXVXVXVXVXVXVXVXVXVXVXVXVXE.E E E n.V.V.V.V.z.f.f.f.f.f.i.      ).:X:X:X:X:X:X:X,XSXSX",
"SXSXSXSXSXSXz z z z z z z z z z z 4.nXVXVXVXVXVXVXVXVXVXVXVXVXVXVXVX(.E E E c.V.V.V.z.f.f.f.f.f.f.Y       }.:X:X:X:X:X:X:X9XSXSX",
"SXSXSXSXSXk z z z z z z z z z z z XXVXVXVXVXVXVXVXVXVXVXVXVXVXVXVXVX@XE E E -.V.V.z.f.f.f.f.f.f.h.@     % :X:X:X:X:X:X:X:XzXSXSX",
"SXSXSXSXSXz z z z z z z z z z z I.VXVXVXVXVXVXVXVXVXVXVXVXVXVXVXVXVXNX[ E E E v.z.f.f.f.f.f.f.f.T       ( :X:X:X:X:X:X:X3XSXSXSX",
"SXSXSXSXz z z z z z z z z z z N aXVXVXVXVXVXVXVXVXVXVXVXVXVXVXVXVXVXVX^.E E E > s.f.f.f.f.f.g.y.      o '.:X:X:X:X:X:X:X8XSXSXSX",
"SXSXSXv z z z z z z z z z z z Y.VXVXVXVXVXVXVXVXVXVXVXVXVXVXVXVXVXVXVXcX@.E :     U a.k.d.p.L         X.:X:X:X:X:X:X:X:XSXSXSXSX",
"SXSXSXz z z z z z z z z z z B bXVXVXVXVXVXVXVXVXVXVXVXVXVXVXVXVXVXVXVXVXpX<                         2 -X:X:X:X:X:X:X:X5XSXSXSXSX",
"SXSXz z z z z z z z z z z z K.VXVXVXVXVXVXVXVXVXVXVXVXVXVXVXVXVXVXVXVXVXjX].;                     / =X:X:X:X:X:X:X:X:XhXSXSXSXSX",
"SXh z z z z z z z z z z z n } ~.VXVXVXVXVXVXVXVXVXVXVXVXVXVXVXVXVXVXVXjX:X:X*X,.$           X , T.:X:X:X:X:X:X:X:X:X4XSXSXSXSXSX",
"SXz z z z z z z z z z z z 2.E W /.VXVXVXVXVXVXVXVXVXVXVXVXVXVXVXVXVXjX:X:X:X:X:X;XQ.e.o.#.r.[.:X:X:X:X:X:X:X:X:X:X:XSXSXSXSXSXSX",
"v z z z z z z z z z z z z =.E E W ~.VXVXVXVXVXVXVXVXVXVXVXVXVXVXVXjX:X:X:X:X:X:X:X:X:X:X:X:X:X:X:X:X:X:X:X:X:X:X:X8XSXSXSXSXSXSX",
"z z z z z z z z z z z z m ^ E E E W ~.VXVXVXVXVXVXVXVXVXVXVXVXVXjX:X:X:X:X:X:X:X:X:X:X:X:X:X:X:X:X:X:X:X:X:X:X:X1XSXSXSXSXSXSXSX",
"l z z z z z z z z z z z 1.E E E E E W /.VXVXVXVXVXVXVXVXVXVXVXjX:X:X:X:X:X:X:X:X:X:X:X:X:X:X:X:X:X:X:X:X:X:X:X:XiXSXSXSXSXSXSXSX",
"SXz z z z z z z z z z z 6.E E E E E E W ~.VXVXVXVXVXVXVXVXVXjX:X:X:X:X:X:X:X:X:X:X:X:X:X:X:X:X:X:X:X:X:X:X:X:X0XSXSXSXSXSXSXSXSX",
"SXSXx z z z z z z z z b _ E E E E E E E W /.VXVXVXVXVXVXVXjX:X:X:X:X:X:X:X:X:X:X:X:X:X:X:X:X:X:X:X:X:X:X:X:X4XSXSXSXSXSXSXSXSXSX",
"SXSXSXSXSXSXSXz z z z 3.E E E E E E E E E W ~.VXVXVXVXVXjX:X:X:X:X:X:X:X:X:X:X:X:X:X:X:X:X:X:X:X:X:X:X:X:X3XSXSXSXSXSXSXSXSXSXSX",
"SXSXSXSXSXSXSXSXSXSXSXC.E E E E E E E E E E W ~.VXVXVXjX:X:X:X:X:X:X:X:X:X:X:X:X:X:X:X:X:X:X:X:X:X:X:X:X1XSXSXSXSXSXSXSXSXSXSXSX",
"SXSXSXSXSXSXSXSXSXSXSXZ.E E E E E E E E E E E W /.VXjX:X:X:X:X:X:X:X:X:X:X:X:X:X:X:X:X:X:X:X:X:X:X:X:X:XlXSXSXSXSXSXSXSXSXSXSXSX",
"SXSXSXSXSXSXSXSXSXSXSXA.E E E E E E E E E E E E W S.:X:X:X:X:X:X:X:X:X:X:X:X:X:X:X:X:X:X:X:X:X:X:X:X:XgXSXSXSXSXSXSXSXSXSXSXSXSX",
"SXSXSXSXSXSXSXSXSXSXSXSX+.E E E E E E E E E E E : X &.:X:X:X:X:X:X:X:X:X:X:X:X:X:X:X:X:X:X:X:X:X:X:XuXSXSXSXSXSXSXSXSXSXSXSXSXSX",
"SXSXSXSXSXSXSXSXSXSXSXSXSX| E E E E E E E E E :     X %.:X:X:X:X:X:X:X:X:X:X:X:X:X:X:X:X:X:X:X:X:XqXSXSXSXSXSXSXSXSXSXSXSXSXSXSX",
"SXSXSXSXSXSXSXSXSXSXSXSXSXSX| E E E E E E E :         X %.:X:X:X:X:X:X:X:X:X:X:X:X:X:X:X:X:X:X1XkXSXSXSXSXSXSXSXSXSXSXSXSXSXSXSX",
"SXSXSXSXSXSXSXSXSXSXSXSXSXSXSXO.E E E E E :             X %.:X:X:X:X:X:X:X:X:X:X:X:X:X:X:X:X,XtXSXSXSXSXSXSXSXSXSXSXSXSXSXSXSXSX",
"SXSXSXSXSXSXSXH H SXSXSXSXSXSXSX| E E E :                 X %.:X:X:X:X:X:X:X:X:X:X:X:X:X:X>XM SXSXSXSXSXSXSXSXSXSXSXSXSXSXSXSXSX",
"SXSXSXSXSXSXH H H D SXSXSXSXSXSXSXO.E :                     X %.:X:X:X:X:X:X:X:X:X:X:X:XOXf r SXSXSXSXSXSXSXSXSXSXSXSXSXSXSXSXSX",
"SXSXSXSXSXH H H H K SXSXSXSXSXSXSXSXR                         X :.:X:X:X:X:X:X:X:X:X,XP.r r r SXSXSXSXSXSXSXSXSXSXSXSXSXSXSXSXSX",
"SXSXSXSXH H H H H SXSXSXSXSXSXSXSXSXSX=                         X %.:X:X:X:X:X:X:X+Xg r r r r SXSXSXSXSXSXSXSXSXSXSXSXSXSXSXSXSX",
"SXSXSXH H H H D SXSXSXSXSXSXSXSXSXSXSXSX=                         X %.:X:X:X:X>XL.r r r r r q SXSXSXSXSXSXSXSXSXSXSXSXSXSXSXSXSX",
"SXSXH H H H D SXSXSXSXSXSXSXSXSXSXSXSXSXSX=                         X %.:X<X{.p r r r r r r w SXSXSXSXSXSXSXSXSXSXSXSXSXSXSXSXSX",
"SXH H H H H SXSXSXSXSXSXH H S SXSXSXSXSXSXSX*                         & J.a r r r r r r r r u SXSXSXSXSXSXSXSXSXSXSXSXSXSXSXSXSX",
"J H H H H SXSXSXSXSXSXH H A 7 Z SXSXSXSXSXSXSX*                 O 1 <.i r r r r r r r r r r q SXSXSXSXSXSXSXSXSXSXSXSXSXSXSXSXSX",
"H H H H SXSXSXSXSXSXH H A 7 8 SXSXSXSXSXSXSXSXSX-         + 3  .d r r r r r r r r r r r r r SXSXSXSXSXSXSXSXSXSXSXSXSXSXSXSXSXSX",
"SXF G SXSXSXSXSXSXH H A 7 8 SXSXSXSXSXSXSXSXSXSXSX>...*.s r r r r r r r r r r r r r r r r r SXSXSXSXSXSXSXSXSXSXSXSXSXSXSXSXSXSX",
"SXSXSXSXSXSXSXSXH H A 7 8 SXSXSXSXSXSXSXSXSXSXSXSXSXSXSXr r r r r r r r r r r r r r r r r r SXSXSXSXSXSXSXSXSXSXSXSXSXSXSXSXSXSX",
"SXSXSXSXSXSXSXH H A 7 8 SXSXSXSXSXSX7 6 SXSXSXSXSXSXSXSXe r r r r r r r r r r r r r r r r r SXSXSXSXSXSXSXSXSXSXSXSXSXSXSXSXSXSX",
"SXSXSXSXSXSXH H A 7 8 SXSXSXSXSXSX7 7 7 7 SXSXSXSXSXSXSXr r r r r r r r r r r r r r r r r r SXSXSXSXSXSXSXSXSXSXSXSXSXSXSXSXSXSX",
"SXSXSXSXSXH H A 7 8 SXSXSXSXSXSX7 7 7 7 7 SXSXSXSXSXSXSXr r r r r r r r r r r r r r r r y SXSXSXSXSXSXSXSXSXSXSXSXSXSXSXSXSXSXSX",
"SXSXSXSXH H A 7 8 SXSXSXSXSXSX7 7 7 7 7 SXSXSXSXSXSXSXSXSXr r r r r r r r r r r r r r SXSXSXSXSXSXSXSXSXSXSXSXSXSXSXSXSXSXSXSXSX",
"SXSXSXH H A 7 8 SXSXSXSXSXSX5 7 7 7 7 SXSXSXSXSXSXSXSXSXSXr r r r r r r r r r r r 0 SXSXSXSXSXSXSXSXSXSXSXSXSXSXSXSXSXSXSXSXSXSX",
"SXSXH H A 7 8 SXSXSXSXSXSX5 7 7 7 7 SXSXSXSXSXSXSXSXSXSXSXr r r r r r r r r r e SXSXSXSXSXSXSXSXSXSXSXSXSXSXSXSXSXSXSXSXSXSXSXSX",
"SXH H A 7 8 SXSXSXSXSXSX7 7 7 7 7 SXSXSXSXSXSXSXSXSXSXSXSXr r r r r r r r r r SXSXSXSXSXSXSXSXSXSXSXSXSXSXSXSXSXSXSXSXSXSXSXSXSX",
"H H A 7 8 SXSXSXSXSXSX7 7 7 7 7 SXSXSXSXSXSXSXSXSXSXSXSXSXr r r r r r r r SXSXSXSXSXSXSXSXSXSXSXSXSXSXSXSXSXSXSXSXSXSXSXSXSXSXSX",
"H A 7 8 SXSXSXSXSXSXSX4 7 7 7 SXSXSXSXSXSXSXSXSXSXSXSXSXSXSXr r r r r t SXSXSXSXSXSXSXSXSXSXSXSXSXSXSXSXSXSXSXSXSXSXSXSXSXSXSXSX",
"SX9 C SXSXSXSXSXSXSXSXSX7 7 SXSXSXSXSXSXSXSXSXSXSXSXSXSXSXSXSXq r q SXSXSXSXSXSXSXSXSXSXSXSXSXSXSXSXSXSXSXSXSXSXSXSXSXSXSXSXSXSX"
};
