/* XPM */
static char *result[] = {
/* columns rows colors chars-per-pixel */
"64 64 190 2 ",
"   c #413D38",
".  c #413D39",
"X  c #413E38",
"o  c #413F38",
"O  c #413E39",
"+  c #413F39",
"@  c #423E38",
"#  c #423E39",
"$  c #413D3A",
"%  c #413E3A",
"&  c #9C4944",
"*  c #B14C47",
"=  c #B34C47",
"-  c #DB4740",
";  c #DB4741",
":  c #DA4742",
">  c #DA4840",
",  c #DA4841",
"<  c #DB4841",
"1  c #DB4941",
"2  c #DB4842",
"3  c #DB4942",
"4  c #DC4841",
"5  c #DC4941",
"6  c #DC4842",
"7  c #DC4942",
"8  c #DD4942",
"9  c #DD4943",
"0  c #DD4A42",
"q  c #DD4A43",
"w  c #DD4B43",
"e  c #DE4A44",
"r  c #DE4A45",
"t  c #DF4C45",
"y  c #DF4C46",
"u  c #DF4D46",
"i  c #DE514B",
"p  c #E04C46",
"a  c #E04D46",
"s  c #E14D47",
"d  c #E04E47",
"f  c #E34E48",
"g  c #E24F48",
"h  c #E24F49",
"j  c #E34F49",
"k  c #E3504A",
"l  c #E3514A",
"z  c #E4504A",
"x  c #E4514A",
"c  c #E5514B",
"v  c #E4524C",
"b  c #E5524C",
"n  c #E5534C",
"m  c #E5524D",
"M  c #E6524C",
"N  c #E6524D",
"B  c #E6534D",
"V  c #E5544D",
"C  c #E7544D",
"Z  c #E7554D",
"A  c #E6544E",
"S  c #E7544E",
"D  c #E7554E",
"F  c #E7554F",
"G  c #E8544E",
"H  c #E8554E",
"J  c #E9554E",
"K  c #E8554F",
"L  c #E9554F",
"P  c #E8564F",
"I  c #E9564F",
"U  c #E85550",
"Y  c #E95550",
"T  c #EA5550",
"R  c #E95650",
"E  c #EA5650",
"W  c #EA5651",
"Q  c #EA5751",
"!  c #EA5851",
"~  c #EB5851",
"^  c #EA5852",
"/  c #EB5852",
"(  c #EB5952",
")  c #EB5853",
"_  c #EB5953",
"`  c #EC5852",
"'  c #EC5952",
"]  c #EC5953",
"[  c #ED5A53",
"{  c #EC5A54",
"}  c #ED5A54",
"|  c #ED5B55",
" . c #EC5C57",
".. c #EC5D58",
"X. c #EC5F59",
"o. c #EC605A",
"O. c #EB615C",
"+. c #EB625E",
"@. c #EB635E",
"#. c #EA6863",
"$. c #E96A67",
"%. c #E96C68",
"&. c #E96E6A",
"*. c #E8716E",
"=. c #E77270",
"-. c #E77674",
";. c #E77775",
":. c #E67776",
">. c #E67978",
",. c #E57D7D",
"<. c #B18C3F",
"1. c #C99C3F",
"2. c #DFA438",
"3. c #DFA439",
"4. c #E0A339",
"5. c #E0A438",
"6. c #E0A439",
"7. c #E1A439",
"8. c #E0A539",
"9. c #E1A539",
"0. c #E1A639",
"q. c #E0A43A",
"w. c #E0A53A",
"e. c #E1A63A",
"r. c #E3A83B",
"t. c #E4A93B",
"y. c #E4A93C",
"u. c #E5AA3C",
"i. c #E6AB3C",
"p. c #E7AD3D",
"a. c #E8AF3E",
"s. c #E9AF3F",
"d. c #E9B03F",
"f. c #EBB23F",
"g. c #ECB53F",
"h. c #CFA140",
"j. c #EBB140",
"k. c #ECB340",
"l. c #EDB440",
"z. c #EDB541",
"x. c #EFB540",
"c. c #EEB541",
"v. c #ECB641",
"b. c #EEB742",
"n. c #EFB742",
"m. c #EFB842",
"M. c #F0B741",
"N. c #F0B842",
"B. c #F0B943",
"V. c #F1BA43",
"C. c #F2BB43",
"Z. c #F0B844",
"A. c #F2BB44",
"S. c #F2BB45",
"D. c #F2BC44",
"F. c #F3BC44",
"G. c #F4BD44",
"H. c #F4BC45",
"J. c #F5BD45",
"K. c #F4BE45",
"L. c #F5BE45",
"P. c #F5BF45",
"I. c #F5C046",
"U. c #F6C046",
"Y. c #DB9294",
"T. c #DF999C",
"R. c #DE9C9F",
"E. c #E48280",
"W. c #E48282",
"Q. c #DC9EA2",
"!. c #DD9FA3",
"~. c #DDA1A5",
"^. c #DCA9AE",
"/. c #DAAFB5",
"(. c #D9B3B9",
"). c #D9B3BA",
"_. c #D7BAC1",
"`. c #D6BCC5",
"'. c #D8B9C0",
"]. c #D6C2CA",
"[. c #D2D1DC",
"{. c #D2D1DD",
"}. c #CFDFEC",
"|. c #D2D5E0",
" X c #D1D7E2",
".X c #D1D8E4",
"XX c #D0D9E5",
"oX c #D0D9E6",
"OX c #D0DDE9",
"+X c None",
/* pixels */
"+X+X+X+X+X+X+X+X+X+X+X+X+X+X+X+X+X+X+X+X+X+X+X+X+X+X+X+X+X+X% # O O O # X @ +X+X+X+X+X+X+X+X+X+X+X+X+X+X+X+X+X+X+X+X+X+X+X+X+X+X",
"+X+X+X+X+X+X+X+X+X+X+X+X+X+X+X+X+X+X+X+X+X+X+X+X+X+X+X$ O O O O O O O O O O O O X +X+X+X+X+X+X+X+X+X+X+X+X+X+X+X+X+X+X+X+X+X+X+X",
"+X+X+X+X+X+X+X+X+X+X+X+X+X+X+X+X+X+X+X+X+X+X+X+X+X+XO O O # $ +X+X+X+X+X+X. O O O O O +X+X+X+X+X+X+X+X+X+X6.+X+X+X+X+X+X+X+X+X+X",
"+X+X+X+X+X+X+X+X+X+X+X+X+X+X+X+X+X+X+X+X+X+X+X+X+XO O O +X+X+X+X+X+X+X+X+X+X+X+X  O O O O +X+X+X+X+X+X+X8.6.+X+X+X+X+X+X+X+X+X+X",
"+X+X+X+X+X+X+X+X+X+X+X+X+X+X+X+X+X+X+X+X+X+X+X+XO O O +X+X+X+X+X+X+X+X+X+X+X+X+X+X+XX O O O +X+X+X+X+X+Xs.6.6.+X+X+X+X+X+X+X+X+X",
"+X+X+X+X+X+X+X+X+X+X+X+X+X+X+X+X+X+X+X+X+X+X+XO O O +X+X+X+X+X+X+X+X+X+X+X+X+X+X+X+X+X+Xo O O +X+X+X+Xz.F.6.6.+X+X+X+X+X+X+X+X+X",
"+X+X+X+X+X+X+X+X+X+X+X+X+X+X+X+X+X+X+X+X+X+X+XO O +X+X+X+X+X+X+X+X+X+X+X+X+X+X+X+X+X+X+X+XO O O @ +X+XV.U.u.6.+X+X+X+X+X+X+X+X+X",
"+X+X+X+X+X+X+X+X+X+X+X+X+X+X+X+X+X+X+X+X+X+X+ O +X+X+X+X+X+X+X+X+X+X+X+X+X+X+X+X+X+X+X+X+X+X+ O O $ +XI.U.c.6.5.+X+X+X+X+X+X+X+X",
"+X+X+X+X+X+X+X+X+X+X+X+X+X+X+X+X+X+X+X+X+X+XO O +X+X+X+X+X+X+X+X+X+X+X+X+X+X+X+X+X+X+X+X+X+X+X+XO O h.U.U.K.e.6.+X+X+X+X+X+X+X+X",
"+X+X+X+X+X+X+X+X+X+X+X+X+X+X+X+X+X+X+X+X+X+XO O +X+X+X+X+X+X+X+X+X+X+X+X+X+X+X+X+X+X+Xg.b.b.b.b.1.<.S.U.U.U.l.a.f.b.b.b.b.j.+X+X",
"+X+X+X+X+X+X+X+X+X+X+X+X+XB B B B B B B B = & * B B B B B M +X+X+X+X+X+X+X+X+X+X+X+X+X+XP.U.U.U.U.U.U.U.U.U.U.U.U.U.U.U.N.0.4.+X",
"+X+X+X+X+X+X+X+X+X+X+X+X+X} } } } } } } } } } } } } } } } ^ < < < < +X+X+X+X+X+X+X+X+X+X+XG.U.U.U.U.U.U.U.U.U.U.U.U.U.c.9.6.+X+X",
"+X+X+X+X+X+X+X+X+X+X+X+X+X} } } } } } } } } } } } } } } } ^ < < < < +X+X+X+X+X+X+X+X+X+X+X+XA.U.U.U.U.U.U.U.U.U.U.U.d.6.2.+X+X+X",
"+X+X+X+X+X+X+X+X+X+X+X+X+X} } } } } } } } } } } } } } } } ^ < < < < +X+X+X+X+X+X+X+X+X+X+X+X+XZ.U.U.U.U.U.U.U.U.L.i.4.+X+X+X+X+X",
"+X+X+X+X+X+X+X+X+X+X+X+X+X} } } } } } } } } } } } } } } } ^ < < < < +X+X+X+X+X+X+X+X+X+X+X+X+X+XM.U.U.U.U.U.U.D.r.6.+X+X+X+X+X+X",
"+X+X+X+X+X+X+X+X+X+X+X+X+X} } } } } } } } } } } } } } } } ^ < < < < +X+X+X+X+X+X+X+X+X+X+X+X+X+X+XU.U.U.U.U.U.n.6.3.+X+X+X+X+X+X",
"+X+X+X+X+X+X+X+X+X+X+X+X+X} } } } } } } } } } } } } } } } ^ < < < < +X+X+X+X+X+X+X+X+X+X+X+X+X+Xb.U.U.U.U.U.U.P.e.6.+X+X+X+X+X+X",
"+X+X+X+X+X+X+X+X+X+X+X+X+X} } } } } } } } } } } } } } } } ^ < < < < +X+X+X+X+X+X+X+X+X+X+X+X+X+XH.U.U.U.U.U.U.U.d.6.7.+X+X+X+X+X",
"+X+X+X+X+X+X+X+X+X+X+X+X+X} } } } } } } } } } } } } } } } ^ < < < < +X+X+X+X+X+X+X+X+X+X+X+X+X+XU.U.U.U.U.U.U.U.C.6.6.+X+X+X+X+X",
"+X+X+X+X+X+X+X+X+X+X+X+Xv } } } } } } } } } } } } } } } } ` 8 < < < +X+X+X+X+X+X+X+X+X+X+X+X+XN.U.U.c.a.m.v.F.U.U.y.6.+X+X+X+X+X",
"+X+X+X+X+X+X+X+X+X+X+XH } } } } } } } } } } } } } } } } } } _ k < < < 4 +X+X+X+X+X+X+X+X+X+X+XK.B.t.4.+X+X+X+Xb.J.k.6.8.+X+X+X+X",
"+X+X+X+X+X+X+X+X+X+X] } } } } } } } } } } } } } } } } } } } } } R q < < < +X+X+X+X+X+X+X+X+Xf.p.q.+X+X+X+X+X+X+X+Xx.w.6.+X+X+X+X",
"+X+X+X+X+X+X+X+XC [ } } } } } } } } } } } } } } } } } } } } } } } ( u < < < +X+X+X+X+X+X+X+X4.2.+X+X+X+X+X+X+X+X+X+X+X6.+X+X+X+X",
"+X+X+X+X+X+X+XI } } } } } } } } } } } } } } } } } } } } | ,.R.T.-.} { d < < < - +X+X+X+X+X+X+X+X+X+X+X+X+X+X+X+X+X+X+X+X+X+X+X+X",
"+X+X+X+X+X+XD } } } } } } } } } } } } } } } } } } } } +.`.}.}.}.}./. .{ s < < < : +X+X+X+X+X+X+X+X+X+X+X+X+X+X+X+X+X+X+X+X+X+X+X",
"+X+X+X+X+XZ } } } } } } } } } } } } } } } } } } } } } ).}.}.}.}.}.}.~.} [ t < < < +X+X+X+X+X+X+X+X+X+X+X+X+X+X+X+X+X+X+X+X+X+X+X",
"+X+X+X+X+X} } } } } } } } } } } } } } } } } } } } } %.}.}.}.}.}.}.}.oXX.} ~ 8 < < < +X+X+X+X+X+X+X+X+X+X+X+X+X+X+X+X+X+X+X+X+X+X",
"+X+X+X+X] } } } } } } } } } } } } } } } } } } } } } W.}.}.}.}.}.}.}.}.*.} } S < < < < +X+X+X+X+X+X+X+X+X+X+X+X+X+X+X+X+X+X+X+X+X",
"+X+X+XF } } } } } } } } } } } } } } } } } } } } } } >.}.}.}.}.}.}.}.}.#.} } } d < < < < +X+X+X+X+X+X+X+X+X+X+X+X+X+X+X+X+X+X+X+X",
"+X+X+X[ } } } } } } } } } } } } } } } } } } } } } } ..{.}.}.}.}.}.}.].} } } } Q 4 < < < +X+X+X+X+X+X+X+X+X+X+X+X+X+X+X+X+X+X+X+X",
"+X+XY } } } } } } } } } } } } } } } } } } } } } } } } E.OX}.}.}.}..X=.} } } } } g < < < 4 +X+X+X+X+X+X+X+X+X+X+X+X+X+X+X+X+X+X+X",
"+X+X} } } } } } } } } } } } } } } } } } } } } } } } } } :._.oX X(.&.} } } } } } Q < < < < +X+X+X+X+X+X+X+X+X+X+X+X+X+X+X+X+X+X+X",
"+XH } } } } } } } } } } } } } } } } } } } } } } } } } } } } } } } } } } } @.'.XX).i < < < +X+X+X+X+X+X+X+X+X+X+X+X+X+X+X+X+X+X+X",
"+X/ } } } } } } } } } } } } } } } } } } } } } } } } } } } } } } } } } } } !.}.}.}.Y.< < < 1 +X+X+X+X+X+X+X+X+X+X+X+X+X+X+X+X+X+X",
"+X} } } } } } } } } } } } } } } } } } } } } } } } } } } } } } } } } } } } ^.}.}.}.Q.< < < < +X+X+X+X+X+X+X+X+X+X+X+X+X+X+X+X+X+X",
"B } } } } } } } } } } } } } } } } } } } } } } } } } } } } } } } } } } } } *.|.}.[.$.0 < < < +X+X+X+X+X+X+X+X+X+X+X+X+X+X+X+X+X+X",
"J } } } } } } } } } } } } } } } } } } } } } } } } } } } } } } } } } } } } } O.;.o.} a < < < > +X+X+X+X+X+X+X+X+X+X+X+X+X+X+X+X+X",
"Q } } } } } } } } } } } } } } } } } } } } } } } } } } } } } } } } } } } } } } } } } k < < < - +X+X+X+X+X+X+X+X+X+X+X+X+X+X+X+X+X",
"( } } } } } } } } } } } } } } } } } } } } } } } } } } } } } } } } } } } } } } } } } c < < < < +X+X+X+X+X+X+X+X+X+X+X+X+X+X+X+X+X",
"` } } } } } } } } } } } } } } } } } } } } } } } } } } } } } } } } } } } } } } } } } m < < < < +X+X+X+X+X+X+X+X+X+X+X+X+X+X+X+X+X",
"{ } } } } } } } } } } } } } } } } } } } } } } } } } } } } } } } } } } } } } } } } } A < < < < +X+X+X+X+X+X+X+X+X+X+X+X+X+X+X+X+X",
"] } } } } } } } } } } } } } } } } } } } } } } } } } } } } } } } } } } } } } } } } } B < < < 1 +X+X+X+X+X+X+X+X+X+X+X+X+X+X+X+X+X",
"] } } } } } } } } } } } } } } } } } } } } } } } } } } } } } } } } } } } } } } } } } b < < < < +X+X+X+X+X+X+X+X+X+X+X+X+X+X+X+X+X",
"Q } } } } } } } } } } } } } } } } } } } } } } } } } } } } } } } } } } } } } } } } } l < < < < +X+X+X+X+X+X+X+X+X+X+X+X+X+X+X+X+X",
"U } } } } } } } } } } } } } } } } } } } } } } } } } } } } } } } } } } } } } } } } } d < < < 4 +X+X+X+X+X+X+X+X+X+X+X+X+X+X+X+X+X",
"Z } } } } } } } } } } } } } } } } } } } } } } } } } } } } } } } } } } } } } } } } } w < < < +X+X+X+X+X+X+X+X+X+X+X+X+X+X+X+X+X+X",
"+X} } } } } } } } } } } } } } } } } } } } } } } } } } } } } } } } } } } } } } } } Q < < < < +X+X+X+X+X+X+X+X+X+X+X+X+X+X+X+X+X+X",
"+X( } } } } } } } } } } } } } } } } } } } } } } } } } } } } } } } } } } } } } } } m < < < < +X+X+X+X+X+X+X+X+X+X+X+X+X+X+X+X+X+X",
"+XG } } } } } } } } } } } } } } } } } } } } } } } } } } } } } } } } } } } } } } } p < < < ; +X+X+X+X+X+X+X+X+X+X+X+X+X+X+X+X+X+X",
"+X+X} } } } } } } } } } } } } } } } } } } } } } } } } } } } } } } } } } } } } } ! < < < < +X+X+X+X+X+X+X+X+X+X+X+X+X+X+X+X+X+X+X",
"+X+XW } } } } } } } } } } } } } } } } } } } } } } } } } } } } } } } } } } } } } j < < < 4 +X+X+X+X+X+X+X+X+X+X+X+X+X+X+X+X+X+X+X",
"+X+X+X} } } } } } } } } } } } } } } } } } } } } } } } } } } } } } } } } } } } ~ 2 < < < +X+X+X+X+X+X+X+X+X+X+X+X+X+X+X+X+X+X+X+X",
"+X+X+XI } } } } } } } } } } } } } } } } } } } } } } } } } } } } } } } } } } } g < < < ; +X+X+X+X+X+X+X+X+X+X+X+X+X+X+X+X+X+X+X+X",
"+X+X+X+X' } } } } } } } } } } } } } } } } } } } } } } } } } } } } } } } } } K < < < < +X+X+X+X+X+X+X+X+X+X+X+X+X+X+X+X+X+X+X+X+X",
"+X+X+X+XV } } } } } } } } } } } } } } } } } } } } } } } } } } } } } } } } ) q < < < +X+X+X+X+X+X+X+X+X+X+X+X+X+X+X+X+X+X+X+X+X+X",
"+X+X+X+X+XH } } } } } } } } } } } } } } } } } } } } } } } } } } } } } } ] y < < < 5 +X+X+X+X+X+X+X+X+X+X+X+X+X+X+X+X+X+X+X+X+X+X",
"+X+X+X+X+X+XE } } } } } } } } } } } } } } } } } } } } } } } } } } } } } h < < < 2 +X+X+X+X+X+X+X+X+X+X+X+X+X+X+X+X+X+X+X+X+X+X+X",
"+X+X+X+X+X+X+XY } } } } } } } } } } } } } } } } } } } } } } } } } } } g < < < , +X+X+X+X+X+X+X+X+X+X+X+X+X+X+X+X+X+X+X+X+X+X+X+X",
"+X+X+X+X+X+X+X+XA } } } } } } } } } } } } } } } } } } } } } } } } ] d < < < : +X+X+X+X+X+X+X+X+X+X+X+X+X+X+X+X+X+X+X+X+X+X+X+X+X",
"+X+X+X+X+X+X+X+X+XN ] } } } } } } } } } } } } } } } } } } } } } W r < < < +X+X+X+X+X+X+X+X+X+X+X+X+X+X+X+X+X+X+X+X+X+X+X+X+X+X+X",
"+X+X+X+X+X+X+X+X+X+X+XT } } } } } } } } } } } } } } } } } } ] x 7 < < 3 +X+X+X+X+X+X+X+X+X+X+X+X+X+X+X+X+X+X+X+X+X+X+X+X+X+X+X+X",
"+X+X+X+X+X+X+X+X+X+X+X+X+XE } } } } } } } } } } } } } } [ n q < < - +X+X+X+X+X+X+X+X+X+X+X+X+X+X+X+X+X+X+X+X+X+X+X+X+X+X+X+X+X+X",
"+X+X+X+X+X+X+X+X+X+X+X+X+X+X+XK ' } } } } } } } } } W z 9 < < < +X+X+X+X+X+X+X+X+X+X+X+X+X+X+X+X+X+X+X+X+X+X+X+X+X+X+X+X+X+X+X+X",
"+X+X+X+X+X+X+X+X+X+X+X+X+X+X+X+X+X+XD P Q ~ L M f e < 6 +X+X+X+X+X+X+X+X+X+X+X+X+X+X+X+X+X+X+X+X+X+X+X+X+X+X+X+X+X+X+X+X+X+X+X+X"
};
