/* XPM */
static char *result[] = {
/* columns rows colors chars-per-pixel */
"64 64 114 2 ",
"   c #6D5B5F",
".  c #725D5C",
"X  c #6D615F",
"o  c #72655C",
"O  c #5D5569",
"+  c #5C546A",
"@  c #5D556A",
"#  c #E9001D",
"$  c #EA001D",
"%  c #E8001E",
"&  c #E9001E",
"*  c #E9011E",
"=  c #EA001E",
"-  c #EA001F",
";  c #E9031E",
":  c #EA021E",
">  c #EA041E",
",  c #EA051E",
"<  c #ED141C",
"1  c #EE151C",
"2  c #ED2218",
"3  c #ED2418",
"4  c #F43817",
"5  c #F43E15",
"6  c #B47731",
"7  c #F55F0D",
"8  c #F24213",
"9  c #F24413",
"0  c #F44015",
"q  c #F54914",
"w  c #FF4F18",
"e  c #FF4E19",
"r  c #FF4F19",
"t  c #FF4F1A",
"y  c #F75512",
"u  c #FF5717",
"i  c #F85E11",
"p  c #FF5C16",
"a  c #FF5D16",
"s  c #FF5019",
"d  c #FF5218",
"f  c #FF5418",
"g  c #F5600D",
"h  c #F8750A",
"j  c #FF6312",
"k  c #FF6615",
"l  c #FF6A14",
"z  c #FF6B14",
"x  c #FF7312",
"c  c #FF7512",
"v  c #FF7910",
"b  c #FF7A11",
"n  c #8E6849",
"m  c #8E7B49",
"M  c #B49831",
"N  c #D88619",
"B  c #FA8606",
"V  c #FB8C05",
"C  c #FF820F",
"Z  c #FF880E",
"A  c #FF890E",
"S  c #FF8C0D",
"D  c #FC9203",
"F  c #FF9600",
"G  c #FF9700",
"H  c #F89305",
"J  c #FF9800",
"K  c #FF9A00",
"L  c #FF9B00",
"P  c #FE9A01",
"I  c #FE9902",
"U  c #FF9C00",
"Y  c #FF9D00",
"T  c #FF9E00",
"R  c #FF970B",
"E  c #FF9D0A",
"W  c #FF8010",
"Q  c #D8B419",
"!  c #FFA100",
"~  c #FEA001",
"^  c #FFA200",
"/  c #FFA400",
"(  c #FFA600",
")  c #FFA700",
"_  c #FFA800",
"`  c #FFAA00",
"'  c #FFAB00",
"]  c #FFAC00",
"[  c #FFAD00",
"{  c #FFAF00",
"}  c #FFA509",
"|  c #FFB406",
" . c #FFBC04",
".. c #FFC103",
"X. c #FFC303",
"o. c #FFCD01",
"O. c #F8CD05",
"+. c #FFD000",
"@. c #FFD100",
"#. c #FFD200",
"$. c #FFD300",
"%. c #5A738C",
"&. c #70788C",
"*. c #5894B0",
"=. c #56B1D0",
"-. c #54CEF0",
";. c #53DBFE",
":. c #53DCFF",
">. c #859FB0",
",. c #98C2D0",
"<. c #AAE4F0",
"1. c #B2F3FE",
"2. c #B3F4FF",
"3. c None",
/* pixels */
"3.3.3.3.3.3.3.3.3.3.3.3.3.3.3.r t 3.3.3.3.3.3.3.3.3.3.3.3.3.3.r r 3.3.3.3.3.3.3.3.3.3.3.3.3.3.= & 3.3.3.3.3.3.3.3.3.3.3.3.3.3.3.",
"3.3.3.3.3.3.3.3.3.3.3.3.3.3.3.r r w 3.3.3.3.3.3.3.3.3.3.3.3.3.r r 3.3.3.3.3.3.3.3.3.3.3.3.3.& & & 3.3.3.3.3.3.3.3.3.3.3.3.3.3.3.",
"3.3.3.3.3.3.3.3.3.3.3.3.3.3.3.r r r r 3.3.3.3.3.3.3.3.3.3.3.3.r r 3.3.3.3.3.3.3.3.3.3.3.3.- & & & 3.3.3.3.3.3.3.3.3.3.3.3.3.3.3.",
"3.3.3.3.3.3.3.3.3.3.3.3.3.3.3.r r r r 3.3.3.3.3.3.3.3.3.3.3.3.r r 3.3.3.3.3.3.3.3.3.3.3.3.& & & & 3.3.3.3.3.3.3.3.3.3.3.3.3.3.3.",
"3.3.3.3.3.3.3.3.3.3.3.3.3.3.3.r r r r r 3.3.3.3.3.3.3.3.3.3.3.r r 3.3.3.3.3.3.3.3.3.3.3.& & & & & 3.3.3.3.3.3.3.3.3.3.3.3.3.3.3.",
"3.3.3.3.3.3.3.3.3.3.3.3.3.3.3.r r r r r r 3.3.3.3.3.3.3.3.3.3.r r 3.3.3.3.3.3.3.3.3.3.# & & & & & 3.3.3.3.3.3.3.3.3.3.3.3.3.3.3.",
"3.3.3.3.3.3.3.3.3.3.3.3.3.3.3.r r r r r r e 3.3.3.3.3.3.3.3.3.r r 3.3.3.3.3.3.3.3.3.& & & & & & & 3.3.3.3.3.3.3.3.3.3.3.3.3.3.3.",
"3.3.3.3.3.3.3.3.3.3.3.3.3.3.3.r r r r r r r e 3.3.3.#.#.#.#.#.r r F F F U ) 3.3.3.& & & & & & & & 3.3.3.3.3.3.3.3.3.3.3.3.3.3.3.",
"3.3.3.3.3.3.3.3.3.3.3.3.3.3.3.r r r r r r r r 3.3.#.#.#.#.#.#.r r F F F F F U 3.3.& & & & & & & & 3.3.3.3.3.3.3.3.3.3.3.3.3.3.3.",
"3.3.3.3.3.3.3.3.3.3.3.3.3.3.3.r r r r r r r r r  .#.#.#.#.#.#.r r F F F F F F ~ & & & & & & & & & 3.3.3.3.3.3.3.3.3.3.3.3.3.3.3.",
"3.3.3.3.3.3.3.3.3.3.3.3.3.3.3.r r r r r r r r r ..#.#.#.#.#.#.r r F F F F F F P & & & & & & & & & 3.3.3.3.3.3.3.3.3.3.3.3.3.3.3.",
"3.3.3.3.3.3.3.3.3.3.3.3.3.3.3.r r r r r r r r s +.#.#.#.#.#.#.r r F F F F F F G ; & & & & & & & & 3.3.3.3.3.3.3.3.3.3.3.3.3.3.3.",
"3.3.3.3.3.3.3.3.3.3.3.3.3.3.3.r r r r r r r r p #.#.#.#.#.#.#.r r F F F F F F F 2 & & & & & & & = 3.3.3.3.3.3.3.3.3.3.3.3.3.3.3.",
"3.3.3.3.3.3.3.3.3.3.3.3.3.3.3.r r r r r r r r z #.#.#.#.#.#.#.r r F F F F F F F 8 & & & & & & & $ 3.3.3.3.3.3.3.3.3.3.3.3.3.3.3.",
"3.3.3.3.3.3.3.3.3.3.3.3.3.3.3.t r r r r r r r b #.#.#.#.#.#.#.r r F F F F F F F 7 & & & & & & & & 3.3.3.3.3.3.3.3.3.3.3.3.3.3.3.",
"3.3.3.3.3.3.3.3.3.3.3.3.3.3.3.3.r r r r r r r Z #.#.#.#.#.#.#.r r F F F F F F F h & & & & & & & 3.3.3.3.3.3.3.3.3.3.3.3.3.3.3.3.",
"3.3.3.3.3.3.3.3.3.3.3.3.3.3.3.3.w r r r r r r R #.#.#.#.#.#.#.r r F F F F F F F B & & & & & & % 3.3.3.3.3.3.3.3.3.3.3.3.3.3.3.3.",
"3.3.3.3.3.3.3.3.3.3.3.3.3.3.3.3.3.w r r r r r } #.#.#.#.#.#.#.r r F F F F F F F D & & & & & & 3.3.3.3.3.3.3.3.3.3.3.3.3.3.3.3.3.",
"3.3.3.3.3.3.3.3.3.3.3.3.3.3.3.3.3.3.r r r r r | #.#.#.#.#.#.#.r r F F F F F F F I & & & & & 3.3.3.3.3.3.3.3.3.3.3.3.3.3.3.3.3.3.",
"3.3.3.3.3.3.3.3.3.3.3.3.3.3.3.3.3.3.s r r r r X.#.#.#.#.#.#.#.r r F F F F F F F K & & & & # 3.3.3.3.3.3.3.3.3.3.3.3.3.3.3.3.3.3.",
"3.3.3.3.3.3.3.3.3.3.3.3.3.3.3.3.3.3.3.t r r s +.#.#.#.#.#.#.#.r r F F F F F F F G ; & & & 3.3.3.3.3.3.3.3.3.3.3.3.3.3.3.3.3.3.3.",
"3.3.3.3.3.3.3.3.3.3.3.3.3.3.3.3.3.3.3.3.r r a #.#.#.#.#.#.#.#.r r F F F F F F F F 3 & & 3.3.3.3.3.3.3.3.3.3.3.3.3.3.3.3.3.3.3.3.",
"3.3.3.3.3.3.3.3.3.3.3.3.3.3.3.3.3.3.3.3.r r z #.#.#.#.#.#.#.#.r r F F F F F F F F 9 & & 3.3.3.3.3.3.3.3.3.3.3.3.3.3.3.3.3.3.3.3.",
"3.3.3.3.3.3.3.3.3.3.3.3.3.3.3.3.3.3.3.3.3.r b #.#.#.#.#.#.#.#.r r F F F F F F F F g & 3.3.3.3.3.3.3.3.3.3.3.3.3.3.3.3.3.3.3.3.3.",
"3.3.3.3.3.3.3.3.3.3.3.3.3.3.3.3.3.3.3.3.3.3.A #.#.#.#.#.#.#.#.r r F F F F F F F F h 3.3.3.3.3.3.3.3.3.3.3.3.3.3.3.3.3.3.3.3.3.3.",
"3.3.3.3.3.3.3.3.3.3.3.3.3.3.3.3.3.3.3.3.3.3.E #.#.#.#.#.#.#.#.x j F F F F F F F F V 3.3.3.3.3.3.3.3.3.3.3.3.3.3.3.3.3.3.3.3.3.3.",
"3.3.3.3.3.3.3.3.3.3.3.3.3.3.3.3.3.3.3.3.3.3.o.#.#.#.#.#.#.#.#.#.F F F F F F F F F / 3.3.3.3.3.3.3.3.3.3.3.3.3.3.3.3.3.3.3.3.3.3.",
"3.3.3.3.3.3.3.3.3.3.3.3.3.3.3.3.3.3.3.3.3.3.#.#.#.#.#.#.#.#.#.#.F F F F F F F F F ! 3.3.3.3.3.3.3.3.3.3.3.3.3.3.3.3.3.3.3.3.3.3.",
"3.3.3.3.3.3.3.3.3.3.3.3.3.3.3.3.3.3.3.3.3.3.#.#.#.#.#.#.#.#.#.#.F F F F F F F F F U 3.3.3.3.3.3.3.3.3.3.3.3.3.3.3.3.3.3.3.3.3.3.",
"3.3.3.3.3.3.3.3.3.3.3.3.3.3.3.3.3.3.3.3.3.3.#.#.#.#.#.#.#.#.#.#.F F F F F F F F F G 3.3.3.3.3.3.3.3.3.3.3.3.3.3.3.3.3.3.3.3.3.3.",
"3.3.3.3.3.3.3.3.3.3.3.3.3.3.3.3.3.3.3.3.3.3.#.#.#.#.#.#.#.#.#.#.F F F F F F F F F F 3.3.3.3.3.3.3.3.3.3.3.3.3.3.3.3.3.3.3.3.3.3.",
"3.3.3.3.3.3.3.3.3.3.3.3.3.3.3.3.3.3.3.3.3.3.#.#.#.#.#.#.#.#.#.#.F F F F F F F F F F 3.3.3.3.3.3.3.3.3.3.3.3.3.3.3.3.3.3.3.3.3.3.",
"3.3.3.3.3.3.3.3.3.3.3.3.3.3.3.3.3.3.3.3.3.3.#.#.#.#.#.#.#.#.#.#.F F F F F F F F F F 3.3.3.3.3.3.3.3.3.3.3.3.3.3.3.3.3.3.3.3.3.3.",
"3.3.3.3.3.3.3.3.3.3.3.3.3.3.3.3.3.3.3.3.3.3.#.#.#.#.#.#.#.#.#.#.F F F F F F F F F F [ 3.3.3.3.3.3.3.3.3.3.3.3.3.3.3.3.3.3.3.3.3.",
"3.3.3.3.3.3.3.3.3.3.3.3.3.3.3.3.3.3.3.3.3.3.#.#.#.#.#.#.#.#.#.#.F F F F F F F F F F [ 3.3.3.3.3.3.3.3.3.3.3.3.3.3.3.3.3.3.3.3.3.",
"3.3.3.3.3.3.3.3.3.3.3.3.3.3.3.3.3.3.3.3.3.3.#.#.#.#.#.#.#.#.#.#.F F F F F F F F F F ' 3.3.3.3.3.3.3.3.3.3.3.3.3.3.3.3.3.3.3.3.3.",
"3.3.3.3.3.3.3.3.3.3.3.3.3.3.3.3.3.3.3.3.3.@.#.#.#.#.#.#.O.M m X   n 6 H F F F F F F ` 3.3.3.3.3.3.3.3.3.3.3.3.3.3.3.3.3.3.3.3.3.",
"3.3.3.3.3.3.3.3.3.3.3.3.3.3.3.3.3.3.3.3.3.@.#.#.#.#.#.Q o + + + + + + . N F F F F F _ 3.3.3.3.3.3.3.3.3.3.3.3.3.3.3.3.3.3.3.3.3.",
"3.3.3.3.3.3.3.3.3.3.3.3.3.3.3.3.3.3.3.3.3.@.#.#.#.#.Q @ + &.,.<.-.=.%.+ O N F F F F ( 3.3.3.3.3.3.3.3.3.3.3.3.3.3.3.3.3.3.3.3.3.",
"3.3.3.3.3.3.3.3.3.3.3.3.3.3.3.3.3.3.3.3.3.@.#.#.#.O.o + >.1.2.2.:.:.;.*.+ . H F F F / 3.3.3.3.3.3.3.3.3.3.3.3.3.3.3.3.3.3.3.3.3.",
"3.3.3.3.3.3.3.3.3.3.3.3.3.3.3.3.3.3.3.3.3.@.#.#.#.M + &.1.2.2.2.:.:.:.;.%.+ 6 F F F ^ 3.3.3.3.3.3.3.3.3.3.3.3.3.3.3.3.3.3.3.3.3.",
"3.3.3.3.3.3.3.3.3.3.3.3.3.3.3.3.3.3.3.3.3.#.#.#.#.m + ,.2.2.2.2.:.:.:.:.=.+ n F F F T 3.3.3.3.3.3.3.3.3.3.3.3.3.3.3.3.3.3.3.3.3.",
"3.3.3.3.3.3.3.3.3.3.3.3.3.3.3.3.3.3.3.3.3.#.#.#.#.X + <.2.2.2.2.:.:.:.:.-.+   F F F L 3.3.3.3.3.3.3.3.3.3.3.3.3.3.3.3.3.3.3.3.3.",
"3.3.3.3.3.3.3.3.3.3.3.3.3.3.3.3.3.3.3.3.3.#.#.#.#.X + <.2.2.2.2.:.:.:.:.-.+   F F F J 3.3.3.3.3.3.3.3.3.3.3.3.3.3.3.3.3.3.3.3.3.",
"3.3.3.3.3.3.3.3.3.3.3.3.3.3.3.3.3.3.3.3.3.#.#.#.#.m + ,.2.2.2.2.:.:.:.:.=.+ n F F F J 3.3.3.3.3.3.3.3.3.3.3.3.3.3.3.3.3.3.3.3.3.",
"3.3.3.3.3.3.3.3.3.3.3.3.3.3.3.3.3.3.3.3.3.#.#.#.#.M + &.1.2.2.2.:.:.:.;.%.+ 6 F F F Y 3.3.3.3.3.3.3.3.3.3.3.3.3.3.3.3.3.3.3.3.3.",
"3.3.3.3.3.3.3.3.3.3.3.3.3.3.3.3.3.3.3.3.3.@.#.#.#.O.o + >.1.2.2.:.:.;.*.+ . H F F F ^ 3.3.3.3.3.3.3.3.3.3.3.3.3.3.3.3.3.3.3.3.3.",
"3.3.3.3.3.3.3.3.3.3.3.3.3.3.3.3.3.3.3.3.3.$.#.#.#.#.Q @ + &.,.<.-.=.%.+ O N F F F F / 3.3.3.3.3.3.3.3.3.3.3.3.3.3.3.3.3.3.3.3.3.",
"3.3.3.3.3.3.3.3.3.3.3.3.3.3.3.3.3.3.3.3.3.#.#.#.#.#.#.Q o + + + + + + . N F F F F F _ 3.3.3.3.3.3.3.3.3.3.3.3.3.3.3.3.3.3.3.3.3.",
"3.3.3.3.3.3.3.3.3.3.3.3.3.3.3.3.3.3.3.3.3.3.#.#.#.#.#.#.O.M m X   n 6 H F F F F F F { 3.3.3.3.3.3.3.3.3.3.3.3.3.3.3.3.3.3.3.3.3.",
"3.3.3.3.3.3.3.3.3.3.3.3.3.3.3.3.3.3.3.3.3.3.#.#.#.#.#.#.#.#.#.#.F F F F F F F F F G 3.3.3.3.3.3.3.3.3.3.3.3.3.3.3.3.3.3.3.3.3.3.",
"3.3.3.3.3.3.3.3.3.3.3.3.3.3.3.3.3.3.3.3.3.3.#.#.#.#.#.#.#.#.#.#.F F F F F F F F F ^ 3.3.3.3.3.3.3.3.3.3.3.3.3.3.3.3.3.3.3.3.3.3.",
"3.3.3.3.3.3.3.3.3.3.3.3.3.3.3.3.3.3.3.3.3.3.3.#.#.#.#.#.#.#.#.#.F F F F F F F F F ] 3.3.3.3.3.3.3.3.3.3.3.3.3.3.3.3.3.3.3.3.3.3.",
"3.3.3.3.3.3.3.3.3.3.3.3.3.3.3.3.3.3.3.3.3.3.3.#.#.#.#.#.#.#.#.#.F F F F F F F F J 3.3.3.3.3.3.3.3.3.3.3.3.3.3.3.3.3.3.3.3.3.3.3.",
"3.3.3.3.3.3.3.3.3.3.3.3.3.3.3.3.3.3.3.3.3.3.3.@.#.#.#.#.#.#.#.#.F F F F F F F F _ 3.3.3.3.3.3.3.3.3.3.3.3.3.3.3.3.3.3.3.3.3.3.3.",
"3.3.3.3.3.3.3.3.3.3.3.3.3.3.3.3.3.3.3.3.3.3.3.3.f r r r r r r r & & & & & & & > 3.3.3.3.3.3.3.3.3.3.3.3.3.3.3.3.3.3.3.3.3.3.3.3.",
"3.3.3.3.3.3.3.3.3.3.3.3.3.3.3.3.3.3.3.3.3.3.3.3.C r r r r r r r & & & & & & & 0 3.3.3.3.3.3.3.3.3.3.3.3.3.3.3.3.3.3.3.3.3.3.3.3.",
"3.3.3.3.3.3.3.3.3.3.3.3.3.3.3.3.3.3.3.3.3.3.3.3.3.k r r r r r r & & & & & & < 3.3.3.3.3.3.3.3.3.3.3.3.3.3.3.3.3.3.3.3.3.3.3.3.3.",
"3.3.3.3.3.3.3.3.3.3.3.3.3.3.3.3.3.3.3.3.3.3.3.3.3.3.d r r r r r & & & & & : i 3.3.3.3.3.3.3.3.3.3.3.3.3.3.3.3.3.3.3.3.3.3.3.3.3.",
"3.3.3.3.3.3.3.3.3.3.3.3.3.3.3.3.3.3.3.3.3.3.3.3.3.3.W s r r r r & & & & * q 3.3.3.3.3.3.3.3.3.3.3.3.3.3.3.3.3.3.3.3.3.3.3.3.3.3.",
"3.3.3.3.3.3.3.3.3.3.3.3.3.3.3.3.3.3.3.3.3.3.3.3.3.3.3.v r r r r & & & & 5 3.3.3.3.3.3.3.3.3.3.3.3.3.3.3.3.3.3.3.3.3.3.3.3.3.3.3.",
"3.3.3.3.3.3.3.3.3.3.3.3.3.3.3.3.3.3.3.3.3.3.3.3.3.3.3.3.c s r r & & & 4 3.3.3.3.3.3.3.3.3.3.3.3.3.3.3.3.3.3.3.3.3.3.3.3.3.3.3.3.",
"3.3.3.3.3.3.3.3.3.3.3.3.3.3.3.3.3.3.3.3.3.3.3.3.3.3.3.3.3.S u r & , y 3.3.3.3.3.3.3.3.3.3.3.3.3.3.3.3.3.3.3.3.3.3.3.3.3.3.3.3.3.",
"3.3.3.3.3.3.3.3.3.3.3.3.3.3.3.3.3.3.3.3.3.3.3.3.3.3.3.3.3.3.3.l 1 3.3.3.3.3.3.3.3.3.3.3.3.3.3.3.3.3.3.3.3.3.3.3.3.3.3.3.3.3.3.3."
};
