/* XPM */
static char *result[] = {
/* columns rows colors chars-per-pixel */
"64 64 114 2 ",
"   c #6D5B5F",
".  c #725D5C",
"X  c #6D615F",
"o  c #72655C",
"O  c #5D5569",
"+  c #5C546A",
"@  c #5D556A",
"#  c #E9001D",
"$  c #EA001D",
"%  c #E8001E",
"&  c #E9001E",
"*  c #E9011E",
"=  c #EA001E",
"-  c #EA001F",
";  c #E9031E",
":  c #EA021E",
">  c #EA041E",
",  c #EA051E",
"<  c #ED141C",
"1  c #EE151C",
"2  c #ED2218",
"3  c #ED2418",
"4  c #F43817",
"5  c #F43E15",
"6  c #B47731",
"7  c #F55F0D",
"8  c #F24213",
"9  c #F24413",
"0  c #F44015",
"q  c #F54914",
"w  c #FF4F18",
"e  c #FF4E19",
"r  c #FF4F19",
"t  c #FF4F1A",
"y  c #F75512",
"u  c #FF5717",
"i  c #F85E11",
"p  c #FF5C16",
"a  c #FF5D16",
"s  c #FF5019",
"d  c #FF5218",
"f  c #FF5418",
"g  c #F5600D",
"h  c #F8750A",
"j  c #FF6312",
"k  c #FF6615",
"l  c #FF6A14",
"z  c #FF6B14",
"x  c #FF7312",
"c  c #FF7512",
"v  c #FF7910",
"b  c #FF7A11",
"n  c #8E6849",
"m  c #8E7B49",
"M  c #B49831",
"N  c #D88619",
"B  c #FA8606",
"V  c #FB8C05",
"C  c #FF820F",
"Z  c #FF880E",
"A  c #FF890E",
"S  c #FF8C0D",
"D  c #FC9203",
"F  c #FF9600",
"G  c #FF9700",
"H  c #F89305",
"J  c #FF9800",
"K  c #FF9A00",
"L  c #FF9B00",
"P  c #FE9A01",
"I  c #FE9902",
"U  c #FF9C00",
"Y  c #FF9D00",
"T  c #FF9E00",
"R  c #FF970B",
"E  c #FF9D0A",
"W  c #FF8010",
"Q  c #D8B419",
"!  c #FFA100",
"~  c #FEA001",
"^  c #FFA200",
"/  c #FFA400",
"(  c #FFA600",
")  c #FFA700",
"_  c #FFA800",
"`  c #FFAA00",
"'  c #FFAB00",
"]  c #FFAC00",
"[  c #FFAD00",
"{  c #FFAF00",
"}  c #FFA509",
"|  c #FFB406",
" . c #FFBC04",
".. c #FFC103",
"X. c #FFC303",
"o. c #FFCD01",
"O. c #F8CD05",
"+. c #FFD000",
"@. c #FFD100",
"#. c #FFD200",
"$. c #FFD300",
"%. c #5A738C",
"&. c #70788C",
"*. c #5894B0",
"=. c #56B1D0",
"-. c #54CEF0",
";. c #53DBFE",
":. c #53DCFF",
">. c #859FB0",
",. c #98C2D0",
"<. c #AAE4F0",
"1. c #B2F3FE",
"2. c #B3F4FF",
"3. c None",
/* pixels */
"3.3.3.3.3.3.3.3.3.3.3.3.3.3.3.3.3.3.3.3.3.3.3.3.3.3.3.3.3.3.3.3.3.3.3.3.3.3.3.3.3.3.3.3.3.3.3.3.3.3.3.3.3.3.3.3.3.3.3.3.3.3.3.3.",
"3.3.3.3.3.3.3.3.3.3.3.3.3.3.3.3.3.3.3.3.3.3.3.3.3.3.3.3.3.3.3.3.3.3.3.3.3.3.3.3.3.3.3.3.3.3.3.3.3.3.3.3.3.3.3.3.3.3.3.3.3.3.3.3.",
"3.3.3.3.3.3.3.3.3.3.3.3.3.3.3.3.3.3.3.3.3.3.3.3.3.3.3.3.3.3.3.3.3.3.3.3.3.3.3.3.3.3.3.3.3.3.3.3.3.3.3.3.3.3.3.3.3.3.3.3.3.3.3.3.",
"3.3.3.3.3.3.3.3.3.3.3.3.3.3.3.3.3.3.3.3.3.3.3.3.3.3.3.3.3.3.3.3.3.3.3.3.3.3.3.3.3.3.3.3.3.3.3.3.3.3.3.3.3.3.3.3.3.3.3.3.3.3.3.3.",
"3.3.3.3.3.3.3.3.3.3.3.3.3.3.3.3.3.3.3.3.3.3.3.3.3.3.3.3.3.3.3.3.3.3.3.3.3.3.3.3.3.3.3.3.3.3.3.3.3.3.3.3.3.3.3.3.3.3.3.3.3.3.3.3.",
"3.3.3.3.3.3.3.3.3.3.3.3.3.3.3.3.3.3.3.3.3.3.3.3.3.3.3.3.3.3.3.3.3.3.3.3.3.3.3.3.3.3.3.3.3.3.3.3.3.3.3.3.3.3.3.3.3.3.3.3.3.3.3.3.",
"3.3.3.3.3.3.3.3.3.3.3.3.3.3.3.3.3.3.3.3.3.3.3.3.3.3.3.3.3.3.3.3.3.3.3.3.3.3.3.3.3.3.3.3.3.3.3.3.3.3.3.3.3.3.3.3.3.3.3.3.3.3.3.3.",
"3.3.3.3.3.3.3.3.3.3.3.3.3.3.3.3.3.3.3.3.3.3.3.3.3.3.3.3.3.3.3.3.3.3.3.3.3.3.3.3.3.3.3.3.3.3.3.3.3.3.3.3.3.3.3.3.3.3.3.3.3.3.3.3.",
"3.3.3.3.3.3.3.3.3.3.3.3.3.3.3.3.3.3.3.3.3.3.3.3.3.3.3.3.3.3.3.3.3.3.3.3.3.3.3.3.3.3.3.3.3.3.3.3.3.3.3.3.3.3.3.3.3.3.3.3.3.3.3.3.",
"3.3.3.3.3.3.3.3.3.3.3.3.3.3.3.3.3.3.3.3.3.3.3.3.3.3.3.3.3.3.3.3.3.3.3.3.3.3.3.3.3.3.3.3.3.3.3.3.3.3.3.3.3.3.3.3.3.3.3.3.3.3.3.3.",
"3.3.3.3.3.3.3.3.3.3.3.3.3.3.3.3.3.3.3.3.3.3.3.3.3.3.3.3.3.3.3.3.3.3.3.3.3.3.3.3.3.3.3.3.3.3.3.3.3.3.3.3.3.3.3.3.3.3.3.3.3.3.3.3.",
"3.3.3.3.3.3.3.3.3.3.3.3.3.3.3.3.3.3.3.3.3.3.3.3.3.3.3.3.3.3.3.3.3.3.3.3.3.3.3.3.3.3.3.3.3.3.3.3.3.3.3.3.3.3.3.3.3.3.3.3.3.3.3.3.",
"3.3.3.3.3.3.3.3.3.3.3.3.3.3.3.3.3.3.3.3.3.3.3.3.3.3.3.3.3.3.3.3.3.3.3.3.3.3.3.3.3.3.3.3.3.3.3.3.3.3.3.3.3.3.3.3.3.3.3.3.3.3.3.3.",
"3.3.3.3.3.3.3.3.3.3.3.3.3.3.3.3.3.3.3.3.3.3.3.3.3.3.3.3.3.3.3.3.3.3.3.3.3.3.3.3.3.3.3.3.3.3.3.3.3.3.3.3.3.3.3.3.3.3.3.3.3.3.3.3.",
"3.3.3.3.3.3.3.3.3.3.3.3.3.3.3.3.3.3.3.3.3.3.3.3.3.3.3.3.3.3.3.3.3.3.3.3.3.3.3.3.3.3.3.3.3.3.3.3.3.3.3.3.3.3.3.3.3.3.3.3.3.3.3.3.",
"& & & & & & & & & & & & = $ & 3.3.3.3.3.3.3.3.3.3.3.3.3.3.3.3.3.3.3.3.3.3.3.3.3.3.3.3.3.3.3.3.3.3.3.3.3.3.3.3.3.3.3.3.3.3.3.3.3.",
"= & & & & & & & & & & & & & & & % 3.3.3.3.3.3.3.3.3.3.3.3.3.3.3.3.3.3.3.3.3.3.3.3.3.3.3.3.3.3.3.3.3.3.3.3.3.3.3.3.3.3.3.3.3.3.3.",
"3.& & & & & & & & & & & & & & & & & 3.3.3.3.3.3.3.3.3.3.3.3.3.3.3.3.3.3.3.3.3.3.3.3.3.3.3.3.3.3.3.3.3.3.3.3.3.3.3.3.3.3.3.3.3.3.",
"3.3.- & & & & & & & & & & & & & & & & # 3.3.3.3.3.3.3.3.3.3.3.3.3.3.3.3.3.3.3.3.3.3.3.3.3.3.3.3.3.3.3.3.3.3.3.3.3.3.3.3.3.3.3.3.",
"3.3.3.3.& & & & & & & & & & & & & & & & & 3.3.3.3.3.3.3.3.3.3.3.3.3.3.3.3.3.3.3.3.3.3.3.3.3.3.3.3.3.3.3.3.3.3.3.3.3.3.3.3.3.3.3.",
"3.3.3.3.3.# & & & & & & & & & & & & & & & & & 3.3.3.3.3.3.3.3.3.3.3.3.3.3.3.3.3.3.3.3.3.3.3.3.3.3.3.3.3.3.3.3.3.3.3.3.3.3.3.3.3.",
"3.3.3.3.3.3.& & & & & & & & & & & & & & & & & & 3.3.3.3.3.3.3.3.3.[ [ ' ` _ ( / ^ T L J J Y ^ / _ { 3.3.3.3.3.3.3.3.3.3.3.3.3.3.",
"3.3.3.3.3.3.3.& & & & & & & & & & & & & ; 3 9 g h V / ! U G F F F F F F F F F F F F F F F F F F F F G ^ ] 3.3.3.3.3.3.3.3.3.3.3.",
"3.3.3.3.3.3.3.3.3.& & ; 2 8 7 h B D I K G F F F F F F F F F F F F F F F F F F F F F F F F F F F F F F F F J _ 3.3.3.3.3.3.3.3.3.",
"3.3.3.3.3.3.3.3.3.~ P G F F F F F F F F F F F F F F F F F F F F F F F F F F F F F F F F F F F F F F F F F F F > 0 3.3.3.3.3.3.3.",
"3.3.3.3.3.3.3.3.U F F F F F F F F F F F F F F F F F F F F F F F F F F F F F F H 6 n     n 6 H F F F F F F F F & & < i 3.3.3.3.3.",
"3.3.3.3.3.3.3.) F F F F F F F F F F F F F F F F F F F F F F F F F F F F F F N . + + + + + + . N F F F F F F F & & & : q 3.3.3.3.",
"3.3.3.3.3.3.3.U F F F F F F F F F F F F F F F F F F F F F F F F F F F F F N O + %.=.-.-.=.%.+ O N F F F F F F & & & & * 5 3.3.3.",
"3.3.3.3.3.3.3.F F F F F F F F F F F F F F F F F F F F F F F F F F F F F H . + *.;.:.:.:.:.;.*.+ . H F F F F F & & & & & & 4 3.3.",
"3.3.3.3.3.3.3.F F F F F F F F F F F F F F F F F F F F F F F F F F F F F 6 + %.;.:.:.:.:.:.:.;.%.+ 6 F F F F F & & & & & & & y 3.",
"3.3.3.3.3.3.3.F F F F F F F F F F F F F F F F F F F F F F F F F F F F F n + =.:.:.:.:.:.:.:.:.=.+ n F F F F F & & & & & & & , 3.",
"r r r r r r r r r r r r r r r r r r r r r r r r r j F F F F F F F F F F   + -.:.:.:.:.:.:.:.:.-.+   F F F F F & & & & & & & & 1 ",
"r r r r r r r r r r r r r r r r r r r r r r r r r x #.#.#.#.#.#.#.#.#.#.X + <.2.2.2.2.2.2.2.2.<.+ X #.#.#.#.#.r r r r r r r r l ",
"3.3.3.3.3.3.3.#.#.#.#.#.#.#.#.#.#.#.#.#.#.#.#.#.#.#.#.#.#.#.#.#.#.#.#.#.m + ,.2.2.2.2.2.2.2.2.,.+ m #.#.#.#.#.r r r r r r r u 3.",
"3.3.3.3.3.3.3.#.#.#.#.#.#.#.#.#.#.#.#.#.#.#.#.#.#.#.#.#.#.#.#.#.#.#.#.#.M + &.1.2.2.2.2.2.2.1.&.+ M #.#.#.#.#.r r r r r r s S 3.",
"3.3.3.3.3.3.3.#.#.#.#.#.#.#.#.#.#.#.#.#.#.#.#.#.#.#.#.#.#.#.#.#.#.#.#.#.O.o + >.1.2.2.2.2.1.>.+ o O.#.#.#.#.#.r r r r r r c 3.3.",
"3.3.3.3.3.3.3.#.#.#.#.#.#.#.#.#.#.#.#.#.#.#.#.#.#.#.#.#.#.#.#.#.#.#.#.#.#.Q @ + &.,.<.<.,.&.+ @ Q #.#.#.#.#.#.r r r r s v 3.3.3.",
"3.3.3.3.3.3.3.#.#.#.#.#.#.#.#.#.#.#.#.#.#.#.#.#.#.#.#.#.#.#.#.#.#.#.#.#.#.#.Q o + + + + + + o Q #.#.#.#.#.#.#.r r r d W 3.3.3.3.",
"3.3.3.3.3.3.3.3.#.#.#.#.#.#.#.#.#.#.#.#.#.#.#.#.#.#.#.#.#.#.#.#.#.#.#.#.#.#.#.O.M m X X m M O.#.#.#.#.#.#.#.#.r r k 3.3.3.3.3.3.",
"3.3.3.3.3.3.3.3.3. ...+.#.#.#.#.#.#.#.#.#.#.#.#.#.#.#.#.#.#.#.#.#.#.#.#.#.#.#.#.#.#.#.#.#.#.#.#.#.#.#.#.#.#.#.f C 3.3.3.3.3.3.3.",
"3.3.3.3.3.3.3.3.3.r r s p z b Z R } | X.+.#.#.#.#.#.#.#.#.#.#.#.#.#.#.#.#.#.#.#.#.#.#.#.#.#.#.#.#.#.#.#.#.#.@.3.3.3.3.3.3.3.3.3.",
"3.3.3.3.3.3.3.e r r r r r r r r r r r r s a z b A E o.#.#.#.#.#.#.#.#.#.#.#.#.#.#.#.#.#.#.#.#.#.#.#.#.#.3.3.3.3.3.3.3.3.3.3.3.3.",
"3.3.3.3.3.3.e r r r r r r r r r r r r r r r r r 3.3.3.3.3.3.3.3.3.3.3.3.@.@.@.@.@.#.#.#.#.#.@.$.#.3.3.3.3.3.3.3.3.3.3.3.3.3.3.3.",
"3.3.3.3.3.r r r r r r r r r r r r r r r r r r 3.3.3.3.3.3.3.3.3.3.3.3.3.3.3.3.3.3.3.3.3.3.3.3.3.3.3.3.3.3.3.3.3.3.3.3.3.3.3.3.3.",
"3.3.3.3.r r r r r r r r r r r r r r r r t 3.3.3.3.3.3.3.3.3.3.3.3.3.3.3.3.3.3.3.3.3.3.3.3.3.3.3.3.3.3.3.3.3.3.3.3.3.3.3.3.3.3.3.",
"3.3.r r r r r r r r r r r r r r r r r s 3.3.3.3.3.3.3.3.3.3.3.3.3.3.3.3.3.3.3.3.3.3.3.3.3.3.3.3.3.3.3.3.3.3.3.3.3.3.3.3.3.3.3.3.",
"3.w r r r r r r r r r r r r r r r w 3.3.3.3.3.3.3.3.3.3.3.3.3.3.3.3.3.3.3.3.3.3.3.3.3.3.3.3.3.3.3.3.3.3.3.3.3.3.3.3.3.3.3.3.3.3.",
"t r r r r r r r r r r r r r r r w 3.3.3.3.3.3.3.3.3.3.3.3.3.3.3.3.3.3.3.3.3.3.3.3.3.3.3.3.3.3.3.3.3.3.3.3.3.3.3.3.3.3.3.3.3.3.3.",
"r r r r r r r r r r r r r r t 3.3.3.3.3.3.3.3.3.3.3.3.3.3.3.3.3.3.3.3.3.3.3.3.3.3.3.3.3.3.3.3.3.3.3.3.3.3.3.3.3.3.3.3.3.3.3.3.3.",
"3.3.3.3.3.3.3.3.3.3.3.3.3.3.3.3.3.3.3.3.3.3.3.3.3.3.3.3.3.3.3.3.3.3.3.3.3.3.3.3.3.3.3.3.3.3.3.3.3.3.3.3.3.3.3.3.3.3.3.3.3.3.3.3.",
"3.3.3.3.3.3.3.3.3.3.3.3.3.3.3.3.3.3.3.3.3.3.3.3.3.3.3.3.3.3.3.3.3.3.3.3.3.3.3.3.3.3.3.3.3.3.3.3.3.3.3.3.3.3.3.3.3.3.3.3.3.3.3.3.",
"3.3.3.3.3.3.3.3.3.3.3.3.3.3.3.3.3.3.3.3.3.3.3.3.3.3.3.3.3.3.3.3.3.3.3.3.3.3.3.3.3.3.3.3.3.3.3.3.3.3.3.3.3.3.3.3.3.3.3.3.3.3.3.3.",
"3.3.3.3.3.3.3.3.3.3.3.3.3.3.3.3.3.3.3.3.3.3.3.3.3.3.3.3.3.3.3.3.3.3.3.3.3.3.3.3.3.3.3.3.3.3.3.3.3.3.3.3.3.3.3.3.3.3.3.3.3.3.3.3.",
"3.3.3.3.3.3.3.3.3.3.3.3.3.3.3.3.3.3.3.3.3.3.3.3.3.3.3.3.3.3.3.3.3.3.3.3.3.3.3.3.3.3.3.3.3.3.3.3.3.3.3.3.3.3.3.3.3.3.3.3.3.3.3.3.",
"3.3.3.3.3.3.3.3.3.3.3.3.3.3.3.3.3.3.3.3.3.3.3.3.3.3.3.3.3.3.3.3.3.3.3.3.3.3.3.3.3.3.3.3.3.3.3.3.3.3.3.3.3.3.3.3.3.3.3.3.3.3.3.3.",
"3.3.3.3.3.3.3.3.3.3.3.3.3.3.3.3.3.3.3.3.3.3.3.3.3.3.3.3.3.3.3.3.3.3.3.3.3.3.3.3.3.3.3.3.3.3.3.3.3.3.3.3.3.3.3.3.3.3.3.3.3.3.3.3.",
"3.3.3.3.3.3.3.3.3.3.3.3.3.3.3.3.3.3.3.3.3.3.3.3.3.3.3.3.3.3.3.3.3.3.3.3.3.3.3.3.3.3.3.3.3.3.3.3.3.3.3.3.3.3.3.3.3.3.3.3.3.3.3.3.",
"3.3.3.3.3.3.3.3.3.3.3.3.3.3.3.3.3.3.3.3.3.3.3.3.3.3.3.3.3.3.3.3.3.3.3.3.3.3.3.3.3.3.3.3.3.3.3.3.3.3.3.3.3.3.3.3.3.3.3.3.3.3.3.3.",
"3.3.3.3.3.3.3.3.3.3.3.3.3.3.3.3.3.3.3.3.3.3.3.3.3.3.3.3.3.3.3.3.3.3.3.3.3.3.3.3.3.3.3.3.3.3.3.3.3.3.3.3.3.3.3.3.3.3.3.3.3.3.3.3.",
"3.3.3.3.3.3.3.3.3.3.3.3.3.3.3.3.3.3.3.3.3.3.3.3.3.3.3.3.3.3.3.3.3.3.3.3.3.3.3.3.3.3.3.3.3.3.3.3.3.3.3.3.3.3.3.3.3.3.3.3.3.3.3.3.",
"3.3.3.3.3.3.3.3.3.3.3.3.3.3.3.3.3.3.3.3.3.3.3.3.3.3.3.3.3.3.3.3.3.3.3.3.3.3.3.3.3.3.3.3.3.3.3.3.3.3.3.3.3.3.3.3.3.3.3.3.3.3.3.3.",
"3.3.3.3.3.3.3.3.3.3.3.3.3.3.3.3.3.3.3.3.3.3.3.3.3.3.3.3.3.3.3.3.3.3.3.3.3.3.3.3.3.3.3.3.3.3.3.3.3.3.3.3.3.3.3.3.3.3.3.3.3.3.3.3.",
"3.3.3.3.3.3.3.3.3.3.3.3.3.3.3.3.3.3.3.3.3.3.3.3.3.3.3.3.3.3.3.3.3.3.3.3.3.3.3.3.3.3.3.3.3.3.3.3.3.3.3.3.3.3.3.3.3.3.3.3.3.3.3.3.",
"3.3.3.3.3.3.3.3.3.3.3.3.3.3.3.3.3.3.3.3.3.3.3.3.3.3.3.3.3.3.3.3.3.3.3.3.3.3.3.3.3.3.3.3.3.3.3.3.3.3.3.3.3.3.3.3.3.3.3.3.3.3.3.3."
};
