/* XPM */
static char *result[] = {
/* columns rows colors chars-per-pixel */
"64 64 114 2 ",
"   c #6D5B5F",
".  c #725D5C",
"X  c #6D615F",
"o  c #72655C",
"O  c #5D5569",
"+  c #5C546A",
"@  c #5D556A",
"#  c #E9001D",
"$  c #EA001D",
"%  c #E8001E",
"&  c #E9001E",
"*  c #E9011E",
"=  c #EA001E",
"-  c #EA001F",
";  c #E9031E",
":  c #EA021E",
">  c #EA041E",
",  c #EA051E",
"<  c #ED141C",
"1  c #EE151C",
"2  c #ED2218",
"3  c #ED2418",
"4  c #F43817",
"5  c #F43E15",
"6  c #B47731",
"7  c #F55F0D",
"8  c #F24213",
"9  c #F24413",
"0  c #F44015",
"q  c #F54914",
"w  c #FF4F18",
"e  c #FF4E19",
"r  c #FF4F19",
"t  c #FF4F1A",
"y  c #F75512",
"u  c #FF5717",
"i  c #F85E11",
"p  c #FF5C16",
"a  c #FF5D16",
"s  c #FF5019",
"d  c #FF5218",
"f  c #FF5418",
"g  c #F5600D",
"h  c #F8750A",
"j  c #FF6312",
"k  c #FF6615",
"l  c #FF6A14",
"z  c #FF6B14",
"x  c #FF7312",
"c  c #FF7512",
"v  c #FF7910",
"b  c #FF7A11",
"n  c #8E6849",
"m  c #8E7B49",
"M  c #B49831",
"N  c #D88619",
"B  c #FA8606",
"V  c #FB8C05",
"C  c #FF820F",
"Z  c #FF880E",
"A  c #FF890E",
"S  c #FF8C0D",
"D  c #FC9203",
"F  c #FF9600",
"G  c #FF9700",
"H  c #F89305",
"J  c #FF9800",
"K  c #FF9A00",
"L  c #FF9B00",
"P  c #FE9A01",
"I  c #FE9902",
"U  c #FF9C00",
"Y  c #FF9D00",
"T  c #FF9E00",
"R  c #FF970B",
"E  c #FF9D0A",
"W  c #FF8010",
"Q  c #D8B419",
"!  c #FFA100",
"~  c #FEA001",
"^  c #FFA200",
"/  c #FFA400",
"(  c #FFA600",
")  c #FFA700",
"_  c #FFA800",
"`  c #FFAA00",
"'  c #FFAB00",
"]  c #FFAC00",
"[  c #FFAD00",
"{  c #FFAF00",
"}  c #FFA509",
"|  c #FFB406",
" . c #FFBC04",
".. c #FFC103",
"X. c #FFC303",
"o. c #FFCD01",
"O. c #F8CD05",
"+. c #FFD000",
"@. c #FFD100",
"#. c #FFD200",
"$. c #FFD300",
"%. c #5A738C",
"&. c #70788C",
"*. c #5894B0",
"=. c #56B1D0",
"-. c #54CEF0",
";. c #53DBFE",
":. c #53DCFF",
">. c #859FB0",
",. c #98C2D0",
"<. c #AAE4F0",
"1. c #B2F3FE",
"2. c #B3F4FF",
"3. c None",
/* pixels */
"3.3.3.3.3.3.3.3.3.3.3.3.3.3.3.3.3.3.3.3.3.3.3.3.3.3.3.3.3.3.3.1 l 3.3.3.3.3.3.3.3.3.3.3.3.3.3.3.3.3.3.3.3.3.3.3.3.3.3.3.3.3.3.3.",
"3.3.3.3.3.3.3.3.3.3.3.3.3.3.3.3.3.3.3.3.3.3.3.3.3.3.3.3.3.y , & r u S 3.3.3.3.3.3.3.3.3.3.3.3.3.3.3.3.3.3.3.3.3.3.3.3.3.3.3.3.3.",
"3.3.3.3.3.3.3.3.3.3.3.3.3.3.3.3.3.3.3.3.3.3.3.3.3.3.3.3.4 & & & r r s c 3.3.3.3.3.3.3.3.3.3.3.3.3.3.3.3.3.3.3.3.3.3.3.3.3.3.3.3.",
"3.3.3.3.3.3.3.3.3.3.3.3.3.3.3.3.3.3.3.3.3.3.3.3.3.3.3.5 & & & & r r r r v 3.3.3.3.3.3.3.3.3.3.3.3.3.3.3.3.3.3.3.3.3.3.3.3.3.3.3.",
"3.3.3.3.3.3.3.3.3.3.3.3.3.3.3.3.3.3.3.3.3.3.3.3.3.3.q * & & & & r r r r s W 3.3.3.3.3.3.3.3.3.3.3.3.3.3.3.3.3.3.3.3.3.3.3.3.3.3.",
"3.3.3.3.3.3.3.3.3.3.3.3.3.3.3.3.3.3.3.3.3.3.3.3.3.i : & & & & & r r r r r d 3.3.3.3.3.3.3.3.3.3.3.3.3.3.3.3.3.3.3.3.3.3.3.3.3.3.",
"3.3.3.3.3.3.3.3.3.3.3.3.3.3.3.3.3.3.3.3.3.3.3.3.3.< & & & & & & r r r r r r k 3.3.3.3.3.3.3.3.3.3.3.3.3.3.3.3.3.3.3.3.3.3.3.3.3.",
"3.3.3.3.3.3.3.3.3.3.3.3.3.3.3.3.3.3.3.3.3.3.3.3.0 & & & & & & & r r r r r r r C 3.3.3.3.3.3.3.3.3.3.3.3.3.3.3.3.3.3.3.3.3.3.3.3.",
"3.3.3.3.3.3.3.3.3.3.3.3.3.3.3.3.3.3.3.3.3.3.3.3.> & & & & & & & r r r r r r r f 3.3.3.3.3.3.3.3.3.3.3.3.3.3.3.3.3.3.3.3.3.3.3.3.",
"3.3.3.3.3.3.3.3.3.3.3.3.3.3.3.3.3.3.3.3.3.3.3._ F F F F F F F F #.#.#.#.#.#.#.#.@.3.3.3.3.3.3.3.3.3.3.3.3.3.3.3.3.3.3.3.3.3.3.3.",
"3.3.3.3.3.3.3.3.3.3.3.3.3.3.3.3.3.3.3.3.3.3.3.J F F F F F F F F #.#.#.#.#.#.#.#.#.3.3.3.3.3.3.3.3.3.3.3.3.3.3.3.3.3.3.3.3.3.3.3.",
"3.3.3.3.3.3.3.3.3.3.3.3.3.3.3.3.3.3.3.3.3.3.] F F F F F F F F F #.#.#.#.#.#.#.#.#.3.3.3.3.3.3.3.3.3.3.3.3.3.3.3.3.3.3.3.3.3.3.3.",
"3.3.3.3.3.3.3.3.3.3.3.3.3.3.3.3.3.3.3.3.3.3.^ F F F F F F F F F #.#.#.#.#.#.#.#.#.#.3.3.3.3.3.3.3.3.3.3.3.3.3.3.3.3.3.3.3.3.3.3.",
"3.3.3.3.3.3.3.3.3.3.3.3.3.3.3.3.3.3.3.3.3.3.G F F F F F F F F F #.#.#.#.#.#.#.#.#.#.3.3.3.3.3.3.3.3.3.3.3.3.3.3.3.3.3.3.3.3.3.3.",
"3.3.3.3.3.3.3.3.3.3.3.3.3.3.3.3.3.3.3.3.3.{ F F F F F F H 6 n   X m M O.#.#.#.#.#.#.3.3.3.3.3.3.3.3.3.3.3.3.3.3.3.3.3.3.3.3.3.3.",
"3.3.3.3.3.3.3.3.3.3.3.3.3.3.3.3.3.3.3.3.3._ F F F F F N . + + + + + + o Q #.#.#.#.#.#.3.3.3.3.3.3.3.3.3.3.3.3.3.3.3.3.3.3.3.3.3.",
"3.3.3.3.3.3.3.3.3.3.3.3.3.3.3.3.3.3.3.3.3./ F F F F N O + %.=.-.<.,.&.+ @ Q #.#.#.#.$.3.3.3.3.3.3.3.3.3.3.3.3.3.3.3.3.3.3.3.3.3.",
"3.3.3.3.3.3.3.3.3.3.3.3.3.3.3.3.3.3.3.3.3.^ F F F H . + *.;.:.:.2.2.1.>.+ o O.#.#.#.@.3.3.3.3.3.3.3.3.3.3.3.3.3.3.3.3.3.3.3.3.3.",
"3.3.3.3.3.3.3.3.3.3.3.3.3.3.3.3.3.3.3.3.3.Y F F F 6 + %.;.:.:.:.2.2.2.1.&.+ M #.#.#.#.3.3.3.3.3.3.3.3.3.3.3.3.3.3.3.3.3.3.3.3.3.",
"3.3.3.3.3.3.3.3.3.3.3.3.3.3.3.3.3.3.3.3.3.J F F F n + =.:.:.:.:.2.2.2.2.,.+ m #.#.#.#.3.3.3.3.3.3.3.3.3.3.3.3.3.3.3.3.3.3.3.3.3.",
"3.3.3.3.3.3.3.3.3.3.3.3.3.3.3.3.3.3.3.3.3.J F F F   + -.:.:.:.:.2.2.2.2.<.+ X #.#.#.#.3.3.3.3.3.3.3.3.3.3.3.3.3.3.3.3.3.3.3.3.3.",
"3.3.3.3.3.3.3.3.3.3.3.3.3.3.3.3.3.3.3.3.3.L F F F   + -.:.:.:.:.2.2.2.2.<.+ X #.#.#.#.3.3.3.3.3.3.3.3.3.3.3.3.3.3.3.3.3.3.3.3.3.",
"3.3.3.3.3.3.3.3.3.3.3.3.3.3.3.3.3.3.3.3.3.T F F F n + =.:.:.:.:.2.2.2.2.,.+ m #.#.#.#.3.3.3.3.3.3.3.3.3.3.3.3.3.3.3.3.3.3.3.3.3.",
"3.3.3.3.3.3.3.3.3.3.3.3.3.3.3.3.3.3.3.3.3.^ F F F 6 + %.;.:.:.:.2.2.2.1.&.+ M #.#.#.@.3.3.3.3.3.3.3.3.3.3.3.3.3.3.3.3.3.3.3.3.3.",
"3.3.3.3.3.3.3.3.3.3.3.3.3.3.3.3.3.3.3.3.3./ F F F H . + *.;.:.:.2.2.1.>.+ o O.#.#.#.@.3.3.3.3.3.3.3.3.3.3.3.3.3.3.3.3.3.3.3.3.3.",
"3.3.3.3.3.3.3.3.3.3.3.3.3.3.3.3.3.3.3.3.3.( F F F F N O + %.=.-.<.,.&.+ @ Q #.#.#.#.@.3.3.3.3.3.3.3.3.3.3.3.3.3.3.3.3.3.3.3.3.3.",
"3.3.3.3.3.3.3.3.3.3.3.3.3.3.3.3.3.3.3.3.3._ F F F F F N . + + + + + + o Q #.#.#.#.#.@.3.3.3.3.3.3.3.3.3.3.3.3.3.3.3.3.3.3.3.3.3.",
"3.3.3.3.3.3.3.3.3.3.3.3.3.3.3.3.3.3.3.3.3.` F F F F F F H 6 n   X m M O.#.#.#.#.#.#.@.3.3.3.3.3.3.3.3.3.3.3.3.3.3.3.3.3.3.3.3.3.",
"3.3.3.3.3.3.3.3.3.3.3.3.3.3.3.3.3.3.3.3.3.' F F F F F F F F F F #.#.#.#.#.#.#.#.#.#.3.3.3.3.3.3.3.3.3.3.3.3.3.3.3.3.3.3.3.3.3.3.",
"3.3.3.3.3.3.3.3.3.3.3.3.3.3.3.3.3.3.3.3.3.[ F F F F F F F F F F #.#.#.#.#.#.#.#.#.#.3.3.3.3.3.3.3.3.3.3.3.3.3.3.3.3.3.3.3.3.3.3.",
"3.3.3.3.3.3.3.3.3.3.3.3.3.3.3.3.3.3.3.3.3.[ F F F F F F F F F F #.#.#.#.#.#.#.#.#.#.3.3.3.3.3.3.3.3.3.3.3.3.3.3.3.3.3.3.3.3.3.3.",
"3.3.3.3.3.3.3.3.3.3.3.3.3.3.3.3.3.3.3.3.3.3.F F F F F F F F F F #.#.#.#.#.#.#.#.#.#.3.3.3.3.3.3.3.3.3.3.3.3.3.3.3.3.3.3.3.3.3.3.",
"3.3.3.3.3.3.3.3.3.3.3.3.3.3.3.3.3.3.3.3.3.3.F F F F F F F F F F #.#.#.#.#.#.#.#.#.#.3.3.3.3.3.3.3.3.3.3.3.3.3.3.3.3.3.3.3.3.3.3.",
"3.3.3.3.3.3.3.3.3.3.3.3.3.3.3.3.3.3.3.3.3.3.F F F F F F F F F F #.#.#.#.#.#.#.#.#.#.3.3.3.3.3.3.3.3.3.3.3.3.3.3.3.3.3.3.3.3.3.3.",
"3.3.3.3.3.3.3.3.3.3.3.3.3.3.3.3.3.3.3.3.3.3.G F F F F F F F F F #.#.#.#.#.#.#.#.#.#.3.3.3.3.3.3.3.3.3.3.3.3.3.3.3.3.3.3.3.3.3.3.",
"3.3.3.3.3.3.3.3.3.3.3.3.3.3.3.3.3.3.3.3.3.3.U F F F F F F F F F #.#.#.#.#.#.#.#.#.#.3.3.3.3.3.3.3.3.3.3.3.3.3.3.3.3.3.3.3.3.3.3.",
"3.3.3.3.3.3.3.3.3.3.3.3.3.3.3.3.3.3.3.3.3.3.! F F F F F F F F F #.#.#.#.#.#.#.#.#.#.3.3.3.3.3.3.3.3.3.3.3.3.3.3.3.3.3.3.3.3.3.3.",
"3.3.3.3.3.3.3.3.3.3.3.3.3.3.3.3.3.3.3.3.3.3./ F F F F F F F F F #.#.#.#.#.#.#.#.#.o.3.3.3.3.3.3.3.3.3.3.3.3.3.3.3.3.3.3.3.3.3.3.",
"3.3.3.3.3.3.3.3.3.3.3.3.3.3.3.3.3.3.3.3.3.3.V F F F F F F F F j x #.#.#.#.#.#.#.#.E 3.3.3.3.3.3.3.3.3.3.3.3.3.3.3.3.3.3.3.3.3.3.",
"3.3.3.3.3.3.3.3.3.3.3.3.3.3.3.3.3.3.3.3.3.3.h F F F F F F F F r r #.#.#.#.#.#.#.#.A 3.3.3.3.3.3.3.3.3.3.3.3.3.3.3.3.3.3.3.3.3.3.",
"3.3.3.3.3.3.3.3.3.3.3.3.3.3.3.3.3.3.3.3.3.& g F F F F F F F F r r #.#.#.#.#.#.#.#.b r 3.3.3.3.3.3.3.3.3.3.3.3.3.3.3.3.3.3.3.3.3.",
"3.3.3.3.3.3.3.3.3.3.3.3.3.3.3.3.3.3.3.3.& & 9 F F F F F F F F r r #.#.#.#.#.#.#.#.z r r 3.3.3.3.3.3.3.3.3.3.3.3.3.3.3.3.3.3.3.3.",
"3.3.3.3.3.3.3.3.3.3.3.3.3.3.3.3.3.3.3.3.& & 3 F F F F F F F F r r #.#.#.#.#.#.#.#.a r r 3.3.3.3.3.3.3.3.3.3.3.3.3.3.3.3.3.3.3.3.",
"3.3.3.3.3.3.3.3.3.3.3.3.3.3.3.3.3.3.3.& & & ; G F F F F F F F r r #.#.#.#.#.#.#.+.s r r t 3.3.3.3.3.3.3.3.3.3.3.3.3.3.3.3.3.3.3.",
"3.3.3.3.3.3.3.3.3.3.3.3.3.3.3.3.3.3.# & & & & K F F F F F F F r r #.#.#.#.#.#.#.X.r r r r s 3.3.3.3.3.3.3.3.3.3.3.3.3.3.3.3.3.3.",
"3.3.3.3.3.3.3.3.3.3.3.3.3.3.3.3.3.3.& & & & & I F F F F F F F r r #.#.#.#.#.#.#.| r r r r r 3.3.3.3.3.3.3.3.3.3.3.3.3.3.3.3.3.3.",
"3.3.3.3.3.3.3.3.3.3.3.3.3.3.3.3.3.& & & & & & D F F F F F F F r r #.#.#.#.#.#.#.} r r r r r w 3.3.3.3.3.3.3.3.3.3.3.3.3.3.3.3.3.",
"3.3.3.3.3.3.3.3.3.3.3.3.3.3.3.3.% & & & & & & B F F F F F F F r r #.#.#.#.#.#.#.R r r r r r r w 3.3.3.3.3.3.3.3.3.3.3.3.3.3.3.3.",
"3.3.3.3.3.3.3.3.3.3.3.3.3.3.3.3.& & & & & & & h F F F F F F F r r #.#.#.#.#.#.#.Z r r r r r r r 3.3.3.3.3.3.3.3.3.3.3.3.3.3.3.3.",
"3.3.3.3.3.3.3.3.3.3.3.3.3.3.3.& & & & & & & & 7 F F F F F F F r r #.#.#.#.#.#.#.b r r r r r r r t 3.3.3.3.3.3.3.3.3.3.3.3.3.3.3.",
"3.3.3.3.3.3.3.3.3.3.3.3.3.3.3.$ & & & & & & & 8 F F F F F F F r r #.#.#.#.#.#.#.z r r r r r r r r 3.3.3.3.3.3.3.3.3.3.3.3.3.3.3.",
"3.3.3.3.3.3.3.3.3.3.3.3.3.3.3.= & & & & & & & 2 F F F F F F F r r #.#.#.#.#.#.#.p r r r r r r r r 3.3.3.3.3.3.3.3.3.3.3.3.3.3.3.",
"3.3.3.3.3.3.3.3.3.3.3.3.3.3.3.& & & & & & & & ; G F F F F F F r r #.#.#.#.#.#.+.s r r r r r r r r 3.3.3.3.3.3.3.3.3.3.3.3.3.3.3.",
"3.3.3.3.3.3.3.3.3.3.3.3.3.3.3.& & & & & & & & & P F F F F F F r r #.#.#.#.#.#...r r r r r r r r r 3.3.3.3.3.3.3.3.3.3.3.3.3.3.3.",
"3.3.3.3.3.3.3.3.3.3.3.3.3.3.3.& & & & & & & & & ~ F F F F F F r r #.#.#.#.#.#. .r r r r r r r r r 3.3.3.3.3.3.3.3.3.3.3.3.3.3.3.",
"3.3.3.3.3.3.3.3.3.3.3.3.3.3.3.& & & & & & & & 3.3.U F F F F F r r #.#.#.#.#.#.3.3.r r r r r r r r 3.3.3.3.3.3.3.3.3.3.3.3.3.3.3.",
"3.3.3.3.3.3.3.3.3.3.3.3.3.3.3.& & & & & & & & 3.3.3.) U F F F r r #.#.#.#.#.3.3.3.e r r r r r r r 3.3.3.3.3.3.3.3.3.3.3.3.3.3.3.",
"3.3.3.3.3.3.3.3.3.3.3.3.3.3.3.& & & & & & & 3.3.3.3.3.3.3.3.3.r r 3.3.3.3.3.3.3.3.3.e r r r r r r 3.3.3.3.3.3.3.3.3.3.3.3.3.3.3.",
"3.3.3.3.3.3.3.3.3.3.3.3.3.3.3.& & & & & # 3.3.3.3.3.3.3.3.3.3.r r 3.3.3.3.3.3.3.3.3.3.r r r r r r 3.3.3.3.3.3.3.3.3.3.3.3.3.3.3.",
"3.3.3.3.3.3.3.3.3.3.3.3.3.3.3.& & & & & 3.3.3.3.3.3.3.3.3.3.3.r r 3.3.3.3.3.3.3.3.3.3.3.r r r r r 3.3.3.3.3.3.3.3.3.3.3.3.3.3.3.",
"3.3.3.3.3.3.3.3.3.3.3.3.3.3.3.& & & & 3.3.3.3.3.3.3.3.3.3.3.3.r r 3.3.3.3.3.3.3.3.3.3.3.3.r r r r 3.3.3.3.3.3.3.3.3.3.3.3.3.3.3.",
"3.3.3.3.3.3.3.3.3.3.3.3.3.3.3.& & & - 3.3.3.3.3.3.3.3.3.3.3.3.r r 3.3.3.3.3.3.3.3.3.3.3.3.r r r r 3.3.3.3.3.3.3.3.3.3.3.3.3.3.3.",
"3.3.3.3.3.3.3.3.3.3.3.3.3.3.3.& & & 3.3.3.3.3.3.3.3.3.3.3.3.3.r r 3.3.3.3.3.3.3.3.3.3.3.3.3.w r r 3.3.3.3.3.3.3.3.3.3.3.3.3.3.3.",
"3.3.3.3.3.3.3.3.3.3.3.3.3.3.3.& = 3.3.3.3.3.3.3.3.3.3.3.3.3.3.r r 3.3.3.3.3.3.3.3.3.3.3.3.3.3.t r 3.3.3.3.3.3.3.3.3.3.3.3.3.3.3."
};
