/* XPM */
static char *_bcd765c33894ca285ff46b9ee4dc778GHJZR5C5v8uzrS5z[] = {
/* columns rows colors chars-per-pixel */
"64 64 246 2 ",
"   c None",
".  c #354A67",
"X  c #364A67",
"o  c #354A68",
"O  c #364A68",
"+  c #364B68",
"@  c #374D6B",
"#  c #354F6F",
"$  c #394D6B",
"%  c #394F6C",
"&  c #394E6D",
"*  c #394F6D",
"=  c #3B516F",
"-  c #3C5170",
";  c #3E5371",
":  c #3F5473",
">  c #3E5678",
",  c #3E5B7F",
"<  c #425776",
"1  c #475D7F",
"2  c #495C7B",
"3  c #485D7D",
"4  c #4E607E",
"5  c #F47920",
"6  c #F57920",
"7  c #F47A21",
"8  c #F57A21",
"9  c #F67D22",
"0  c #F67F22",
"q  c #D72E43",
"w  c #D72E44",
"e  c #D72E45",
"r  c #D82D44",
"t  c #D82E44",
"y  c #D92E44",
"u  c #D82F44",
"i  c #D92F44",
"p  c #D43249",
"a  c #D9394E",
"s  c #D93D54",
"d  c #B35770",
"f  c #C5485F",
"g  c #D94158",
"h  c #DB586E",
"j  c #E35A6D",
"k  c #E35A6E",
"l  c #E55A6D",
"z  c #E4596E",
"x  c #E45A6E",
"c  c #E55A6E",
"v  c #E55B6E",
"b  c #E45A6F",
"n  c #E35B70",
"m  c #E35D72",
"M  c #DB657A",
"N  c #DC677D",
"B  c #E56073",
"V  c #E46175",
"C  c #E56478",
"Z  c #F68224",
"A  c #F88F29",
"S  c #F9972E",
"D  c #F9982D",
"F  c #FDB33A",
"G  c #FDB33B",
"H  c #FDB539",
"J  c #FDB43A",
"K  c #FDB53A",
"L  c #FEB43A",
"P  c #325D87",
"I  c #2F699A",
"U  c #316290",
"Y  c #2D70A7",
"T  c #2C75AD",
"R  c #2B7BB9",
"E  c #4D6384",
"W  c #466288",
"Q  c #476388",
"!  c #476389",
"~  c #46658C",
"^  c #486489",
"/  c #4A668B",
"(  c #536687",
")  c #56698A",
"_  c #466D96",
"`  c #536C90",
"'  c #477099",
"]  c #47749F",
"[  c #587194",
"{  c #587195",
"}  c #5A7396",
"|  c #5C7294",
" . c #5F779A",
".. c #7C6E8C",
"X. c #607290",
"o. c #617293",
"O. c #627394",
"+. c #607799",
"@. c #61789A",
"#. c #677D9E",
"$. c #69789A",
"%. c #6B7B9D",
"&. c #6D7D9F",
"*. c #6F7E9F",
"=. c #717B99",
"-. c #797F9E",
";. c #4779A5",
":. c #477CA9",
">. c #6E7EA0",
",. c #6F7EA0",
"<. c #6F7FA1",
"1. c #886D89",
"2. c #AB7F98",
"3. c #B47D94",
"4. c #CE6D81",
"5. c #E66F81",
"6. c #E77587",
"7. c #7F829F",
"8. c #4781AF",
"9. c #4887B7",
"0. c #4887B8",
"q. c #498ABB",
"w. c #6B81A1",
"e. c #6D83A2",
"r. c #7382A4",
"t. c #7D8AAC",
"y. c #7B8FAC",
"u. c #2781C4",
"i. c #2781C5",
"p. c #2584CB",
"a. c #228AD6",
"s. c #1E8FE3",
"d. c #1B92E9",
"f. c #1893EF",
"g. c #0590FB",
"h. c #0791FB",
"j. c #0C94F9",
"k. c #1495F3",
"l. c #1694F2",
"z. c #2AA5F7",
"x. c #28A7FC",
"c. c #4991C5",
"v. c #4999CE",
"b. c #499ED4",
"n. c #49A4DD",
"m. c #4AA7DF",
"M. c #4AA9E1",
"N. c #4BB5F1",
"B. c #4BBCFA",
"V. c #4BBDFD",
"C. c #4BBEFD",
"Z. c #9592AD",
"A. c #8092B0",
"S. c #889AB5",
"D. c #8A98B6",
"F. c #8B9CB7",
"G. c #8F9BB9",
"H. c #8D98BB",
"J. c #8F9FB9",
"K. c #B794AE",
"L. c #D696A8",
"P. c #DD90AA",
"I. c #DE9EB6",
"U. c #E98FA0",
"Y. c #E997A7",
"T. c #EAA0B0",
"R. c #959FC2",
"E. c #9AA8C0",
"W. c #9BA9C1",
"Q. c #9FADC4",
"!. c #A0A9CC",
"~. c #A6B2C9",
"^. c #A7B3CA",
"/. c #A8B4CA",
"(. c #A9B5CB",
"). c #ACB7CC",
"_. c #A5ACD0",
"`. c #ACB3D6",
"'. c #B2BCD0",
"]. c #B0B6DB",
"[. c #B8BCE0",
"{. c #BABEE2",
"}. c #DEAAC3",
"|. c #BFC3E7",
" X c #C2CADB",
".X c #C6CDDF",
"XX c #EDC2CF",
"oX c #EEC8D5",
"OX c #C8CAEE",
"+X c #DDCAE6",
"@X c #DDCDEB",
"#X c #CED3E3",
"$X c #D2D7E7",
"%X c #D7DBEA",
"&X c #DCDFEC",
"*X c #CCCDF0",
"=X c #D0D0F4",
"-X c #D1D1F6",
";X c #D4D4F9",
":X c #D5D4FA",
">X c #D7D6FB",
",X c #DAD6F8",
"<X c #D8D7FA",
"1X c #D9D7FA",
"2X c #D8D7FB",
"3X c #D9D8FA",
"4X c #D9D8FB",
"5X c #DBDAFB",
"6X c #DCDBFB",
"7X c #DFDFF9",
"8X c #DDDCFB",
"9X c #DFDDFA",
"0X c #DEDCFB",
"qX c #DFDEFB",
"wX c #DFDFFB",
"eX c #DADAFC",
"rX c #DCDBFC",
"tX c #DDDCFC",
"yX c #E0CDE7",
"uX c #EFDCE8",
"iX c #E0DEFB",
"pX c #E0DFFC",
"aX c #DDE1ED",
"sX c #F0E0EB",
"dX c #E1E4F0",
"fX c #EAEBF6",
"gX c #EAEBF7",
"hX c #E0E0FB",
"jX c #E1E1FB",
"kX c #E4E3FB",
"lX c #E0E0FC",
"zX c #E0E0FD",
"xX c #E2E0FD",
"cX c #E5E4FC",
"vX c #EDEDF8",
"bX c #EDEEF9",
"nX c #F0E6F1",
"mX c #F1EBF5",
"MX c #F0F0FA",
"NX c #F1F1FA",
"BX c #F0F0FB",
"VX c #F1F0FB",
"CX c #F1F1FB",
"ZX c #F2F2FB",
"AX c #F1F1FC",
"SX c #F2F2FC",
/* pixels */
"                                                                                                      SXCXZXAXCXCXCXCXCXCXCX    ",
"                                                                                          VXCXCXVXZXZXVXCXCXCXCXCXCXCXCXCXCXcXjX",
"                                                                                    CXCXVXZXVXZXCXCXVXZXCXCXCXCXCXCXCXCXVXkX2X6X",
"                                                                              VXCXCXCXCXVXVXZXVXCXCXZXVXCXCXCXCXCXCXCXCXkX>X2X3X",
"                                                                          ZXVXZXCXCXCXCXCXCXCXCXCXCXCXCXCXCXCXCXCXCXCXkX2X>X>X2X",
"                                                                      CXZXVXCXCXCXCXCXCXCXCXCXCXCXCXCXCXCXCXCXCXCXCXkX>X>X>X>X3X",
"                                                                  VXCXCXCXCXCXCXCXCXCXCXCXCXCXCXCXCXCXCXCXCXCXCXCXkX>X>X>X>X>X4X",
"                                                                VXZXCXCXCXCXCXCXCXCXCXCXCXCXCXCXCXCXCXCXCXCXCXCXkX>X>X>X>X>X2X2X",
"                                                            CXCXZXCXCXCXCXCXCXCXCXCXCXCXCXCXCXCXCXCXCXCXZXVXVXkX>X>X>X>X>X>X>X2X",
"                                                          CXCXCXVXZXCXCXCXCXCXCXCXCXCXCXCXCXCXCXCXCXCXCXVXVXkX>X>X>X>X>X>X>X2XeX",
"                                                        VXVXCXCXCXCXCXCXCXCXCXCXCXCXaX$X%XgXCXCXCXCXCXCXZXkX>X>X>X>X>X>X>X>X>XeX",
"                                                      ZXVXZXCXCXCXCXCXCXCXCXCXaXJ.[ W / W W w.~.gXCXCXCXkX2X>X>X>X>X>X>X>X>X2X8X",
"                                                    VXZXCXCXCXCXCXCXCXCXCXCXE./ W W W W W W W W [  XCXkX>X>X>X>X>X>X>X>X>X>X>X8X",
"                                                VXZXZXVXCXCXCXCXCXCXCXCXbXy.W W W W W W W W W W / W G.>X>X>X>X>X>X>X>X>X>X>X2X7X",
"                                                CXCXVXZXCXCXCXCXCXCXCXCXF.W W W W / :.q.0.] W W W > . H.>X>X>X>X>X>X>X>X>X>X2XjX",
"                                              CXCXCXCXCXCXCXCXCXCXCXCX.XQ W W W 8.N.C.C.C.C.M.' > . . @ *X>X>X>X>X>X>X>X>X>X>X  ",
"                                            VXVXCXCXCXCXCXCXCXCXCXCXCXe.W W W 9.C.C.C.C.V.V.V.z.U . . . %.>X>X>X>X>X>X>X>X>X3X  ",
"                          x j x x x x x 6.mXVXVXCXCXCXCXCXCXCXCXCXCXaXW W W _ B.C.C.C.C.V.V.x.g.k.. . . : >X>X>X>X>X>X>X>X>XtX  ",
"                x x x x x x x x x x x C uXVXVXVXCXCXCXCXCXCXCXCXCXCX'.W W W c.C.C.C.C.C.V.x.g.g.g.I . . o OX>X>X>X>X>X>X>X>XtX  ",
"              x x x x x x x x x x x x XXZXZXVXZXCXCXCXCXCXCXCXCXCXCXQ.W W W n.C.C.C.C.C.x.h.g.g.g.u.. . o `.>X>X>X>X>X>X>X3X    ",
"              x x x x x x x x x v v Y.CXCXCXCXCXCXCXCXCXCXCXCXCXCXCXE.W W W m.C.C.C.C.x.g.g.g.g.g.p.. . . _.>X>X>X>X>X>X>X3X    ",
"            x x x x x x x x x x v N vXCXCXCXCXCXCXCXCXCXCXCXCXCXCXCX).W W W v.C.C.C.x.h.g.g.g.g.g.T . . . |.>X>X>X>X>X>X>XtX    ",
"          x x x x x x x x x x x v oXCXCXCXCXCXCXCXCXCXCXCXCXCXCXCXCX#XW W W ;.C.C.x.h.g.g.g.g.g.j.# . . @ >X>X>X>X>X>X>X>XxX    ",
"          x x x x x x x x x x x Y.SXCXCXCXCXCXCXCXCXCXCXCXCXCXCXCXAXAX[ W W W b.x.g.g.g.g.g.g.g.R . . . ) >X>X>X>X>X>X>X3X      ",
"        x x x x x x x x x x x B uXZXVXVXCXCXCXCXCXCXCXCXCXCXCXCXCXCXCX/.W W W , d.g.g.g.g.g.g.u.. . . . ].>X>X>X>X>X>X>X8X      ",
"      x x x x x x x x x x x x T.ZXZXVXVXCXCXCXCXCXCXCXCXCXCXCXCXCXCXCXvX#.W > . . Y s.l.f.a.P . . . . o.>X>X>X>X>X>X>X>X        ",
"      x x x x x x x x x x x V nXVXZXVXVXCXCXCXCXCXCXCXCXCXCXCXCXCXCXCXCXaX1 . . . . o o . . . . . . 3 >X>X>X>X>X>X>X>X6X        ",
"    x x x x x x x x x x x x L.AXZXVXZXVXCXCXCXCXCXCXCXCXCXCXCXCXCXCXCXCXjX[.: . . . . o . . . . . ( -X>X>X>X>X>X>X>X>XxX        ",
"  x x x x x x x x x x x x m | /.VXZXCXCXCXCXCXCXCXCXCXCXCXCXCXCXVXVXVXkX>X>X-Xw.& o o o . . o < R.>X>X>X>X>X>X>X>X>X8X          ",
"  x x x x x x x x x x x x 3.W W (.VXCXCXCXCXCXCXCXCXCXCXCXCXCXCXVXVXkX>X>X>X<X<X:XQ.r.O.$.t.{.>X>X>X>X>X>X>X>X>X>X>X            ",
"x x x x x x x x x x x x x -.W W Q /.VXCXCXCXCXCXCXCXCXCXCXCXCXCXVXkX>X>X>X>X>X>X>X>X>X>X>X>X>X>X>X>X>X>X>X>X>X>X>X8X            ",
"x x x x x x x x x x x x M / W W Q Q /.CXCXCXCXCXCXCXCXCXCXCXCXCXkX2X>X>X>X>X>X>X>X>X>X>X>X>X>X>X>X>X>X>X>X>X>X>X3X              ",
"x x x x x x x x x x x x 2.W W W W W Q /.CXCXZXVXVXZXVXZXAXSXAXxX>X>X>X>X>X>X>X>X>X>X>X>X>X>X>X>X>X>X>X>X>X>X>X<XxX              ",
"  x x x x x x x x x x x 7.W W W W W W Q /.CXCXVXZXVXZXVXVXSXxX:X>X>X>X>X>X>X>X>X>X>X>X>X>X>X>X>X>X>X>X>X>X>X>XtX                ",
"    x x x x x x x x x n ` W W W W W W W / /.VXVXCXCXVXVXVXkX2X2X>X>X>X>X>X>X>X>X>X>X>X>X>X>X>X>X>X>X>X>X2X>X4X                  ",
"              x x x x 4.W W W W W W W W W Q /.VXCXCXVXVXcX3X:X2X>X>X>X>X>X>X>X>X>X>X>X>X>X>X>X>X>X>X>X>X2X4X                    ",
"                      Z.W W W W W W W W W W W ~.CXCXCXkX2X:X2X2X>X>X>X>X>X>X>X>X>X>X>X>X>X>X>X>X>X>X>X>X2X                      ",
"                      A.W W W W W W W W W W W W /.SXkX2X2X:X2X:X>X>X>X>X>X>X>X>X>X>X>X>X>X>X>X>X>X>X>X>XxX                      ",
"                      S.W W W W W W W W W W W W / S.2X>X2X2X:X2X>X>X>X>X>X>X>X>X>X>X>X>X>X>X>X>X>X>X>XiX                        ",
"                        @.W W W W W W W W W W W > o &.>X:X2X2X2X>X>X>X>X>X>X>X>X>X>X>X>X>X>X>X>X>X>XiX                          ",
"                           .W W W W W W W W W > . . o &.<X2X2X:X>X>X>X>X>X>X>X>X>X>X>X>X>X>X>X>X3X8X                            ",
"                             .W W W W W W W > . . . . o >.2X2X:X>X>X>X>X>X>X>X>X>X>X>X>X>X>X>X<XxX                              ",
"                              +.W W W W W > . . . . . . o %.2X2X>X>X>X>X>X>X>X>X>X>X>X>X<X>X<XyX                                ",
"              K K                .W W W > . . . . . . . . o >.:X>X>X>X>X>X>X>X>X>X>X>X>X<X<XN                                   ",
"            K L L L               @.W > . . . . . . . . . . o &.>X>X>X>X>X>X>X>X>X>X>X>X+Xg t                                   ",
"          K L L L K                 E . . . . . . . . . . . . o >.>X>X>X>X>X>X>X>X>X<XI.t t t                                   ",
"        J J L F K                     - . . . . . . . . . . . . o &.>X>X>X>X>X<X>X@Xh t t t t                                   ",
"      J J J J F                         = . . . . . . . . . . . . o &.>X>X>X>X<XP.t t t t t w                                   ",
"    K L L L F                             - . . . . . . . . . . . . o >.2X3X}.a t t t t t t w                                   ",
"  K L L L K             K L D               = . . . . . . . . . . . . * K.s t t t t t t t t u                                   ",
"J J F J K             L K S 8 A               = . . . . . . . . o 2 1.p t t t t t t t t t t w                                   ",
"J J J J             K L S 8 9                   - . . . o * 2 ..f t t t t t t t t t t t t t                                     ",
"  L K             L K S 8 9                       <.o.=.d i t t t t t t t t t t t t t t t t                                     ",
"                K L S 8 9                               q i t t t t t t t t t t t t t t t t                                     ",
"              L L S 8 9             8 8                 i q t t t t t t t t t t t t t t t t                                     ",
"            K L S 8 9             8 8 8 8               q i t t t t t t t t t t t t t t t t                                     ",
"          L K S 8 9             8 8 8 8 8               t t t t t t t t t t t t t t t t u                                       ",
"        K L S 8 9             8 8 8 8 8                   t t t t t t t t t t t t t t                                           ",
"      K L S 8 9             8 8 8 8 8                     t t t t t t t t t t t t q                                             ",
"    F L S 8 9             6 8 8 8 8                       t t t t t t t t t t t                                                 ",
"  L L S 8 9             8 8 8 8 8                         t t t t t t t t t t                                                   ",
"K L S 7 9             8 8 8 8 8                           t t t t t t t t                                                       ",
"K D 8 9               8 8 8 8                               t t t t t t                                                         ",
"  9 Z                   8 8                                   w t t                                                             "
};
