/* XPM */
static char *result[] = {
/* columns rows colors chars-per-pixel */
"128 128 3 1 ",
"  c black",
". c #E7E7E7",
"X c gray98",
/* pixels */
"                                                                                                                                ",
"                                                                                                                                ",
"                                                                                                                                ",
"                                                                                                                                ",
"                              .       .                                          .       .                                      ",
"                                              .         .       .                                .     .       .                ",
"     .       .                                                          .                                              .        ",
"                     .                                                                                                          ",
"                                         .                                                  .                                   ",
"                                               .    .              .                              .    .          .             ",
"                .               .                                        .    .    .                                    .    .  ",
"                      .    .                              .                                              .                      ",
"       .                                                                                                                        ",
"                                                                                                                                ",
"                                                     .                                                  .                       ",
"                                      .                                        .         .                                    . ",
"                            .                                   .                                              .                ",
"             .                              .                                                  .                                ",
"                                                                      .                                              .          ",
"                   .               .               .                                  .               .                         ",
"                             .                               .               .  .                           .               .   ",
"          .               .                            .                                              .                         ",
"    .                                                                                                                           ",
"                                           .                                                  .                                 ",
"                                .                                    .             .                                .           ",
"                  .                             .         .                                        .     .                      ",
"       .                                                                  .                                              .      ",
"                       .            .                                                  .                                        ",
"                                    .       .                 .                        .       .         .   .   .              ",
"           .   .       .           .       .                  .       .               .       .              .       .   .      ",
"           .       .           .                   X       .                                          .                         ",
"                                                                  ..      .                                                     ",
" .       .                                                                        .                                 .           ",
"                 .        .                   .                                                  .                        .    .",
"                                .    .              .    .    .                                        .   ..                   ",
"                 .                   .                              .    .   .          .                                       ",
"            .                                        .                             .    .                                       ",
"                  .    .                                            .                                                           ",
"   .                                                                                                                            ",
"                                      .                   .                                                  .   .              ",
"                       .                   .                              .                   .                                 ",
"                                                           .                             .                             .        ",
"                        .    .                   .                        .                         .                           ",
"         .                                                       .                                            .               . ",
"                    .               .   .               .                       .          .            .  .                    ",
"              ..                  .                     .               .            .                                          ",
"                                                  .                    .               .                                        ",
"      .               .                                          .                                                    .         ",
".                           .                   .                                                  .       .                    ",
"                 .                   .                          .                       .                                  .    ",
"                                 .                   X                         .                        .                       ",
"              .                                                     ..                                         .                ",
"   .                 .                   .                                          .       .                  .       .        ",
"                   . .       .           .       .       .                         .       ..       .                           ",
"                                                         .       .      .                          .                            ",
"       .            .       .                                           .       .                                               ",
" .     . .     .                    .  .       .                                                           .       .            ",
"                 .                                     .    .       .                         .                            .    ",
"                                                                            .                       .    .                      ",
"                               .                                                     .                                          ",
"            .                        .    .       .                                                                   .         ",
"                  .   ..                                .    .         .                                                    .   ",
"   .                                     .                                   .    .                          .                  ",
"                                                              .                                           .                     ",
"                                                                                           .                                    ",
"                                           .                                                                                    ",
"                        .   .                                 .                                  .                              ",
"         .                                     .                                   .                               .            ",
"                                  .                                 .                   .               .                       ",
"               .                                     .                            .                                      .      ",
"                         .               .                                .                                                     ",
"      .            .  .                     .               .                                                   .               ",
".                                     .                          .               .              .         .                     ",
"                                                           .                         .                                          ",
"                                 .                                                                   .                          ",
"              .       .                             .                                                                   .       ",
"   .                                  .  .                               .               .                .  .    .             ",
"                   .                                     .    .                        . .     . .                        .  .  ",
"                          .                                                   .                        .                        ",
"       .                  .       .          .                                                                   .              ",
"       .       .                             .       .            .                                              .   .   .      ",
"  .       .                                                       .       X       .               .                        .    ",
"                  .                                 .       .                             .             .   ..                  ",
"                           .       .                                .                    .                                      ",
"                                           .                                                                                    ",
"             .                                                                       .                                          ",
"                   .    .                                      .                           .    .                               ",
"    .                                 .                              .    . .                                 .   .             ",
"                                            .    .    .                                        .                                ",
"                             .                                                                                          .       ",
"                                                                                                     .                          ",
"                         .                                                                       .             .               .",
"          .                                                                .      .         .            .  .                   ",
"                                                  .         .                         .                                         ",
"                .                  .                                                    .                                       ",
"                                                                  .                                                    .        ",
"       .               .                 .                                     .               .    .       .                   ",
" .                                                       .               X               .                                  .   ",
"                                .               .  .                                                     .                      ",
"                          .                                                                                     .               ",
"               .                                                                       .     .                  .       .       ",
"    .                                                            .          .                .       .   .       .              ",
"                    .                   .             .                                     .                            .      ",
"                             .                                        .                 .       .                               ",
"        .                                    .                                  .                       .                       ",
"   .    .  .    .   .       .              .       .      .          .       .  .       .                           .           ",
"                   .             .  .                     ..      .                  .                                    .    .",
"                                 .       .                                                         .       .                    ",
"                                                                                                         .    .                 ",
"              .                .                      .                         .         .                                     ",
"                    .    .           .    .                 .    .                    .    .                                    ",
"     .                .                      .                         .                                                        ",
"                                                                                                                 .              ",
"                                                                                                               .                ",
"                                                                                                .                      .        ",
"                          .                .                      .                         .                                   ",
"           .                .                      .                         .                        .       .               . ",
"                                                                                                        .                       ",
"                 .                .                      .                         .         .               .                  ",
"                                                                                       .                                        ",
"        .               ..               .      .               .         .               .                           .         ",
"  .                .                      .                         .                                      .                    ",
"                                                                                                     .                     .    ",
"                                                                                          .                                     ",
"                .                .                      .                         .                       .    .                ",
"     .                .                      .                         .                                       .       .        ",
"                     .                .                      .                         .      .                                 ",
"                                                                                              .       .                         "
};
